<svg xmlns="http://www.w3.org/2000/svg" xmlns:xlink="http://www.w3.org/1999/xlink" width="700" height="700" viewBox="0 0 700 700"><switch><g><path fill="#044D83" d="M700 350a350 350 0 1 1-700 0 350 350 0 0 1 700 0"/><path fill="#E1D9C7" d="M591.9 349a241 241 0 1 1-482 .1 241 241 0 0 1 482 0"/><path fill="#B4A487" d="M264.7 152.6c1.8.3 4 0 5 1.4 0 2.6-4.3 2.2-2.1 4.8 1 0 1.4-1.5 1.8-2.6 5-1.4 2.5 6.6 7.2 6.6 0 3.2 3 6.8 1.9 10.1 0 1 1.8 1.5 1 2.5a3 3 0 0 0-2.5 1.5c.4 3 4 .7 5.4 2.5 5.5 0 10.2-5 16.7-4 4-1 9-1 13-1 3.3 1.4 1.5 4.3 4 5.7-1 1.5-2.8 2.6-4.6 2.2-1.8-1.8-4 1.5-5.8 2.6v.3c0 1.1 1.4.4 1.8.4.7 2.2-1.1 2.5-2.6 3.6-2.2 0-.7-2.9-2.9-2.5-4.7.7-12-1.1-14.8 4.3-1.8-1-4-.3-5.8.4-3.7 3.6.3 8.7-3.3 12.3l.4 4.4c-1.5 2.9-5.5 5.4-4.4 8.7 1 4.7-6.5 7.6-.4 11.6-2.1 4.3 1.1 6.5.4 10.5-.7 0-.7.4-1 .7l1.4 1.1c-1.1.4-1.9.4-2.6.7 0 1.1 1.1 0 .7 1.1-.3 0-1 .4-1.4.8 1 0 1.4.3 2.2 1 .3-2.9 3.6-1.8 5.4-2.5 1.5.4 2.2 1.8 3.6 0 1.1 1.1-.3 3.3 1.1 4 .4-4.4 6.6 0 6.6-3.6 2.5.3 4-3.3 6.1-.8 3.3-1 6.9-3.2 10.2-2.5.7-2.5 5.4 1.4 4-2.1l-1.5.3c-.3-.3 0-1.1-.3-1.4.7.3 1-.4 1.8-.8a2 2 0 0 0-1.1-1.8c-.4.4-.7 0-1.5 0-.3-.4 0-1-.3-1.8 3.6-1.8 4.3 2.2 6.5 3.3.7 3.6-4 4-2.5 7.2-1.5 1.5-1.1 4-3.3 4.7.4.4.7.8.4 1.1l-1.5.7.4 1.5c-3.3-.7-5.8 3.6-9.1 1.8-2.5 2.6-7.2 2.9-9.4 6.2-3 3.6-6.6 1.8-9.8 4.3-1.8 0-3.3.4-4.4-.7-2.2 1.5-4.7 2.5-7.2 1.8-1.8-.3-4-1.4-3.3-4 1.5-1.4-.4-4 2.2-5-.4-2.2-3.6-1.5-3.6-3.7-1.5 1.1-1.9 3.7-3 5-1 1.5 1.5 4-1 4.4 1 1.1 2.9.8 4.7 1.5-1.5 1.8 1.4 6.9-3 6.9-2.1-1.4-6 0-7.2-3.3-.3-3.6 4-4.3 3.6-8 3.3-4 1.9-12.7 9.1-11.2.7-.4 1.5-.4 1.8-1-2.1.3-2.1-1.9-4-2.3-1-2.5 0-5.4-.7-8.3-.3-3.3 5-3 3.3-6.5.3.3.7-.4 1-.4-1.4-1-1-3.2-.3-4.3a11 11 0 0 0 2.6-1.8c-.4-.8-1.9 0-1.5-1.9.7-1.8 4.7-1 3.3-4-4.8-2.5-1.1-8-2.2-12.3.7-3.3-1.1-6.2-1.1-9-3.6.7-7 1-10.2 2.1-4.3 0-8 2.2-12 3.6-2.1-.7 3.7-6.1-1.4-3.6 0 .4 0 1.4-1.4 1.1-1.8-1.5.3-3.2.3-4.7 4-1 5.5-7.3 10.6-5 4-1.9 10.5-1.9 11.6-6.6 1.8-1.5.3-4.7.7-7.3-4.7-3.6-5.1-9.8-8-14.8.4-2.6-1.5-5.5-.4-8.4 2.6 2.2 5.1-1.8 6.6 2.2M213 257.5c3.6.7 8 .4 9 4-2.5 1 0 3.6-2.1 5-4.7-4-11-1-16.4-2.1-4 1-11.2-2.2-13.7 2.9.3 4.3 3.2 9 1.4 13.8 1 2.5.4 6.9 3.3 8.7-1.8 2.5.3 5 0 8-1.8.7-4.4 0-5.1-1.9 0-.7.4-1.4-.4-1.8-1.8 1.8-2.9-.3-4-1.8 1.9-.7.4-2.9 0-4.3-1.8-1.5-.3-4-2.5-5.5-1.4-4 .4-8.3-3.3-11.6 1.1-2.9-3.2-2.9-4.7-4.7-.7 1.8-2.2 2.5-3.6 1.5-.7-.4-1.4-.8-2.2-.4-1.8 1-4.7 1-7.2 1.4-2.2-1-5.8-2.5-8.4 0-1-.3.4-2.5-1-2.9 2.5 0 4-2.9 6.5-3.6 4 .7 6.5-3.6 10.9-2.5 4-.7 9-1.1 13.4 0l1.4-1.5-1.4-1.4c1.8-1.1 3.2.7 4.7 1 4-1.8 10.9 1.5 13.8-2.8 2.9 3.6 8.3-.4 11.6 2.5m16.3 6.2c-1.8 3.6 1 7.6.4 10.8 3.2 4.4-3.3 7.3-.4 11-.4 1.4 0 3.2-1.5 4.3 2.6 1.4-1 2.9-.7 5 0 6.6-6.1 10.2-10.1 15.3.3.7.7 1 .7 1.8-3 0-3.6 2.2-4.7 4-3.3 3.3-7 5-10.2 8.3-3.2 3-9 6.2-10.1 9.1-3 1.4-4 3.6-5.8 6.2-3.6-1.5-6.6 1.4-9.8.3.3-3.2 4.7-4.7 7.2-6.9 1.5-3.6 7.6-4 6.2-9 3.3-3.3-.7-7.6 2.9-10.6-1.8-1.4-1.5-3.6-3-5.4-.3-1.4 0-2.9 1.5-3.2-.7-1.9.4-3 .4-4.4.7-.4 2.2-1.1 2.9-.4-1.4 2.6 2.6 5.1.4 8 3.6.8-.8 4.7 1.8 6.9-1.1 1 1 4.4-1.8 3.6-1.5.8-1.1 2.6-.8 3.7 1.9 1 3.7-.8 5.1-1.8v.3c3.7-1.4 6.5-4.3 9-7.3 1.2.4 1.5-.7 1.9-1.4 2.9-4 7.2-7.2 6.9-12.7.7-1.8 2.9-4.3 1.4-6.5-1.4-5.1 5.5-7.3 3-12.3 2.1-1.5.7-4.4 2.8-5.5 4-1.8-2.5-6.5 3-6.5.3-2.6-5.5-4.4-1.2-5.8.8-3 3.3-1.5 2.6 1"/><path fill="#B4A487" d="M204.4 280.7c.7 1.8-.8 3.6 1 4.7v6.6c-1.4.7-2.8 2.8-5 2.1-2.2-2.1-2.6-4.7-2.2-7.6 1-2.9 3.6-4.7 6.2-5.8m-13.8 20.7l-.7 1.4c-1.1 0-1.8-1.4-1.5-2.9 1 0 1.8.4 2.2 1.5M207 448.2c3.3 1.1 3-1.8 3.7-3.6.3-.4 1 0 1.4 0v-.7c4-7 13.1-5.8 19-10.2 5.3-1.4 11.9-2.1 14.7-7.2l-5.4-.8c-4.7 4-11.2 3.3-16.3 6.6-4.7 3.3-11.2 2.2-15.6 5.8-3.3-.8-4.3 2.1-7.3 2.1-.7-.3-1-1-1-2.1 4.7-3.3 1.4-9.8 5.8-13.5 8.3-2.1 14.5-9 23.5-9.4 2.6-3.6 8-1.8 8.7-6.5-1-.8-1 .7-2.1 1.1-10.2 1.4-18.9 6.9-29.4 8.3-1.8.4-4.4 3.3-6.2.8 1.8-3.3 1.1-7 2.2-10.2.7-2.2 3.3-3.3 5.8-2.9 3.6-2.5 8.7-1.8 12.7-3.6A73 73 0 0 1 233 396c2.2-1 5.8-.7 7-3.3-4.8-1-11.7 1.5-15.3 5.1-.8 0-.4-.7-.4-1h-4.4c-1.4 3.6-8.3.6-10.5 4.3-4.3-1.5-9 1-13.4 0-3.3-1.1-5.4-3.3-4-7.3 1.1-1 1.8-2.2 3.7-2.5 3.2 1.8 4.7-1.8 7.6-3 4.7-.6 9-4.3 12-8.6 1-2.6 0-5.5-.4-8-3.7-4.7-9-1.8-13.5-4.3-2.9 1.8-5.7-.4-9 0-3.6 2.5-6.9-.8-10.9 1.4-5-1.4-8.3 3.6-13.7 2.5 0 1.1-3 1.9-1.9 3.6 4.4 0 10.9 0 15.3-.7 1.4 1.1 3.2-1 4.7-1.4.7 1.4 1 3.2.7 5-1.5 3.3-1.1 7.7-1.5 11.3 2.2 4-2.5 4-3.2 6.9-6.2 2.5-5.8 9.8-10.9 13.8-7.3 4.7-1.8 12.3-2.5 18.5 1 2.2 3.2-.7 5 1.4-.3 1.9-1 4-2.9 4.8 1.1 2.5-1 5.4 1.1 8 2.2 0 2.6 2.1 3.6 3.6-1.4 1.8.8 4.3 2.2 5.4 3.3-.4 7.3 1.4 10.2-1.5 5.8 1.1 13.4.7 17.4 5.1-6.2 4.7-8.7 12-14.5 16-2.6 6.2-9.8 9.4-13.8 14.5-3.3 1.8-4.7 8-9.8 6.5 0 1.5 1.1 2.2.8 4 1.4-.7 3.6 1.4 4.7-.7a4 4 0 0 1 4 1c1.4-5.7 8.6-1.7 9-8 4-.3 4.4-5.4 8-7.2 2.2-1 5.8 2.2 6.9-1.8l12.7-1.8c4 .4 8.7 1 11.6-1.8-5-1.4-10.6-2.5-16-2.2-2.5-1.4-5.8.8-8.3-1-1.1-2.6 2.9-2.3 2.9-4.4l1.8 1.8c.3-1.8 2.2-1.5 2.9-1 1.4-3.7 4.3-6.6 8.3-7 3.6 2.9 7.3-1 11 .4 1.7 1 4.3-1.1 7.2-.7 0-1.1.3-2.6-.4-3.7-2.9.4-6.5-1.4-10.2-1.4-4.3-2.2-9.8.3-13.7-2.2 0-4.7-4.8-4.4-7.3-6.5-.7-.7 0-1.8.4-2.6 1-.3 1.8-1.8 3.2-1l-.7 3.2c.4.7.7 1 1.4.7M194.5 374c.7-.7 2.1-1.8 3.2-1.1.7 2.5 3.6 1.4 5.5 2.1 1.4-.3 2.5-2.5 4.3-1.7.4 2.1 4 2.8 2.2 5.7-4.7 2.2-9 5.5-14.1 6.6-1.1 2.9-4 .7-5.5 2.5 2.2-3.6 4-9 4.4-14.1m-1.9 69.3c-4.7.7-9.4 6.1-14 2.5 1.4-3-.5-5.8-1.5-8-.8-2.9-2.6-6.9.3-9 2.2-1.1 2.6 2.1 3.3 3.2 2.5-5.4 10.9-.7 13-6.9 2.6-1.5 5.5 0 3.7 3.3-1.5 1.8 1 3.6 1 5.4-1.4 3.6-1.4 8-5.8 9.5m-4.3-20.4c-4.7 1.5-10.9.4-15.2 1.8 1.8-5.7 3.6-12 7.6-17-1.8-4.3 4.3-2.9 2.9-6.9.7 0 .7.4 1 .4-1 4 3.7 1 5.2 3.6 2.1-2.2 4 1.5 6.1 1.8 1.1 1.4 3.3 3.6 1.5 5.8 1.4 1.8-.8 5.5 1.8 6.6-1.5 4.6-7.3 2.8-10.9 4m95.9 59.8c-2.2-.7-3.3 4-6.5 3.2-2.2.8-3.7 4.8-6.6 2.6-4.3-1-6.1 3.3-8.3 6.2-1 3.2 3.6 1.4 1.8 4.7.4.3 1.1.3 1.5 1-1.1 1.9-1.8 4.4-.8 5.9-2.5 3.2 3.7 6.5-.7 9.4 1.8 1.1 2.2 3.6 4.7 2.5 2.2-4 7.3-1.8 10.5-3.6 3-1.8 6.6-2.5 10.2-3.3 1.1 2.2-1.8 2.6-2.5 3.7-2.2.7-4.8 1.8-5.8 4-2.6-.4-4 2.5-7 1.4l-1 1.8c-1.1.4-2.2-1.4-3.6 0-2.6 1.1 1 3-1.1 4 3.2 1.8-3 6.2 1 8.4.8.7 0 1.8.8 2.5h2.2c1 1.8 3.2 3.7 3.6 6.2 1.4.3 2.2 1.4 3.2 2.1 7-.3 13.1-4.3 19.3-7.2.7 0 2.5-.7 2.5.7 0 1.5-1.4 2.2-2.5 3-3 .6-5.1 3.5-7.7 5-.7 2.5-1.8 2.5-3.6 4-2.2-.7-3.3 1-5 1a8.7 8.7 0 0 1-7.3 4.4L274 555c-2.9 1.8-2.5 6.1-6.5 4.7-1 3.3-5.4.3-6.9 3.3-2.1.7-4.3 0-5.4-1.5-4-1.5-10.5 1.8-10.9-3.6 3.6 0 4.4-4 8-3.6 3.3-1.8 7.6-2.6 9.4-5.5l-1-3.3c2.8-.3 3.2-4.3 4-6.8 1.7-3.7-.8-7.7-1.2-11.7.4 0 .8 0 1.1-.7-.7-1-1.8-1-2.5 0 .3-1.8-1.5-2.9-2.6-4-2.1 1.5-4 1.1-6.1 1.1 0 1.5 2.2-.3 1.4 1.9-2.9.7-4-2.2-6.5.3-1.4-.3-3.6-.3-4.3-2.2.3-2.9 3.6-1.8 4.7-4 2.9.8 6.5-1 9.8-1.8.7-1 1.8-2.9 3.2-3.6-3.2-4.4-1-10.2-2.9-15.3.7-2 .7-4.6-1-6.1-3 3.2-5.9-1.8-8.4 1.8-3 0-5.1-1.4-6.2-3.6 6.6-5.5 16-1.8 23.2-5.5 6.2 0 11.6-4 17.8-2.5M485.7 233l1.5.9c-2.6 1-6-3.6-8.6-1-3.8-3-6 4.1-9.4 0-2.3 3.7-5.3-.3-8.3 2.3-3.7-3.1-3.3 6-7 2.8-5.3-2.3-8.3 3.6-13.2 2.2-.8-2.2-.8-4.5-.4-7.2 0-1.4-1.8-2.2-1.5-3.6l.4.4c1.1 0 1.9-.4 2.2-2.2 0 1.3 1.2 1 2 1 .7-5.5 6.3-2.4 7.8-7.3.8-1.4 0-2.7-1.1-3.2-1.1-1.3.4-2.7.7-4 0-4.5 3.4-1.8 4.9-.5 3.4-6.3 8.2.5 12.7 0 1.1-2.7 4.5-3.1 5.7-5-2.6-3.5 3-5.8 2.6-9.4l.3.5c2-1.4 3.4-2.3 4.6-5 .7-3.6-.4-7.2-2-10.4-.7-7.2 5-10.3 2-17 2.6-2.8-2-3.7.3-6-4-1.7-1.5-8.5-5.6-9-1.5 1.4-5.2-1.8-5.2 3.2a23.2 23.2 0 0 0-11.3-2.7c-1.5 4-4.8 1.4-7.5 2.7 0 .4 0 1.3.4 1.8-1.1.4-3.7-2.3-4.1.9-3 1.4-6 1.4-9 1.8-2.7-.4 0-3.2-.4-4.5h-.7c-2.3-1.3-6 0-7.5 2.2-2 0-4.9 3.2-6.4 0l1.5-2.2c-1.9-1.3-3.7-.5-4.9-2.2-.7.9 0 3.5-.7 4.4-.4 0-.8.5-1.2 0 1.2-3.1-1-2.7-2.6-3.1-.3-1.3 2.3-1.8 2-3.6-3.5-1.8-5 1.8-5.4 5 1.6-.5 2.3.4 3.4.8.8 3.2-3.7 4.6-3 8.2-2.6-1.4-2.2 3-5.2.9-1.1 1.3-.8 4-.4 5.8l2.6-1.4c1.1.5.8 1.8.8 3.2 3.4 1.8 2.6 6.8 4.9 10 3.7.8 3.7-6.8 8.2-5.5.4-1.8-1.9-.4-1.9-2.2 3.4 2.7 3-5.5 6.8-2.7 1.8-1.4 2.2-3.6 2.6-5.4 5.6 0 10.9 3.1 16-.5 6.1-.9 13.2-1.3 18.5-3.2 1.5 1.4 3.3 2.3 4.5 1 5.2 1.8 3 8.5 4.8 12.6-.3 3.6-.7 7.2-.7 10.4.7.8 1.5 1.7 1.1 3 .7 1.4-.7 2.3-1.5 2.3-.7 1.4 0 2.3.8 3.6-3-.4-4.5 4.1-7.2 3.6-1.5-1.3-4 1.4-4.5-1.3a28 28 0 0 1-24 .5c-.3 1.3 2 .8 2 2.7-2.3 0-4.2 1.8-6 .8v4.1c-2.7 1.4.7 4-.8 5.9-2.3.4-4.5 3.1-6.4 6.3-.4 1.8 1.1 5.8-1.1 6.7.4 0 1.9 1 1.1 2.3 1.5 2.3 1.9 6.7 1.1 9.9-.7 4-4.5 1.3-4.8 5-1.9 1.3-1.2 5.4-1.9 7.6 1.5.4 2.6 2.7 4.5 1.8 2.2-5.4 7.5-1.8 9.7-6.3l1.2 2.3c1.4-3.6 6-1 7.8-4.5 5 4.5 6-6 11.3-1 .4-1.7-1.2-.8-1.5-2.2 2.2-1.8 5.2.5 8.2-.9 3.4 3.6 5.2-1.3 8.3-3.6 2.2-1.8 3.7 3.1 5.2-.4 3.8 1.8 7.1-2.3 11.6-1v-1.7l-3.7-.5z"/><path fill="#B4A487" d="M461 234.1h-.7c.3.1.5 0 .8 0m-1.3.2l.5-.1a2.6 2.6 0 0 1-.9-.4l.4.5zM461 234.1c1 0 2 0 2.6-1.2 1 0 1.8 0 3 .9 1-4.5 4.4.5 6.7-1.8l-7.1-.5c-2.3-.7-3.5 2-5.1 2.6m-19.3 4.7c5.3-2.7 11.7-2.7 16.5-6-6 0-11.2 6.4-16.8 2.8.3-.9 0-2.2.7-3.1-2.2 1.3-.7 5-.4 6.3m68.3 33.8c-1.9 3.6-5.6 3.6-8.6 5l-1.1-2c-4.2 1-7.5 6-11.7 6-.7 1.8-1.1 3.5-.4 5.4 2.7 3.1 2 8 3.8 11.7 2.6 4-2.2 9 2.6 11.7.8 3.1 2 6.3 2.7 9.5 4.5-2.7 10-2.7 13.4-8.1.8 2.6-2.2 5.4-4 7.2-2-1-3.8 1.8-4.2 3.6 0 3.1 1.9 5 1.9 7.6-1.9.5-3 2.7-3 5 1.9 2.2 4 2.7 5.6 5.8-1.5 1.8.4 5-1.9 5.9 2.6 1.3 1.1 4.5 1.1 6.8-1.5 2.6-3.3 4.9-3 8.5l1.2 1.4c-3.4 5.4-5.3 12.1-7.9 18a37.8 37.8 0 0 1-4.1 8.1c-2.3 5.4-7.2 7.2-9.4 12.2-1.9-.5-2.6 3.1-4.5 1.8 2.3-8.2 9.7-13 11.3-22.1 3-5.9 5.6-13 8.6-19.4-1.5-4 2.6-8.5-1.1-11.3-2.7-7.6-1.2-17-4.5-24.3-1.5.5-1.5 1.3-2.7 2.3.4.9.8.9.8 1.8-3 .9-3.7 4.5-4.5 7.2-6.4 8-12.8 15.8-18.7 23.9-3.8-2.3-4.5 6.7-8 3.6 0-2.7 1.2-5.4 3-7.2 3.8.9 3.8-5 5.7-7.7 4.1-.9 4.1-10 8.6-7.2.8-.5 1.1-.9 1.9-1.8-.4-1-1.5-1-2.3-1 0-.4 0-.4-.3-.4 3.3-.4 3-5.4 5.2-6.7 0-3.6.8-8.1 2.6-10.8-.7-2.7 3-2.7 1.5-5.9 3-1.3 3-5.4 4.2-8.6-.8 0-1.2-.9-1.6-1.3.4-1.4 1.2-3.6-.3-5-1.5 3.2-6-.8-6.4 4-5.2 1-10.1 7.3-14.6 6a25 25 0 0 0-9.8 6.7c-.7.5 0 1.4 0 1.8-.7 3.6-.3 6.3-3 8.6-3-1-2.6 3.1-4.8 4.5-1.5-.5-1.5-3.2-1.9-5 2.6-5 1.9-11.7 3-16.2-1.1-.4-3-2.2-4.5-.9-.7-2.7 2.3-1.3 3.4-2.7 2.2-3.2 1.5-8.1 5.6-9 2.6.4 2.6 4.5 4.9 5.8 6.4-5 14.6-1.8 20.6-6.7 2.2.4 4.5-.5 6-1.4-.4-2.7-4.1-5-1.5-7.2-.4-1.3.3-4.5-1.9-5-2.2 1.4-3.4-3.5-5.2.5-2 0-3-.9-4.5.5-.4.9 0 2.2-.8 2.7-2.6-2.3-5.6.9-7.8 0-1.5 0-3 .9-5 .4.4-3.1-1-5.4-2.6-7.2l2.7-1.8c10.5-.5 20.2-4 30.3-4.5 5.3-2.7 11.7-3.1 16.9-5 1.5-.4 2.2.5 3 1.9m-10.3 138c-.7 2.3 1.9 1.8 2.6 3.6.4 1.8 2 3.6 2 5.9-3-.5-3.5 5-7.2 3.1-.8 1-1.9 2.3-3 1.4-.4-.5 0-.9-.4-1.4.8-.8 2.3-.4 1.9-2.2-.8-1.8-1.5.9-2.3.4.8 2.3-2.6 1.4-1.4 3.6-1.2 2.3-4.5 2.3-6 4.5h-1.2c0-.4 0-.9-.3-.9-.8 1.4-3.8 1.4-2.7 4.1.4-.9.8-2.7 2.3-1.4-3.4 3.2.7 9 .7 14 4.2 2.7 9-.4 13.9 1.3 4.9-.4 4.5-6.3 7.9-9.4v-2.3c.7 1.4 1 2.8.7 3.7-1.1.4-1.5.9-1.9 1.7 0 1 1.2.5 1.9.5 1.1-1.3 1.5-2.7 3.4-2.2l.3.9h-1c-.8 1.7 1.5 3.6 1.8 5.4.4 0 .8-.5 1.1.4-3.3-1.3-.3 5.4-4.1 4 .4-.4 2.7-1.3 1.9-3-3-4.6-4.5 1.7-7.5-1-3-.4-4.5 5-7.5 1.3-.4 0-1.1-.4-1.1 0 2.6-.8 4.5 4.6 6.7.5 1.5 2.7 3.4 0 4.9-.5.7-2.2 1.8-.8 3-.8.7.4.4 1.3.4 2.2-3.4 1.8-8 2.3-10.5 5.9-3.4-1.8-7.9-5-11.3-2.7-.3 2.7-1.1 8.5 1.9 10.3 0 1 0 1.8.7 2.3 3.4 0 7.5-3.6 10.2 0 2.2 0 2.6-3.2 4.8-1.8 0 3.6-3.7 2.3-4.5 4-3.3 1-6-2.7-8.6 1 .8-2.3-1.5-1.8-2.2-2.3-1.5-.4-1.5 1.3-1.9 2.7l.8.9c-.8.4-2.7-.5-3 1.3.7 4.6.7 6-.8 9.5 0 5 3.8 6.8 5.6 10.8 8.3 4 14.3-4 21.8-5.4.7-2.7 2.2-.4 3.7-.9-.4-3.6 4.1-2.7 6.4-3.6-1.5 2.7-2.6 5.9-6 6.8-1.9 3.1-5.2 1.8-6.8 5.4-3.4-.5-5.2 5-8.6 1.8-2.2 1.8-4.9 3.1-5.2 5.8-3.4 2.3-6.4 4-10.5 3.7-.4.4-.4 1.3-.4 2.2.8 1.4 1.9-.4 2.6-.9.8.5.8 1.8.8 2.7-4.1 3.2-6.8-6.3-10.2-1.8-3 3.1-6.7 5.4-10.8 6.3-2.3-.4-5.3 2.2-7.1-.9-2.3 1.4-3.4 1.8-5.3-.4-2.6-1-5.6.4-7.9-1.4.4-3.2 5.3.9 3.8-4 .8-2.3 1.9.4 3 0 1.9-2.3 6.4.8 6-4.1.4-.4 1.1 0 1.5 0 .4 0 .4.9.7.9 1.5 0 2.7-1.3 3.4-2.7l7.9-1.4c1.8-4 4.8-6.3 3.7-11.2 2.6-1.8 1.9-5.9 3.8-8.6 1.1 1.4 2.6-.5 4.1-.5.4-.8.4-1.8.4-2.2-1.1 1.8-3.4 2.2-4.5-.4h-.8c-.7-2.7.8-4.5 2-6.4-3.1 0-2.4-2.7-3.9-4.4 0-2.8 4.2.4 3-3.2-1.5-1.8-4.8-.5-5.2-3.2-1.9.5-5.2-3-6 1-3 .4-8.2 0-10.9.4-2.2-1-3.3-4-6-2.3.8-4-3.3-5.8-1.4-9.4-1.6-1.8 1.4-5.9-1.6-6.8l1.6-4.5c.3 2.3 3 2.7 4 1.4 1.2-1 2-1.8 2-3.2.7-.4-.4 1.8.7 1.8l1.9-.9c0 .9-1.2 1.8 0 2.3a29 29 0 0 1-3.4 14c5.2.8 10.5-3.2 16.1-3.7 1.9 1 5.6 1 4.5-3.1-2.3-3.7 2.2-8.1-1.5-10.8-3.4-2.3-10.1 1.3-10.9-5.5-1.5-1.3-3.3 0-4.5-2.2a2.7 2.7 0 0 1 1.5-3.2c1.2.5 2.7-.4 3.4 1 3-3.2 6.8.8 10.1-1 3.4-3.1 7.5 1.8 10.5-2.2 4.5 2.7 7.1-4.5 11.3-4.5 1.5-1.4.3-4 .7-5.9h1.5z"/><defs><path id="a" d="M356.3 390.8L352 395l-4.3-4h8.6m-144.9 96.6c-.9-.9-1.3-2.4-1.3-4.5 0-14.6 20-49.8 58-95.7 22.1 2 44.7 3 65.7 3.4l11.3 10.7c-63.2 58.2-112 87.7-128.8 87.7-2.2 0-3.9-.5-4.9-1.6m147.5-86.1l11.3-10.7c21-.4 43.6-1.5 65.7-3.4 38 45.9 58 81.1 58 95.7 0 2.1-.4 3.6-1.2 4.5-.9.8-2.4 1.3-4.6 1.3-17.9 0-67.2-30.5-129.2-87.4m-83.4-22.9a985.7 985.7 0 0 1 22-24.7A853.9 853.9 0 0 0 321 378a71.3 71.3 0 0 0 3 3 891.6 891.6 0 0 1-48.4-2.5m107.7-.5a1020.8 1020.8 0 0 0 23.4-24.2c7.8 8.5 15.1 16.8 22 24.7A892.6 892.6 0 0 1 380 381a160.2 160.2 0 0 0 3-3m-230-31.1c0-10.6 40.7-24.3 111-30.8a972.2 972.2 0 0 0 27 30.7 980.1 980.1 0 0 0-27.2 30.8c-70.1-6.6-110.8-20.2-110.8-30.7m259.9-.1c9-10 18.2-20.3 27-30.7 70.2 6.5 111 20.2 111 30.8 0 10.5-40.7 24.1-110.9 30.7-8.4-10-17.5-20.3-27.1-30.8m-137.5-31.6c15-1.2 31.2-2 48.4-2.5a225.8 225.8 0 0 0-3 3 941.8 941.8 0 0 0-23.4 24.2 938.5 938.5 0 0 1-22-24.7m107.7.5a575.9 575.9 0 0 0-3-3c17.2.4 33.4 1.3 48.3 2.5a993.8 993.8 0 0 1-22 24.7 1065.9 1065.9 0 0 0-23.3-24.2m-45.4 65.6l-10.2-10a949 949 0 0 1-23.6-24.4 947.5 947.5 0 0 1 23.6-24.5 815 815 0 0 1 10.2-10 1035.5 1035.5 0 0 1 28.5 0l10.1 10a1105.7 1105.7 0 0 1 23.7 24.5 1055.7 1055.7 0 0 1-23.7 24.4l-10 10a1039.5 1039.5 0 0 1-28.6 0m14.2-82.5a265 265 0 0 0 4.3 4h-8.6l4.3-4m-140.6-92.6c9-8.9 62 20.1 133.7 86.1A1732.8 1732.8 0 0 0 334 303c-21 .4-43.7 1.5-65.7 3.4-45.1-54.3-64.3-92.7-56.8-100.2M370.2 303L359 292.3c71.7-66 124.8-95 133.8-86 7.5 7.4-11.7 45.8-56.8 100.1-22-2-44.7-3-65.7-3.4m-18.1-17c-57.4-52.6-128.3-105.6-147.4-86.5-15 15 13.9 61.2 52.2 108-60.2 6-113.3 18.3-113.3 39.4 0 21 53 33.3 113.1 39.4-34.7 42.5-56 78.5-56 96.7 0 4.7 1.3 8.5 4 11.2 19.1 19.2 90-33.9 147.3-86.4 59.1 54.5 112.6 90.5 136.1 90.5 4.8 0 8.6-1.4 11.3-4.1 2.7-2.7 4-6.5 4-11.2 0-18.2-21.3-54.2-56-96.7 60-6 113-18.4 113-39.4 0-21.1-53-33.5-113.2-39.5 38.3-46.7 67.1-93 52.2-107.9-2.8-2.7-6.6-4-11.2-4-28 0-87 45.4-136.1 90.4"/></defs><clipPath id="b"><use xlink:href="#a" overflow="visible"/></clipPath><radialGradient id="c" cx="166.3" cy="692.2" r="31.2" gradientTransform="matrix(5.8381 0 0 -5.8379 -617.6 4389)" gradientUnits="userSpaceOnUse"><stop offset="0" stop-color="#e4dfbe"/><stop offset="0" stop-color="#e9e4ca"/><stop offset=".1" stop-color="#f3f1e2"/><stop offset=".2" stop-color="#faf9f3"/><stop offset=".3" stop-color="#fefefd"/><stop offset=".3" stop-color="#fff"/><stop offset=".7" stop-color="#fff"/><stop offset=".7" stop-color="#fefefd"/><stop offset=".8" stop-color="#faf9f3"/><stop offset=".9" stop-color="#f3f1e2"/><stop offset="1" stop-color="#e9e4ca"/><stop offset="1" stop-color="#e4dfbe"/></radialGradient><path clip-path="url(#b)" fill="url(#c)" d="M143.6 180.4h416.8v333H143.6z"/><path fill="#E1D9C7" d="M78.1 485.8l17.2-2.3-11 13.7-6.2-11.4zm3.7 36c-1.7-2.8-.2-4.8 4.6-10.9l23.6-29.8-1-1.7-39 4.6c-5.3.6-7.7 1-10-2l-1.4.8 6.5 11.9 1.4-.8c-1-2-2.3-5 0-6.2.9-.5 3.8-.9 8.9-1.5l7.1 13.1c-1.4 1.8-4.7 6-6.3 7-1.9 1-2.5 0-4.8-3.5l-1.4.8 10.3 18.9 1.5-.8zm36.4 36.5c-7.4-.4-13.8-2-19-8.6-9.6-12.2-6.2-25.6 3.6-33.2a23 23 0 0 1 33.3 3.9c3.7 4.7 4.3 10.7 5.3 12 1.1 1.5 2.6 1.1 4.3.6l1.1 1.4-12.2 9.6-1-1.3c3-5.4 5.8-14.6 1.1-20.6-6-7.6-15.6-3.4-24.5 3.5-3.1 2.4-7.9 6.7-9.7 11.3-2 5.1.4 9.9 1.6 11.5 3.2 4 7.9 6.8 16.2 7.3l-.1 2.6zm17.1 6.7l15.6-7.6-6 16.4-9.6-8.8zm14.9 32.9c-2.4-2-1.7-4.4 1-11.7l12.8-35.7-1.3-1.3-35.6 16.7c-4.9 2.4-7 3.4-10 1.3l-1.2 1.2 9.9 9.2 1.1-1.2c-1.6-1.6-3.8-4-2-5.8.7-.8 3.3-2 8-4.3l11 10.1c-.8 2.2-2.6 7.3-3.8 8.6-1.5 1.6-2.5.8-5.7-1.7l-1.1 1.2 15.8 14.6 1.1-1.2zm39.6-18.5c.7-1.2 1.6-2.6 5.1-.3 9.6 6.3 3 19-.3 24-8.8 13.3-16 13.6-22.2 9.5-2.7-1.8-2.5-3.1-1-5.4l18.4-27.8zm-35.5 24l17.5 11.6c14.3 8.8 26 4.1 32.8-6 5.6-8.6 7-21.6-8.5-31.9L179 566l-.8 1.4c2 1.7 4.3 3.4 2.1 6.7l-18.1 27.4c-1.4 2-3.6 3-7 .6l-1 1.4zm62-12.8l35 16-5.7 12.1-1.4-.7c2.5-9.2-1-12.7-9.3-16.4-3.3-1.5-4.5-1.8-5.7.8l-6.4 14c5.8 2.7 9.6 2.6 14-4.5l1.5.8-9.4 20.4-1.6-.8c2.8-7.8.5-11-5.5-13.8l-6.7 14.6c-1.2 2.6-.4 4 3.5 5.7 6 2.7 12.8 4 20.8-3.4l1.7.8-8.2 11.5-35.3-16.3.7-1.5c3.6 1.2 5.5 2 7.3-1.8l13.4-29.3c1.9-4-.6-5.3-3.3-6.7l.7-1.5zm92.9 77.6l-21.5-4.8.3-1.7c4 .5 6 .7 6.9-3.5l7.3-32.7h-.1l-25 35.5-1.8-.4-7.6-41.9h-.1l-6.8 30.2c-1 4.5-.2 6.3 5 7.9l-.3 1.6-15.2-3.4.4-1.7c5.2.7 6.2 0 7-3.8l7-30.8c.8-3.4-.2-4.6-4.7-6l.4-1.6 16.4 3.7 6 33.6 19.9-27.7 16.4 3.6-.4 1.7c-3.7-.6-5.8-1-7 4.7l-6.5 28.6c-1.2 5.2.2 5.7 4.4 7.3l-.4 1.6zm38.5 1.4l-23.3-1V667c3.7-.2 6.3-.4 6.5-4.5l1.3-32.2c.2-4.3-2.9-4.6-6-5l.2-1.6 23.2 1v1.7c-3.2 0-6.4-.1-6.6 4.4l-1.4 32.2c-.1 4.2 2.5 4.5 6.2 5l-.1 1.6zm16.7-16l4.8-16.7 8.1 15.5-12.9 1.2zm34.4 11c-3.2.5-4.5-1.7-8-8.5L373 622.5l-2 .2-11.5 37.6c-1.5 5-2.3 7.4-5.8 8.3l.2 1.6 13.4-1.1-.2-1.7c-2.2.1-5.4.2-5.6-2.3-.1-1.1.7-4 2.2-8.9l14.8-1.3c1.2 2 3.7 6.8 3.9 8.6.2 2.2-1 2.3-5.1 3l.1 1.7 21.5-1.9-.1-1.6zm51.4-44.5c-2.6-4-8.7-10.1-16.2-7.7-3.3 1-6.2 4-4.8 8.2 1 3.4 2.7 4.4 9 5.3l10.7 1.6c2.5.4 8.5 2.5 10.7 9.5 1.8 5.5.2 14.5-11.4 18.2-6 2-9.6.7-11.5 1.4-1.3.4-1.3 1.7-1.2 2.8l-1.9.5-5-15.6 1.8-.6c3.4 6 9.3 12 17.4 9.4 7.6-2.5 5.9-8.9 5.6-9.7-1.4-4.2-4.8-4.8-9.6-5.4l-4.9-.6c-12.5-1.7-14.2-7.2-15.2-10.1-1.2-3.9-2-13.1 10-17 5-1.6 8.7-.5 10.5-1 1.5-.6 1.5-1.6 1.4-3l1.9-.5 4.5 13.7-1.8.6zm48.3 13l-21 10-.7-1.5c3-1.8 5.3-3.2 3.5-7l-13.9-29c-1.9-4-4.7-2.7-7.6-1.5l-.7-1.6 21-10 .7 1.5c-2.8 1.5-5.6 3-3.7 7l14 29c1.7 3.9 4.2 3 7.6 1.6l.8 1.5zm11.6-7.7c3-2.6 4.3-4 1.9-7.6l-17.8-26c-5.7-1.8-6.7-1.3-7.4-.8l-1-1.4 11.6-7.9 35.1 10.4h.1l-11.3-16.7c-2.3-3.3-4.2-4.6-8.9-2l-.9-1.3 11.8-8 1 1.3c-3.6 3.2-3.1 4.7-1.3 7.3l22 32.4-1.5 1-44.7-13h-.1l15 22c2.6 4 4.5 4.2 8.9 1.9l1 1.3-12.6 8.5-.9-1.4zm66.2-49.7l-17 15.9-1.2-1.2c2.4-2.7 4.1-4.7 1.3-7.7l-22-23.5c-3-3.2-5.3-1.2-7.7.7l-1.1-1.1 17-16 1.1 1.3c-2.2 2.2-4.5 4.4-1.4 7.7l22 23.6c3 3 5 1.4 7.9-.9l1 1.2zm31-50c1.4 7.3 1.5 14-3.8 20.7-9.6 12-23.4 12-33 4.2a23 23 0 0 1-4.3-33.2c3.7-4.7 9.5-6.7 10.5-8 1.2-1.5.4-2.8-.5-4.4l1.2-1.4 12.2 9.6-1 1.3c-6-1.7-15.6-2.1-20.3 3.8-6 7.6.4 16 9.2 23 3.1 2.4 8.4 6 13.2 6.7 5.5.8 9.6-2.7 10.8-4.3 3.3-4 4.8-9.2 3.4-17.4l2.5-.5zM609 509l-11-13.4 17.4 2.1L609 509zm28.6-22c-1.5 2.8-4 2.6-11.6 1.7l-37.7-4.2-1 1.6 24.5 30.8c3.4 4.1 4.9 6 3.6 9.4l1.4.9 6.7-11.8-1.5-.8c-1.2 1.9-3 4.6-5.1 3.4-1-.6-2.8-2.9-6-6.8l7.3-13c2.3.2 7.6.8 9.2 1.6 1.9 1.1 1.4 2.2-.4 6l1.5.8 10.6-18.8-1.5-.8zM185.4 98.3a36.4 36.4 0 0 1-7.8-4.6c0-.6.4-1.8-.4-2l.1.2c1.3 3-2.4 1.7-3.9 2.8-3.6-1-6.7-.4-10 1-2.5 2-6.4 3.6-8 7-1.7 2-1.3 5.4-4.6 5.7-.4-1.2-2.1-1.6-2.1-3-1.3-.5-2.4-1.6-3.8-.8-2.5-2.4-5.4.3-8 0l-2.1 2c-3.8 0-3.7 4.1-4.8 6.4.2 1-.1 2.5.8 3.2 2 0 3.5 1.9 5 2.7 2-.4 1.9 2.6 3.6 1.8 0 1.5-.5 2.7-1 4-2.2 2-3 5-5.4 6.7-1.2 3-5.3 4.8-4.7 8 .2 1 2 1.4 3 1.7v-.5c2.3-.7 4.5-.1 7 0 2.6 0 3.4-3 5.3-4 0-1.7 1.8-3.2 2.2-5 1-.7 1.8 1 2.4 1.7 1.3 1.6 2.4 4.1 4 5.4.4 1.8-1 3.5-2.1 5 .2 1.3 0 3 .7 4.1 2.7 1.6 5-1 7.5-.7 1.9.5 3 1.6 4 3.2.9 2.5 4.6 2.8 4.5 5.2h.6c1.6 2 4.1 4.4 4.3 7.2 1 1.5 2.6.8 3.9 1.5.8-.7 2.5-.5 2.1-2 3.6-2.5 1.6-6.8 1-10.1-1.2-2.3-.6-4.8-3.2-6.5.4-.6-.5-1.4-.8-1.7-1-1.6-1.5-3.5-3.3-4.6-2-.3-1-2.3-2.7-2.6-1.3-1.3-2.5-3.2-1.7-5 1.9.8 2.2-1.8 3.6-1.5a9.9 9.9 0 0 1 4-3.2c1.5-1.2 0-3 .7-4.3-1.5-2.3 1.2-4.2 1.4-6 1.5-1 .1-3.1 1.7-3.8-.2-1 1.1-1.5 1.4-2.2-.3-1.8 1.7-2 2.5-2.7 3.5 1 1.5-3.2 3.3-4.3-.2-.2-.3 0-.3 0-.3-.8.2-.9.6-1.1.1-1.6 1.1-3.3-.5-4.3m-16.7 11c-.3.2.2 1.3-.6 1.4.8.2 0 1.8.2 2.4 0 3-.7 5.7-2.2 7.9.1.8-.7 1.7-1.5 2-1.6 1-2.9 3.8-5.2 3-.8-1.6-2-3-2.6-5-1.2-.7-2.9-2.5-1.9-4.2.7-2 1.7-3.7 3.3-5.3 1-.5 1.8-2.2 3.3-2.9 1-1.3.9-3.3 2.6-4.4.7-1.7 2.4-.2 3.4.2 1 1.6.3 3.3 1.2 4.9"/><path fill="#E1D9C7" d="M143.5 143.4c-1.3-.8-2.6-.5-3.9-.4-2.2-.9-4.3 1.2-6.8.2-1.5.3-3.1 1.3-4.8.6-2 .8-3 2.7-3.1 4.8.1 1.4 1.3 2.2 2.5 2.5 2.2-1.3 2.9 1.4 4.6 1.4 1.6-.6 2.9 1 4.1 1.5 3.5.3 3.1 5.3 6.8 4.8 2.7.1 5 2.7 7.7 1.7 2.1-1.4 1.6-3.9 2.3-6-.4-3-2.6-4-4.5-6-.7-2.3-4.3-2.4-5-5m140-87.3c-.8-1.6-2.2-2.8-4-2.7-2.2 2-5.3-.9-6.8 1.9a8 8 0 0 1-4 0c-2.8 1.5-6.9 1.4-8.7 4.5-1.8.5-3.1 2.4-5.3 2.2-.7-1-.7-2.2-.7-3.2.6-.3 1.6.2 1.8-1 2-.2 1-3.5 3-4 .5-2.2.7-4.5-.5-6.5-1.4-2-3.1.4-4.7.1-1.5.2-1.4-.9-1.9-1.9-1.8-.7-3.2.7-4.8 1-.7 1.8-3 .4-3.5 2.3-2.3.8-2.8 3.6-4.4 4.5-.7.1-1.6-.2-1.5-1-.3-.7-.8-1.2-.1-1.5-.4-.8-1-2-2.2-2.5-1-1.6-2.8-.7-4.2-.8-2.8.7-6 2.5-6.8 5.8.1 2 2.8 2.3 3.6 3.4 2.6.8 1.2 3.2.5 5-1.8.6-.5 3.8-3 2.7-.4-.1-.7-.2-.5-.3-2.1.7-3.8-2.3-5.7-1.1-1.5.6-2.9 1.5-3.1 3.1.3 1.9.4 4.3 2.5 5 2.2-.1 3.5 2.3 5.3 3 .6 2.2 2.5 2.6 4.2 3.6 0 1 2 2 .8 3.4-2 1-3 2.3-5 3-1.9 1.6-4.4 1.5-6.4 2.7-1.3 2-4.3 1-5.4 3.5-1.8 1-2.7 3.4-3.9 5.2.6.8-.2 2.4 1.3 2.4.8.2 1.2 2 2 1 2.9 1.3 5.6.4 8.5 2 3.2 1 5.1-1.3 6.6-3.5-.3-.6-.3-1.3.2-1.8-1.2-1.5 1.1-1.3.8-2.6 3.3-1 2.9-4.1 5.7-5.7 1.5-.1 1.5-2.2 2.6-3.1.6-.9 1.3-1.4 2.4-.6.4 1.8 1 3.5 0 5.3.8 4-3.6 4.8-4 8.5-1.7 2-2 4.2-3.5 6.4-2 1.1-1.8 3.3-3.5 4.6-1 3.7-5.9 3-7.4 6.1 0 1.3 0 2.8 1 3.6 2.3 3.2 5-1 7.6 0 .5-1.2 1.5-2.2 2-3.4 1.8-.3 2.4-1.9 3-3.2 3 0 3.3-4 6-4.4 2-.7 1-3.3 2.8-3.8 0-1 1.3-1.6 1.4-2.6l.6.2.2-.6c.8-1.6 1.3-3.6 2.4-5.1-.3-1.2 1.2-1.8.4-3 .4-1.4 0-3.2.2-5-.3-3-2.5-5.5-2.3-8.3 1-3 4-4 5.4-7 .7.5 1.2-.6 1.9-.8 2.3.2 3-2.2 5.4-2.5 0-1.5 1.3-.4 1.8-1.4 2.7.9 4.8-2.2 7.4-.3 1 0 .2-.6.6-1 .8.8 1.5-.5 2.5 0 3.3-1 6.7 1 9.5-1 .9-.9 2.6-1 3.3-2.3l1.5-3.2c-1.4-.9-.7-2.1-1-3.3m-47.5 17.5a5.2 5.2 0 0 1-2.4 2.3c-1.3-.7-1.2-2.7-2.3-3 .2-2-2.5-3.6-1.7-5.7h.7V67l-.8-.4c1-.7 2.3-1 3.5-.1 1.5 2 1.8 5 3 7.2m12-13.5c-2.2 2 .1 7.4-4.1 7.6a21 21 0 0 1-2.6-7.3c.8-1.1.8-2.6 1.9-3.7 1.7-1 2.2-5 5-3 1.5 2-1.3 4.1-.3 6.4"/><path fill="#E1D9C7" d="M274.6 75.7c-2.5-.5-4.8-.2-7.3-.1-3-1.7-5.7 2.3-8.7.2-2.4 2.3-6 2-9 3.4-2 2.1 1.3 3.9 1.9 5.6 4.4 1 8 3.9 12.6 4 1 .8 3 .1 3.7 1l1-.6c.4.3 1.6.3 1 1 1.7.5 3.2 1 4.8 1.9.6.7 1.4 1.3 2.3 1.2l-.2.6.2-.1.1-.3c1.2.4 2 1.8 3.6 1.8.7 0 2.7-.2 3-1.3 1.5-.4.5-2.5 1.7-3 1-5-3.9-7-6-10.9-.8-.9-2.1-3.8-4.7-4.4M258.3 80c-.4.3-.4-.3-.5-.5 1.2-.5 1.6-1.4 2.8-2-1 .5-.6 2.5-2.3 2.5m13.2.5l-.4-.3.2-.1c.3 0 .1.2.2.4m112.2-36.8a7 7 0 0 0-5.7-.2c-1.6.4-3.4 1.1-4.5-.5 0-4.3-5-3.2-7.3-5.3-1.1-1.2.7-1.8 1.1-2.7.5.2.5-.5.5-1h.5c1.5 2.8 3.4-.6 5.7.3.4-1.1 1.8-.2 2.3-1.3.7-2.7-2-4.8-3.7-7.1h-1.3c-1 0-1.9.6-2.6.9-1.5-1.4-3 .4-4.7.2-2.8 1.6-5.7 2.7-8.5 3.8-1.1 0-2.3 0-3.2-1l.7-.4-.4-.7-.3.7c-.2.3-.2 0-.4-.2-1.2-.5-1.9.4-2.5.6-2.1.7-1.9 2.8-2.6 4.4-1.8-1.6-3.4-4.4-6.1-5.3-2.7.7-6 1.3-7.3 4-2.8-.4-4.8 1.6-7.3 2.5-1.9 1.4-4 0-5.3-1.1-2.7.2-5.2 1.5-7.5 2.9-.3 1 .2 1.6.4 2.3 3.4 3.4 7 6.1 11.4 7 1.3 1 .4 2.4.4 3.7-1.1.7-1.4 3.2-3.4 2.8-3 1.3.9 4.6-2.1 6.4-2.5 2-2.6 5.9-6 6.8.5 2.7-2.7 4.7-3.9 6.6-3.6-1.7-5.3 1.8-7.8 3.3 0 1 0 1.8.5 2.8.7.4 1.6 1.4 2.7 1 .7 1.3 1.8 2.9 1.8 4.5 0 2.3 2.5 1.8 3.9 2.5 2 .5 2.3-1.8 3.6-2.5 2.5 1 2.3-2.5 4.2-2.7 1.8-3.4 1.2-9.1 5-11.4 2.3 2.8.7 6.6 2.7 9.4.2.2 1.4 1.1 1 1.4.8.4 2.2-.7 3.1-.5.7-.2 1-1.1.7-1.8 1-1.6.7-3.4 1-5.2.4-.5.9-1.6 1.8-1 2.5.3 2.3-3.1 4.8-2.4 1-1 3.4-.9 2.5-3.2.3-1.8-2.7-1.6-2-3.9.2-1 .7-2 2-2.2-.4-1.9 2.6-1 2.1-3 1.6.2 3.7-.5 5 1 .7 1.3 1.6 3.4.5 4.7-.8 4.8-1.2 9.8-4 13.7-.2 1.6-1.8 2.5-1.6 4 0 3.5 3.4.8 5 1.5v-1c3-4.3 8.3-7.9 7.6-14.3 1.4-2 1.7-5.2 1.4-7.5.3-1.3-.2-2.5-.2-4 .2-.5.2-2 1.2-1.5l-.2-1.1c.9-.2.2-.7.6-1.4.5 0 1.2-.4 1.4 0 .2 1.2 1.4.5 1.8.5-.4.5-.4 1.2.3 1.4-.5 2.3-.5 5.2-1.2 7.5 2 1.4 0 4.4 1.6 6-.8 4.3-1 8.1-.1 12.3.2 1.8-2.1 2-1.9 3.8 1.6 1.4 1.4 3.5 3.4 4.6.7-.2 1.4.3 1.8.7.7-.2 1.6 0 1.9-.9 1.6.7 2-1.3 3.6-1.1-.6-3.2 2.3-5.7 1.7-8.9-1-1.1 0-2.5.2-3.6-1.8-3 .7-5.7-.2-9-1-1.8-.4-3.8-.4-5.7-.9-2.3-1-5-.8-7.5 0-.9 1-1.4 2-1.1.5.2.5.9.7 1.1 1.1-1.6 3 1 4.8 1 1.8-.7 4.3-.4 5-3 0-2.3.2-4.3-.9-6.4m-52.1 20c-1.2.3-1-1.3-1.4-2.2.3-1.9 2.5-1.6 3.7-2.5 1 2.2-1 3.4-2.3 4.7m30-17.1c-5 2.2-8-8.5-12.6-2.8 0 1.8.5 3.6.5 5.4-.7 1.9-2.3.5-3.7 1-1.4 0-2.3 1.5-3.9 1.3-1.8 1.6-3.6-2.1-5.4.2l-.5-.2-.7 1.6c-1.1 1.3-3 1.7-4.6 2-.6-.3-.6-1-1.1-1.4.7-.2.5-1.6 1.4-1.4-.5-.4 0-1 0-1.6.4-.4.2-.4.2-.8h.2l.3-.3c-.5-.5.7-.7.7-1.1 1.1.4 1.6-1 2.3-1.4.6-.9.9-2.2 1.6-3.2 0-1.6-1.1-2.7-.5-4.3 1-1.6 2.3-.7 4-1.6 2.4-.4 4.2 2.5 6.8.5.7-.9 2.3-3 2.7-.2 1.6.7 2.5 2.7 4.3 2.8 1 .9 1.4-1 2 0 1.9.9 2-1.2 3.5-1.4 0-.5.2-.7 0-.9 1-.2 1.8-.2 2.5.2-.2 1.4 1.2 3.3.2 4.6 0 0-.4 0-.4.2.9.7.2 1.8.2 2.8m4.3-.2c-.4-.2 0-.7 0-.7.5-.2.5 0 .7 0 0 .7-.2.5-.7.7m62.8 18c1.5-.5 2.4 2 4 .6 1 1 1.5-1 2.3-1.7.6.3 1.7 0 1.9-.9.7-.7 2-1.9 3-1.4 1-1 2.7-2 2.9-4-1-3 1.4-4.9 1.4-7.9l-.3-.8c-3.5-4-7.2 2.6-11.3 1.2-1.7 2.2-3.9 4.2-5.2 6.7-2.1.3-1.9 3.1-3.2 4.3-.8 2.4 3.2 2.4 4.5 4"/><path fill="#E1D9C7" d="M481.4 116a5.9 5.9 0 0 0 1-5.6c-.6-1.5-2.2-.2-3-1.3-2-1.6-.5-4.2-.3-6.4 1.6-1.3.2-3.4.3-5 1-1.9 1.7-4 1.1-6-.5-2.3-2.2-3-4-3.6a4 4 0 0 0-3 1.4c1 3.7-1.4 7.6-1.2 10.5-1.3 2.4 1 4.6-1 7-1 1.3-2-.9-3.3-.2l-5.7-2.3c-4-3.8-10-1-12.1-6.4-1-2.9 1.4-5.4 3.3-7 0-1.7 1.6.3 1.8-1.2 2.6-1.3 4.7-3.4 7.6-4.1.8-.7.5-1.7.4-2.6-.6-2.7-3.4-3.7-5.4-5.4 0-1.5-2-1.8-1.7-3.5.5-2.2 3-.6 4.1-.8 1 1.1 2 1.8 3.7 1.8 1-.3 3 .6 3-1.4 0-1.8-1.5-3-1.9-4.3-2-1.7-5.7 0-6.5-3 .3-1 2.6-2.3 1.6-4 .5-2.7 3.5-1.2 5.3-2.4l.2.6c.2.1.4-.3.6-.2.2.1.7 0 .8.6 1.5.5 2.8 1 3.8 2 1.2 4-4 1.4-4.8 4-.5 1.1.3 1.7.7 2.4 1.6.4 2.7 2.4 4.7 1.8.4 1.4 1.8-.2 2.3.5l.4 1.2c.6 1 1.6.5 2.4.3 1.3-.6 3.2-.3 4.8-.6 1.1-.3 1-1.3 1.4-2-.7-1.4-.5-4.6-2.6-4.8-.2-1.3-2-2.4-1.4-3.6v-.2l-.2-.1v.2c-1.3-3.3-5.5-4.1-7.9-6-1.2.5-2.6-.4-4-.3-1-1.4-.4-2.6 0-4.2.8-2.4-2.7-2.2-2.1-4.7-.6-.5-1-.5-1.2-1.3-2.5-.6-4.6-.8-6.9-2-1 .3-2.5.6-3.1 1.6-1 1.8 1.3 2.6 1 4.2.7 1.3 1.5 3 1 4.5-2 1.5-5.1-.6-7.4-1.6-1.7-.3-2.2 1.5-3.3 2.2l.6 2.6c1.3 0 1 1.4 1.2 1.8-.5 3-2.9 3.7-4.8 5.3-1.7 1.5-5.7 1.5-4.8 4.4.7.8 2 .8 2.6.4 1.6 1 4.4-1.3 4.6 1.5.2 1.9-1.6 2.5-2.8 3.5-.9.3-1.7 0-2.8 0-1 .8-2.1-.7-3.3-.4-1.7.7-3.9-.8-5.8-.3-2.4-.1-5-.6-7.1-2-1.3.2-3-.8-4.3-.4-2 3.1 2.2 4.5 2.9 7 2.7.5 3.8 3.2 6.5 3.2 1-1.8 3 0 3.5-1.7 1.5.6 3-.4 4.6-.2.6.3.9.9.6 1.5-2.2 1-4.1 4.2-7.2 3.8-4 2.2-8.6 1.4-12.6.4-1.3-1.6-3.2.3-4.7.4-2.3 0-3.7-2.4-5.5-3.5-1.4-.6-3.1-.1-4-1-.6.8-2 .1-2.8.8-1.7.8-.4 3-1.5 3.8l.2.1c.2-.4.5 0 .6.3-1 2.8 3 2.8 3.6 4.8 3-1.1 4.8 1.1 7.4 2 2 .7 4 0 6 1.7 1 0 2-1 2.8-.8 1.6 3.3 4.2-.3 6.3 1.1 1.5.4 2.7 0 4 .5 1-1.6 3-.1 3.4-2 1.4.2 1.5-1.7 2.8-2 2.7.8 2.9-2.4 4.2-3.8 1.4-.2 1.8-1.2 2.5-2.1 2.4-.5 2.8-3.6 4.4-5.4 1.5 0 1.7-1.7 3.4-2.2 1.2-.4 1.5 1.2 2.3 1 .5 2.3-2 3.4-2.6 5.4a73 73 0 0 0-8.5 15.2c-.3 2.3 2.2 3.4 3.1 4.8 3 1.9 4.6 4.8 8.3 5.5 2 .1 3.6 1.6 5.5 2.4 2.5 2.1 6.1 3 8.7 5.1 2.4 0 4.4 1.2 6.5 1.4 1.3 1.1 2.3 2.3 2.7 3.7.4.7 1.8 1 2.5.6.6-2.7 4-3.7 3.5-7m-27.1-41.1c-1.5 0-3.3.7-4.7-.6-.6-2-2.1-3.7-1.4-5.9.4-.5 2-.6 2-1.6-.4-1 1.3-1.4 1.2-2.2.4-1 0-2.3 1-3 .3 0 .7.3 1-.1 1.1.5.2 1.5 0 2.2-1 2.4-4.2 4.1-2.6 7.1 1.7.3 2.3 1.8 3.7 1.9.2.6.6 1.5-.2 2.2m51.6 45.3v.3c.7-.3 1.8.5 2.5.2 2.4-.3 5-1.3 6-3.7 1.9-2.6 3.1-5.6 5.7-7 1.7-1.7 3.6-5 6.4-4 4.2.6 1 6.7 5 7.7 1-.5 2 1.4 3.4.1 1.1 1.4 3 1.7 4.8 1.2 2.3 0 4.2-2 5.8-3.4.4-.5 1.2 0 1.3.7 2 .4 3 2.8 4.1 4.2.8.2.8-.8 1-1l1.4.8h-.3c-.5.5-1.5.2-1.4 1.2 1.4.1.5 2 2.1 2-.3 1.4.8 2.1.9 3.4-1.3 1.4-3.2.7-4.7.6-.7-2.2-3.6-2.5-5-4.4-1.7-.8-3.9-3.8-5.1-1.2.2 1.8.6 3.7 2.3 4.5.4 2.2 2.8 1.7 4.3 2.8 1.1-.2 1.8 1.4 2.8 1.4.5.5 2.4 0 1.8 1.4 1.2-.3 1.8 1.1 2.9 1 1.5 0 2-1.6 2.7-2.6.6-.3 1.6 0 2.2-.7.2.5 1.3.7 1 1.7l.3-.4c1.4.3 2.5.8 3.6 1v.2c1.5 1.1 2.5 2.7 4.4 3 .7 1.2 2.1 1 3 2.2 1.8 1 3-1.2 3.8-2.4.6-1.6-1.2-2-1.5-3.3-.8-.8 0-2.3 1-2.4.4-1 0-2.3-.5-3-2-.4-3.6-1.3-5-2.7-.1-4.2-5-1.9-6.4-4.6-.9-3.7 1.2-9.2-3.2-11.5-5.1-1.9-2.4 5.2-5 6.8-2-.2-4-1.6-5.9-3.4 0-1-.2-2-1-2.8-1-.7-1.8-1.5-3-1.1-1 1.9-3 3.2-5 4.4-1.6 0-3.3 1.5-5 .3.3-1.6-.9-3.7.7-5 2.3-1.4 5.3-2 7.6-.4 1.4.2 2.7-1.1 4-1.8.8-1.1-.5-2.4 0-3.7-.3-4.5-4.9-5.4-7.5-8-4.5.5-7.4-5.1-12-5.3-7.1 1.6 1 6.6.3 10.3.5 2.4 3.2 3.7 5 4.7 0 .4.3 1 0 1 .3.3-.2 1.1-.5 1.4-1.3.4-2.5 2-4 1.3-1.5-2.7-2.7-5.5-5.1-7.5-2.5-1-3.2 2.3-4.5 3.3-2.5 1.7-3 5.9-6 6.9-2.3 5-9.5 8-11.3 13.5 1 1.6 3 2 4.8 1.8m57.5 1l-.4 1.9c-1.3.3-2.6 1.3-4 .5-1.2-.8.4-1.4 0-2.4 1.3-.7 3.4-.8 4.4 0"/><path fill="#E1D9C7" d="M558.4 168.6c1.4-1.8 1.9-4 2-5.7.6-1.3.7-2.5 2.2-3 2.4-1.1 1.5-3.5 3.1-5.2-.4-2-2.4-1.7-3.9-2.5-1.6 1-3.4 1.5-4.1 3.3-3.2.7-4.4 4.3-7.3 5.7-.3.3-1.3 0-1.6.3-1.2.9-2.5 0-3.6-.5a12 12 0 0 0-7.2-6c-.4-1-1-1.6-1.9-2.1-1.6-.3-2.4-1.4-4-2-2.6-1.2-1.2-4-1.1-6.1 1.9-.7 2.7-3.1 5-3 .3.1.6.1.4.3 2.3.6 5 1.6 6.6-.6.3-1.7-.4-3.3-.9-4.7.8-1.5-1.2-2.4 0-3.6.4-1.7 1.5-.3 2.4-1.5 1 1.2 2 3 3.9 2.6 2.4 1 2.4 4 4.1 5.8.8-.2.8.8 1.5 1.1.5.2 1.2 1.1 1.6.3 1.1.5 1.8.2 2.6-.7 1-4-2.6-7.5-5.9-8.7-3.7-2.3-7.3-4.2-11-6.2-4.6-2.9-9.2-5-13.3-8.3-2.4-.2-4.1-4-6.7-2.3-2.5 2.3 1 3.7.7 6 1 3.1 4.2 1.8 6.3 3.2 1.8.4 3 1.6 4.3 2.5.3 0 .6-.7 1-.2v.3c-3.3 1.2-7.6.2-11.4.7l-2.2-.5c-4.9.4-9.9-1-14.7-1.8-2 0-4-1.9-5.9-.3a6 6 0 0 0-1 4.1c1.3 1 .4 2.9 2 3.5.6 0 1 0 1.6-.3 1 0 2-.9 2.6.2.4 2.6 3 1 4.5 1.2l.5.5c1.3 0 2.4-.2 3.7-.5 1.5-.2 2.2 2.3 4.1 1 1.6-2.3 4 1 6.1-.1 1.2.4 2.8-.6 3.9.2l3.7-.2a7 7 0 0 1 4.3-.6c.6 1.1-.6 1.6-1 2.4-3.2 1-6.1 3.4-8.8 5.2-1.3 1-1 3.1-2 4.4-1.4 5.7 3.3 9.4 6.7 13.4 1.3 1.6 3.5 2.4 3.8 4.6 2.3 1.3 3.3 4.2 5.5 5.6 2 2.2 4.4 4.6 6.3 7.3 1.4 1.4 3.4 0 5.3 0 1.6 0 2.4-2.1 4-2.2 1.5-2 4.6-3.4 3.2-6.3m-20-39.8c0-.7.1-1.1-.3-1.6.3 0 .8.5 1 1-.4.3.3.6.4.7-.3.7-.6 0-1.1 0"/><path fill="#FFF" d="M294.7 573.4l-27.2-8.5.5-1.6c8.4 2.7 9.4.2 10.7-3.8l8-25.1c.5-1.6 1.4-4.5-1.4-5.4-1-.3-3.8-.3-6.5-.3l.6-1.7 20.5-1.3 1.2.4-11.8 37.2c-1.4 4.4-1.3 6.3 5.9 8.6l-.5 1.5zm31.7-30.5c.5-5.4.9-9.7 5.5-9.3 4.7.5 5.4 4.8 4.1 18.2 0 1.6-.9 5-1.2 6.1-.1.6-2.2.7-3.4.6-5.2-.5-6-5.8-5-15.6m-14.6 35.2c22.9 0 34.9-12 36-24.4 1.6-16.3-8.5-21.2-15.3-21.8a15.7 15.7 0 0 0-18 13.7c-1.1 11.7 7.1 15 12.3 15.5 1.4.2 2.5.2 3.7.1 1.1 0 2.2-.3 3.4-.7-5 12.5-14.2 15.2-22 15.8l-.1 1.8zm79-1.4l-31.3 3.6-.2-1.6c10.9-13.2 19-23.2 18-31.2-.1-1.9-2.1-8.5-10-7.6a10 10 0 0 0-8.4 7.1l-2.1.3c1-4 4.3-14.6 15-15.8 4.7-.6 14.2.8 15.4 11 .2 2 .8 7.2-7 15.6l-11 11.9 11.5-1.3c8-1 8.5-1.7 10.1-6.6l1.8-.1-1.7 14.7zm15.1-44.5c-.8-2.7.6-6 4.2-7.3 5.3-1.8 8 2.5 9 5.8 1.4 3.9.6 5.9-.4 8.4-.8 0-10.7-.9-12.8-7m4.7-9.4c-11.5 3.9-14.5 11-12.5 17 1.9 5.4 7.8 7.8 14.1 8.7-4.3 3-9.4 7.6-7 14.6 2.3 7.2 10.9 8.4 18.7 5.8 10.3-3.5 15.2-10.8 12.4-18.9-2-6-8.1-9-15.5-10.2 3.6-2.5 8.7-6.8 6.8-12.3-1.2-3.7-6-8.4-17-4.7m3.2 37.2c-1.6-4.7-.8-7.2.4-10.9 6 1.3 11.5 2.5 13.3 7.8.6 1.7 2.6 7.6-3.8 9.8-4.7 1.5-8.3-2-9.9-6.7"/><path fill="#155F8E" d="M307.8 443.4l21.6-22.8 53.8 50.6c6.1 5.7 6.3 15.5.3 21.8l-10.8 11.4-11-10.4-53.9-50.6zM324.6 221c-6.9-6.8-7.6-17.3-1.5-23.5l11-11.2 12.6 12.4 48.6 48.5-22 22.3-48.7-48.5zm30.5 66.8l-23.3-22-21.6 22.9 23.3 22zm-2 77l-23.4-22-21.6 22.9 23.4 22zm39.2-41.6l-23.3-22-21.6 22.8 23.3 22zM391 401l-23.3-22-21.6 22.8 23.4 22z"/><path fill="#1A77A8" d="M402.1 278c6.7-7 7-17.6.7-23.6l-11.4-10.8-12.1 12.8-76 80.5c-6.7 7-7 17.6-.7 23.6l11.5 10.7 12-12.8 76-80.4zm-.5-74.4c6.4-6.8 6.6-17.2.3-23.2l-11.4-10.8-11.7 12.5-73.7 78c-6.5 6.8-6.6 17.2-.3 23.1l11.5 10.8 11.6-12.4 73.7-78zm-.8 152.1c6.7-7 7-17.6.7-23.6l-11.4-10.7-12.1 12.8-76 80.4c-6.6 7-7 17.7-.7 23.6l11.5 10.8 12-12.8 76-80.5zm-1 76c6.5-7 6.7-17.3.4-23.3-2.9-2.6-11.4-10.8-11.4-10.8L377 410l-73.6 78c-6.4 6.9-6.6 17.3-.3 23.2l11.5 10.8 11.6-12.4 73.7-78z"/></g></switch></svg>