<svg xmlns="http://www.w3.org/2000/svg" xmlns:xlink="http://www.w3.org/1999/xlink" width="700" height="700" viewBox="0 0 700 700"><defs><path id="a" d="M356.315 390.849c-1.431 1.374-2.833 2.75-4.266 4.09-1.448-1.34-2.878-2.716-4.311-4.09 1.433.034 2.863.034 4.311.034 1.402 0 2.836 0 4.266-.034m-144.917 96.646c-.868-.854-1.308-2.376-1.308-4.535 0-14.537 20.061-49.789 58.067-95.643 22.09 1.894 44.667 2.958 65.674 3.415 3.763 3.622 7.509 7.161 11.228 10.694-63.174 58.195-111.968 87.652-128.724 87.652-2.225.001-3.901-.514-4.937-1.583m147.538-86.127c3.841-3.598 7.584-7.16 11.275-10.636 20.959-.457 43.61-1.521 65.67-3.415 38.023 45.854 58.087 81.105 58.087 95.643 0 2.159-.444 3.681-1.281 4.535-.868.854-2.403 1.31-4.554 1.31-17.9-.001-67.23-30.469-129.197-87.437m-83.39-22.821a985.651 985.651 0 0 1 22-24.771 853.902 853.902 0 0 0 23.369 24.19 71.286 71.286 0 0 0 3.063 3.014 891.649 891.649 0 0 1-48.432-2.433m107.609-.545a1020.775 1020.775 0 0 0 23.401-24.226c7.831 8.535 15.155 16.79 21.953 24.771a892.638 892.638 0 0 1-48.384 2.434 160.168 160.168 0 0 0 3.03-2.979M153.13 346.861c0-10.571 40.703-24.221 110.961-30.741 8.775 10.385 17.852 20.745 26.964 30.648a980.142 980.142 0 0 0-27.116 30.802c-70.165-6.522-110.809-20.166-110.809-30.709m259.871-.062c9.078-9.934 18.234-20.294 26.961-30.679 70.258 6.521 110.95 20.17 110.95 30.741 0 10.542-40.627 24.187-110.798 30.709-8.393-9.991-17.468-20.293-27.113-30.771m-137.487-31.623c14.976-1.186 31.141-2.04 48.417-2.469a225.804 225.804 0 0 0-3.016 3.019 941.772 941.772 0 0 0-23.43 24.192c-7.863-8.564-15.173-16.792-21.971-24.742m107.641.549a575.853 575.853 0 0 0-3.029-3.019c17.275.43 33.436 1.284 48.412 2.469a993.77 993.77 0 0 1-21.951 24.742 1065.884 1065.884 0 0 0-23.432-24.192m-45.363 65.561c-3.367-3.283-6.778-6.605-10.176-10.018-8.333-8.317-16.226-16.455-23.641-24.407a947.461 947.461 0 0 1 23.641-24.435c3.398-3.41 6.81-6.73 10.176-9.992 4.677-.064 9.414-.123 14.257-.123 4.828 0 9.567.059 14.26.123 3.336 3.261 6.734 6.582 10.133 9.992a1105.695 1105.695 0 0 1 23.686 24.435 1055.661 1055.661 0 0 1-23.686 24.407c-3.398 3.412-6.797 6.734-10.133 10.018-4.692.064-9.432.127-14.26.127-4.843 0-9.579-.063-14.257-.127m14.258-82.532a265.009 265.009 0 0 0 4.266 4.083h-8.577c1.432-1.339 2.863-2.711 4.311-4.083m-140.652-92.527c8.928-8.925 62.06 20.111 133.72 86.099a1732.821 1732.821 0 0 0-11.256 10.665c-21.008.424-43.614 1.491-65.705 3.413-45.09-54.296-64.238-92.711-56.759-100.177m158.813 96.763c-3.691-3.473-7.435-7.07-11.275-10.665 71.675-65.987 124.795-95.024 133.751-86.099 7.465 7.466-11.697 45.882-56.746 100.176-22.087-1.921-44.741-2.988-65.73-3.412m-18.161-17.063c-57.309-52.524-128.235-105.565-147.382-86.403-14.883 14.897 13.936 61.148 52.219 107.912-60.143 6.004-113.248 18.343-113.248 39.425 0 21.051 52.984 33.365 113.096 39.394-34.75 42.591-56.122 78.54-56.122 96.704 0 4.751 1.369 8.559 4.055 11.238 19.147 19.16 89.998-33.849 147.322-86.376 59.123 54.51 112.591 90.494 136.144 90.494 4.767 0 8.546-1.404 11.259-4.118 2.695-2.708 4.065-6.487 4.065-11.238 0-18.164-21.374-54.113-56.137-96.704 60.099-6.029 113.096-18.343 113.096-39.394 0-21.083-53.06-33.421-113.247-39.425 38.281-46.763 67.137-93.015 52.223-107.912-2.744-2.743-6.552-3.99-11.197-3.99-27.956 0-87.049 45.394-136.146 90.393"/><clipPath id="b"><use xlink:href="#a" overflow="visible" width="100%" height="100%"/></clipPath><radialGradient id="c" cx="166.296" cy="692.151" r="31.201" gradientTransform="matrix(5.8381 0 0 -5.8379 -617.573 4389.024)" gradientUnits="userSpaceOnUse"><stop offset="0" stop-color="#e4dfbe"/><stop offset=".031" stop-color="#e9e4ca"/><stop offset=".107" stop-color="#f3f1e2"/><stop offset=".185" stop-color="#faf9f3"/><stop offset=".265" stop-color="#fefefd"/><stop offset=".35" stop-color="#fff"/><stop offset=".65" stop-color="#fff"/><stop offset=".735" stop-color="#fefefd"/><stop offset=".815" stop-color="#faf9f3"/><stop offset=".893" stop-color="#f3f1e2"/><stop offset=".969" stop-color="#e9e4ca"/><stop offset="1" stop-color="#e4dfbe"/></radialGradient></defs><path d="M700 349.998c1.912 137.63-86.547 270.364-213.763 322.499-124.973 54.429-280.215 26.262-377.71-69.14C9.725 511.562-26.323 360.32 19.79 233.686 64.382 102.425 193.329 5.655 332 .455c134.8-8.712 269.535 69.423 329.71 190.201 25.216 49.07 38.374 104.184 38.29 159.342z" fill="#044d83"/><path d="M591.903 349.086c2.313 113.377-86.447 219.335-198.352 237.26-107.626 21.356-223.747-41.74-264.729-143.433-44.569-100.59-8.308-228.282 82.556-290.351 90.184-66.657 226.13-56.87 305.793 22.085 47.374 44.735 75.12 109.255 74.732 174.439z" fill="#e1d9c7"/><path d="M264.67 152.604c3.319 3.396 17.667 11.923 13.123 25.671 11.898-2.34 54.164-6.407 27.868 6.961 1.572 5.62-33.787-1.744-27.407 20.469-7.953 12.125-5.084 32.888-4.888 38.638 11.257-1.019 20.721-2.424 37.083-6.092-4.974-14.576 7.64 1.312-2.976 11.546-12.551.8-39.453 25.563-42.196 5.41-8.666-12.908 1.574 27.049-11.382 7.556 13.21-15.983 9.67-22.631 13.302-39.806 8.936-9.599 1.986-42.475-21.039-23.218-13.248-10.324 22.84-9.66 20.322-26.109-5.148-3.446-15.428-30.832-1.81-21.026zm-51.596 104.9c29.973 16.08-39.716-6.075-21.754 23.58 9.978 25.768-12.022 12.685-10.138-7.535-4.717-13.095-47.72.252-14.617-13.833 16.432-.083 27.945-5.953 46.509-2.212zm16.316 6.153c2.771 19.515-1.873 39.751-16.317 52.219-9.444 13.824-51.503 36.776-22.63 11.038 1.542-10.798 1.472-40.085 6.535-16.105-8.15 24.492 23.25-2.334 22.74-16.457 3.153-11.349 5.505-28.914 9.68-32.34z" fill="#b4a487"/><path d="M204.36 280.72c8.805 19.679-18.163 13.852 0 0zm-13.769 20.655c-1.98 4.645-3.162-5.086 0 0zm16.557 146.847c7.074-9.038 60.245-28.686 21.096-17.784-16.784 12.662-40.485 8.51-16.239-8.126 12.937-4.59 42.146-19.998 9.613-8.36-20.332 17.702-28.91-7.86-6.798-10.242 16.65-2.91 34.647-18.098 9.291-6.288-10.485 5.348-49.166 2.42-20.922-9.038 34.105-22.1-19.812-24.645-35.539-17.062-2.208 9.264 31.694-6.557 17.381 17.795-11.86 13.08-19.892 34.134-14.518 45.335-6.076 28.69 52.226 5.903 23.819 33.11-12.293 11.953-41.714 38.585-10.3 23.95 3.88-16.328 38.222-11.027 36.67-16.71-30.769 1.829-16.104-10.994 3.69-12.696 29.27 1.39-34.605-15.193-18.672-14.588zm-12.674-74.333c20.314-3.956 15.487 10.649-4.359 14.128l2.861-6.526zm-1.844 69.278c-20.02 13.02-22.08-24.136-1.492-15.222 9.474-12.967 8.183 15.156 1.492 15.222zm-4.326-20.323c-28.263 12.01-4.47-39.158 9.43-13.707.066 8.16 3.769 15.168-9.43 13.707zm95.895 59.865c-15.795 5.788-24.646 11.257-18.541 28.425-4.43 17.042 43.45-9.756 12.695 8.85-14.216.436-9.743 15.998-1.77 23.294 12.698 4.125 36.787-13.737 13.452 6.017-15.32 4.141-29.346 21.297-45.733 8.487 17.381-1.974 27.835-26.077 15.216-35.557-7.77 6.912-25.133-2.053-1.049-4.692 6.178-14.541-.208-27.392-15.261-26.839 12.666-4.425 27.508-6.465 40.991-7.985zm201.48-249.822c-7.704-1.66-26.794 2.71-38.544 5.762-22.164-5.899 7.92-12.311 4.255-26.847 21.815 7.77 31.974-16.125 30.086-36.305 7.316-22.432-16.321-28.583-28.759-18.292-13.412 3.729-26.847-3.994-32.236.425-8.56-16.093.7 6.205-12.004 8.135.647 10.928 13.793 21.528 18.832 6.848 14.148-6.346 59.025-19.663 48.862 16.627 1.197 19.74-33.382 6.794-37.49 13.811-7.47 8.489-10.85 25.35-11.42 37.892-11.282 20.1 15.256 3.49 24.558 2.589 9.075-2.634 22.434-7.337 37.609-8.389 1.449-3.121-2.516-1.49-3.749-2.256z" fill="#b4a487"/><path d="M461.061 234.105l-.714.09zm-1.232.151c1.677.303-1.583-1.036 0 0z" fill="#b4a487"/><path d="M461.061 234.105c12.493-.686 15.627-6.246 0 0zm-19.24 4.661c41.635-7.27-3.118-8.712 0 0zm68.264 33.788c-27.051 1.935-21.55 26.25-12.719 47.315 27.159-18.939-6.492 13.174 8.883 25.978-.887 18.722-9.361 44.138-26.408 58.052 12.681-17.177 26.93-65.544 11.157-73.212-7.477 17.477-45.45 51.347-20.044 17.934 10.518-7.755 11.454-25.29 18.915-40.481-5.439-12.575-35.104 9.828-38.34 22.13-5.16 8.404-3.352-21.418-2.147-21.673 2.056-14.76 49.097.46 32.22-23.36-7.185 6.127-38.294-.224-13.971-5.862 13.738.398 30.377-9.875 42.454-6.821zm-10.27 138.074c10.216 14.393-7.573 13.732-7.257 12.615-16.847 4.072-12.105 28.062 8.938 22.18 3.366-15.435 11.95-5.46 9.064 3.67-.14-8.994-26.954 2.615-4.39-2.456 10.514 7.07-32.51-1.268-15.72 17.128 27.985-2.349 1.538.582-3.133 4.692-14.358 35.158 33.988 9.908 33.076 15.606-13.109 11.728-40.77 20.834-37.163 22.04-6.464 8.591-48.739 6.109-27.35-1.733 13.072-1.781 22.735-13.281 27.117-25.877-3.507-1.74 2.647-20.731-11.806-21.44-16.134 15.362-27.903-20.78-15.217-19.402 11.153-11.271-7.03 26.669 13.08 11.242 21.407-3.03-.612-19.19-8.234-23.83 5.165-4.809 15.896-.33 23.078-2.461 6.939-1.682 15.023-5.543 15.917-11.974z" fill="#b4a487"/><path clip-path="url(#b)" d="M143.638 180.362h416.778v332.996H143.638V180.362z" fill="url(#c)"/><path d="M78.121 485.792c19.28-7.7 16.624 5.313 5.28 9.654l-5.28-9.654zm3.639 35.914c2.168-13.007 15.91-22.616 23.056-34.061 13.975-13.873-13.704-4.796-21.322-5.205-13.685 1.666-33.815-1.755-16.953 11.453 6.541-23.937 24.662 20.413 4.38 11.454 3.73 4.43 6.051 15.81 10.839 16.359zm36.409 36.627c-44.17.475-18.46-68.647 14.474-41.637 10.445 11.624 18.458 22.652.911 25.976 20.03-54.741-69.986 5.047-15.294 13.041l-.069 1.979zm17.152 6.699c15.81-13.462 17.411-.245 8.066 7.46l-8.066-7.46zm14.884 32.871c-2.08-13.014 7.876-26.51 11.009-39.635 8.823-17.564-14.518-.114-21.848 1.887-19.01 3.026-24.27 16.75-14.72 13.414 11.236-20.315 26.186 16.492 10.074 12.277 4.946 3.015 10.778 13.049 15.485 12.057zm39.562-18.458c34.774 2.896-25.596 58.577-15.15 22.835l15.15-22.835zm-35.435 23.944c14.22 10.568 37.19 26.608 50.257 5.546 14.299-19.065-12.772-37.99-26.339-41.618 6.487 10.9-11.308 22.238-15.35 33.13-1.75 7.308-7.098-1.712-8.568 2.942zm62.048-12.828l34.853 16.029c-4.758 30.457-15.978-26.143-26.139 4.813-3 14.853 22.587-8.328 7.395 13.836-4.68 20.685-8.332-22.488-15.625 4.022-7.773 23.9 39.898-4.686 16.046 18.396l-35.312-16.273c12.304-.542 13.646-20.462 20.38-30.304 4.588-5.142-1.834-7.107-1.598-10.519zm92.803 77.66c-16.656-4.492-25.304-.999-13.016-15.846.239-6.194 11.086-36.381 1.371-20.454-7.65 8.931-13.377 22.853-22.233 28.654-2.615-13.922-4.958-28.092-7.74-41.861-.914 12.07-9.69 25.87-4.864 36.813 9.286 5.28-27.064-.924-4.931-6.038.925-12.653 11.68-29.535 2.591-38.359 15.566-.809 19.658 9.368 19.937 23.197-.144 22.008 8.039 6.969 15.227-3.646-.694-15.962 33.48-6.762 17.23-3.186-.913 12.37-13.195 30.352-3.203 39.111zm38.479 1.404c-17.027-1.758-26.544 3.828-16.534-13.065 1.007-11.047 2.03-30.74-2.798-32.792 20 .963 20.849-2.679 14.34 14.953 1.476 10.168-6.243 27.06 4.992 30.904zm16.744-16.058c.7-20.743 11.541-13.08 10.945-.952l-10.945.952zm34.352 11.096c-11.033-7.196-14.308-23.669-21.922-34.81-7.062-18.35-9.87 10.65-13.325 17.427-4.064 13.215-15.097 30.283 3.637 20.152-19.285-15.642 28.632-14.42 12.27.59 5.559-1.643 16.897.832 19.34-3.359zm51.409-44.576c-15.588-21.994-31.903 9.571-4.23 7.015 37.573 5.006-12.495 49.727-15.342 23.416-9.677-16.005 30.571 19.166 21.382-9.641-35.025 1.782-32.386-36.754-3.876-33.203-.338 3.293 6.491 11.372 2.066 12.413zm48.311 13.006c-15.885 6.443-21.649 15.839-20.728-3.773-4.303-10.221-12.651-28.068-17.873-27.636 18.12-8.525 17.146-12.144 19.667 6.47 6.093 8.277 7.205 26.81 18.934 24.939zm11.637-7.646c6.657-11.342-11.61-22.59-15.951-33.697-19.12-1.986 10.861-15.691 18.457-5.53 11.909 3.984 27.355 10.234 12.197-5.615-10.554-9.162-16.075-11.135-.553-15.206-4.36 12.237 12.494 23.458 17.678 35.131 6.374 11.776-19.455-2.515-26.93-2.724-17.16-7.672-17.797-3.09-6.309 10.033 7.673 13.691 23.077 9.944 1.411 17.608zm66.16-49.717c-13.228 10.913-15.878 21.617-20.902 2.63-7.173-8.434-20.43-23.022-25.347-20.951 14.696-13.568 12.716-16.8 20.712.225 8.28 6.062 14.9 23.428 25.537 18.096zm31.108-49.967c10.99 42.786-62.286 34.212-43.887-4.182 8.832-12.873 17.693-23.347 25.041-7.031-57.894-6.493 21.49 66.758 16.314 11.76l1.935-.418zm1.552-16.728c-16.724-12.32-4.247-16.918 5.424-9.58l-5.424 9.58zm28.578-22.056c-12.21 4.995-27.616-1.551-41.118-1.569-19.12-4.53 3.24 14.15 6.866 20.823 7.317 17.86 21.928 19.682 16.444 11.225-22.361-6.246 9.961-29.292 9.639-12.612 1.803-5.512 10.204-13.534 8.169-17.867zM185.379 98.314c-12.21-18.693-28.195 14.522-40.49 6.336-20.045-2.68-11.379 13.46-6.457 20.047-21.232 15.034.557 22.792 8.717 7.186 1.71 17.209 18.301 19.884 29.937 31.631 8.38-17.877-20.006-28.995-2.217-42.48.684-10.887 13.814-12.82 10.51-22.72zm-16.667 10.94c-1.721 32.425-25.08.982-1.232-4.847z" fill="#e1d9c7"/><path d="M143.456 143.437c-28.232-3.6-13.232 12.604 3.303 16.627 13.515.98 1.477-13.418-3.303-16.627zm139.862-87.229c-7.766-9.652-37.754 14.976-24.618-2.252-1.689-20.439-20.774 7.267-27.774-6.399-10.56 4.586 4.682 20.538-13.955 16.712 11.244 13.685 12.552 18.934-7.263 28.457.542 18.071 22.708 1.443 27.015-9.364 10.673 11.812-28.016 33.525-10.393 34.86 11.021-8.386 27.412-21.975 18.703-39.252 7.629-14.467 23.667-11.102 36.194-14.95 3.61-1.934 2.885-4.793 2.091-7.812zm-47.499 17.459c-8.343 9.328-6.544-23.655 0 0zm11.927-13.466c-5.902 21.029-6.314-16.22.317-3.296z" fill="#e1d9c7"/><path d="M274.648 75.739c-20.193-5.534-36.95 13.138-5.866 13.497 13.882 12.892 25.326-1.246 5.866-13.497zm-16.377 4.205c-.285-3.647 4.732-2.363 0 0zm13.253.486c-1.125-.047.286-.947 0 0zm112.197-36.803c-18.475-.79-17.057-8.272-8.405-14.465-14.738-8.282-26.74 7.312-38.795.88-11.228 7.127-36.118 4.66-10.712 18.117-2.685 12.486-22.584 24.808-20.326 31.569 10.951 21.491 17.494-24.37 25.337.792 4.488-10.18 10.12-12.52 12.714-21.66 13.692-1.983-9.208 44.01 12.186 12.895-.037-17.752 7.366-28.374 7.133-4.517-9.814 23.725 15.446 27.043 10.244 2.548-1.644-14.648-2.256-19.998 11.509-19.762l-.009-3.278zm-52.13 20.016c-4.633-5.033 7.66-5.67 0 0zm29.982-17.152c-13-8.085-16.352 7.01-30.85 8.5.751-8.574 6.576-18.77 17.314-18.053 5.972 11.013 16.772-6.447 13.536 9.553zm4.34-.213c-.96-1.28 2.288-.734 0 0zm62.778 18.097c20.508 3.027 15.73-33.15-1.311-8.288-4.379 2.679-3.998 7.29 1.311 8.288z" fill="#e1d9c7"/><path d="M481.413 115.984c-1.052-10.046-3.896-45.092-9.367-12.466-10.254 11.17-34.616-13.958-8.632-18.94-20.767-16.525 17.607-5.26-4.773-17.889 11.801-15.294 5.514 3.19 13.98 5.237 16.998 8.12 6.463-19.053-5.996-15.934.234-16.702-15.133-9.602-14.835-1.777-4.406-2.65-21.47 17.347-7.693 16.525-6.848 8.728-41.685-5.682-16.653 10.571 21.863-.495-20.801 8.15-28.18.457-3.274 13.48 21.717 13.235 31.343 12.66 12.375-10.14 29.368-26.145 11.88.883-7.003 10.06 39.839 35.351 38.926 20.673zM454.3 74.765c-14.596.112 6.017-24.732-3.459-4.023 1.873-.773 5.183 2.23 3.459 4.023zm51.64 45.364c14.803-9.827 18.981-16.283 33.787-5.242 14.898-10.864 19.367 19.9 2.45 2.249-4.264 10.295 15.362 10.638 21.543 10.671 23.45 12.871-.918-13.095-2.156-22.175-6.97-2.805-9.145 8.938-17.235-2.746-15.63 10.329-6.686-2.3 2.46-4.283-11.59-21.201-27.093-13.263-16.713 3.284-4.727-21.792-33.573 18.116-24.136 18.242zm57.479 1.065c-2.003 8.052-9.897-3.56 0 0z" fill="#e1d9c7"/><path d="M558.438 168.571c11.88-19.92 1.184-13.779-13.241-7.617-12.39-5.766-20.947-20.374-2.178-19.468-8.27-24.141 27.455 16.152 9.324-9.413-11.03-12.41-48.662-22.394-19.776-5.089-7.382-1.014-51.422-1.102-23.426 6.945 10.013 2.817 39.632-4.047 15.34 9.97-3.15 10.378 27.997 50.148 33.957 24.672zm-20.034-39.76c-2.095-4.408 3.01 1.754 0 0z" fill="#e1d9c7"/><path d="M294.682 573.443c-8.316-4.042-40.389-8.725-17.012-11.27.462-10.332 18.79-33.302 1.122-33.459 7.635-3.58 30.397-7.28 18.72 8.732-1.335 11.618-15.833 29.586-2.83 35.997zm31.685-30.53c18.54-37.57 6.128 53.07 0 0zm-14.564 35.158c40.755 12.615 48.034-63.98 6.698-41.236-21.492 24.595 33.632 20.588 5.421 36.016-1.019 5.725-13.27-1.046-12.119 5.22zm79.077-1.399c-10.221-.732-44.062 11.212-24.043-7.263 18.502-11.348 6.448-43.07-10.079-22.134 14.455-37.77 46.245 3.95 15.413 19.558-3.848 12.365 30.701-17.03 19.057 6.922l-.235 1.966zm15.068-44.513c9.78-27.74 25.348 26.51 0 0zm4.66-9.506c-29.801 7.65.866 27.994-1.656 28.298-17.17 41.788 60.031-.9 11.879-11.238 15.167-7.266 2.884-24.416-10.223-17.06zm3.213 37.295c-1.531-31.864 28.85 18.519 1.552 3.207z" fill="#fff"/><path d="M307.813 443.378c8.668-4.915 16.82-27.199 25.887-18.726 17.394 17.388 37.178 32.713 52.991 51.466 2.875 31.767-23.392 27.351-36.542 7.024l-42.336-39.764zm16.831-222.343c-16.847-33.475 19.875-37.839 33.246-11.18l37.423 37.319c-8.75 4.725-17.421 26.902-26.232 18.168l-44.437-44.307zm30.468 66.812c-8.626-4.618-17.667-23.854-26.028-19.147-5.1 8.956-27.135 18.4-11.664 26.765 8.735 8.46 17.614 21.98 25.631 5.132l12.061-12.75zm-2.103 76.959c-8.624-4.602-17.667-23.837-26.024-19.115-5.1 8.955-27.141 18.4-11.663 26.758 8.745 8.454 17.64 21.99 25.642 5.125l12.045-12.768zm39.288-41.587c-8.622-4.617-17.648-23.858-26.012-19.152-5.11 8.949-27.153 18.368-11.687 26.745 8.735 8.466 17.612 22.017 25.637 5.16l12.062-12.753zm-1.278 77.75c-8.626-4.617-17.666-23.852-26.028-19.145-5.1 8.954-27.142 18.398-11.663 26.756 8.747 8.453 17.64 21.99 25.652 5.132l12.039-12.743z" fill="#155f8e"/><path d="M402.107 277.977c15.63-34.086-21.176-36.995-33.708-10.025-22.708 25.125-47.778 48.387-68.904 74.762-4.903 26.085 21.752 33.33 32.082 9.968l70.53-74.705zm-.549-74.37c14.836-33.561-21.303-36.718-33.68-10.027-21.855 24.27-46.204 46.588-66.44 72.13-2.499 35.682 26.109 24.052 38.731 2.903l61.389-65.006zm-.729 152.119c15.622-34.089-21.178-36.99-33.71-10.02-22.708 25.124-47.776 48.384-68.903 74.756-4.907 26.086 21.75 33.338 32.08 9.973l70.533-74.709zm-.96 75.893c14.85-33.533-21.341-36.754-33.708-10.056-21.848 24.281-46.183 46.614-66.413 72.162-2.483 35.652 26.102 24.057 38.73 2.905l61.391-65.011z" fill="#1a77a8"/></svg>