<svg xmlns="http://www.w3.org/2000/svg" xmlns:xlink="http://www.w3.org/1999/xlink" width="700" height="700" viewBox="0 0 700 700"><switch><g><path fill="#044D83" d="M700 349.998C700 543.31 543.292 700 350.011 700 156.71 700 0 543.31 0 349.998 0 156.689 156.71 0 350.011 0 543.292 0 700 156.689 700 349.998"/><path fill="#E1D9C7" d="M591.903 349.086c0 133.137-107.915 241.024-241.012 241.024-133.096 0-241.01-107.887-241.01-241.024 0-133.079 107.915-240.99 241.01-240.99 133.097 0 241.012 107.911 241.012 240.99"/><path fill="#B4A487" d="M264.67 152.604c1.813.336 3.99 0 5.089 1.433 0 2.562-4.373 2.197-2.196 4.724 1.097 0 1.448-1.462 1.813-2.527 5.087-1.463 2.56 6.517 7.266 6.517 0 3.262 2.911 6.886 1.813 10.147 0 1.096 1.813 1.459 1.097 2.526-1.097 0-2.194.731-2.56 1.492.366 2.895 3.99.702 5.453 2.501 5.44 0 10.147-5.06 16.667-3.993 3.99-1.067 9.08-1.067 13.07-1.067 3.247 1.462 1.433 4.358 3.99 5.789-1.095 1.465-2.894 2.56-4.705 2.194-1.813-1.826-3.992 1.462-5.806 2.53v.366c0 1.099 1.433.366 1.813.366.716 2.164-1.094 2.527-2.56 3.625-2.165 0-.717-2.891-2.908-2.528-4.709.731-11.944-1.097-14.854 4.326-1.798-1.065-3.99-.363-5.789.398-3.625 3.592.336 8.685-3.276 12.309l.366 4.325c-1.462 2.925-5.423 5.482-4.373 8.712 1.1 4.756-6.52 7.646-.335 11.609-2.192 4.356 1.053 6.549.335 10.542-.714 0-.714.333-1.05.729l1.431 1.096c-1.095.336-1.813.336-2.528.702 0 1.097 1.097 0 .714 1.097-.363 0-1.095.366-1.463.731 1.1 0 1.463.366 2.182 1.068.378-2.896 3.625-1.799 5.438-2.53 1.462.368 2.177 1.828 3.639 0 1.097 1.097-.366 3.259 1.097 3.992.336-4.358 6.522 0 6.522-3.625 2.528.364 3.99-3.26 6.137-.733 3.276-1.097 6.901-3.261 10.18-2.526.713-2.56 5.42 1.429 3.99-2.165l-1.463.365c-.351-.365 0-1.126-.351-1.462.729.336 1.097-.395 1.813-.731 0-.731-.366-1.462-1.084-1.796-.378.334-.729 0-1.476 0-.335-.397 0-1.096-.335-1.857 3.609-1.798 4.326 2.192 6.52 3.288.714 3.625-3.99 3.993-2.528 7.251-1.462 1.462-1.097 3.992-3.276 4.722.366.335.716.733.366 1.097l-1.463.702.381 1.462c-3.276-.731-5.804 3.625-9.08 1.799-2.53 2.559-7.234 2.896-9.431 6.184-2.896 3.625-6.52 1.799-9.794 4.358-1.813 0-3.276.333-4.372-.733-2.15 1.462-4.708 2.53-7.237 1.798-1.799-.336-3.99-1.433-3.273-3.99 1.474-1.433-.336-3.961 2.193-5.058-.351-2.196-3.625-1.463-3.625-3.627-1.465 1.068-1.816 3.627-2.896 5.058-1.097 1.46 1.431 3.992-1.097 4.355 1.097 1.097 2.896.734 4.707 1.463-1.433 1.798 1.463 6.886-2.895 6.886-2.191-1.431-6.152 0-7.237-3.261-.377-3.625 3.996-4.353 3.613-7.982 3.273-3.99 1.813-12.702 9.08-11.24.716-.365 1.43-.365 1.813-1.067-2.182.333-2.182-1.828-3.992-2.194-1.095-2.559 0-5.423-.716-8.348-.378-3.258 5.042-2.922 3.246-6.52.366.366.716-.365 1.08-.365-1.43-1.097-1.08-3.26-.363-4.356.746-.333 1.811-1.099 2.56-1.799-.383-.731-1.813 0-1.479-1.829.731-1.798 4.753-1.096 3.276-3.99-4.707-2.53-1.082-7.982-2.179-12.308.716-3.291-1.097-6.184-1.097-9.08-3.61.702-6.886 1.065-10.13 2.162-4.373 0-7.982 2.196-11.99 3.626-2.176-.701 3.626-6.187-1.431-3.626 0 .365 0 1.436-1.463 1.099-1.813-1.463.381-3.261.381-4.692 3.992-1.097 5.423-7.283 10.51-5.089 3.992-1.828 10.512-1.828 11.606-6.518 1.799-1.494.369-4.756.719-7.283-4.722-3.624-5.089-9.81-7.997-14.868.38-2.527-1.433-5.455-.336-8.348 2.531 2.19 5.091-1.801 6.523 2.19M213.074 257.504c3.61.699 7.983.363 9.08 3.99-2.56 1.097 0 3.625-2.194 5.058-4.709-3.961-10.876-1.068-16.316-2.162-3.99 1.094-11.259-2.196-13.786 2.891.383 4.357 3.276 9.05 1.462 13.803 1.065 2.528.351 6.886 3.246 8.684-1.798 2.558.378 5.087 0 7.98-1.798.731-4.326 0-5.074-1.828 0-.699.366-1.431-.349-1.796-1.813 1.796-2.896-.366-3.995-1.798 1.816-.731.336-2.925 0-4.356-1.811-1.462-.378-4.021-2.528-5.455-1.462-3.99.352-8.316-3.273-11.607 1.097-2.893-3.276-2.893-4.709-4.691-.746 1.799-2.191 2.5-3.654 1.433-.719-.368-1.433-.731-2.147-.368-1.813 1.1-4.709 1.1-7.269 1.436-2.165-1.067-5.804-2.5-8.334 0-1.094-.336.336-2.5-1.094-2.896 2.528 0 3.99-2.893 6.518-3.627 3.992.734 6.52-3.595 10.893-2.527 3.99-.702 9.079-1.068 13.421 0l1.462-1.463-1.462-1.433c1.798-1.097 3.276.734 4.708 1.097 3.99-1.829 10.888 1.43 13.784-2.896 2.896 3.626 8.334-.365 11.61 2.531M229.39 263.657c-1.798 3.624 1.094 7.619.378 10.875 3.247 4.358-3.273 7.254-.378 10.91-.368 1.43 0 3.229-1.462 4.326 2.557 1.463-1.097 2.894-.719 5.087 0 6.52-6.138 10.146-10.145 15.233.351.699.731 1.097.731 1.798-2.908 0-3.625 2.192-4.722 3.99-3.276 3.291-6.886 5.087-10.162 8.346-3.245 2.896-9.047 6.159-10.145 9.079-2.896 1.432-3.99 3.597-5.804 6.154-3.609-1.458-6.52 1.434-9.796.369.38-3.264 4.707-4.721 7.236-6.915 1.463-3.598 7.647-3.961 6.187-9.05 3.274-3.261-.719-7.588 2.891-10.513-1.812-1.46-1.431-3.656-2.891-5.453-.383-1.434 0-2.893 1.46-3.229-.747-1.86.333-2.925.333-4.388.733-.336 2.196-1.096 2.91-.336-1.43 2.527 2.56 5.06.383 7.953 3.61.761-.734 4.721 1.796 6.883-1.082 1.099 1.094 4.39-1.796 3.627-1.479.763-1.097 2.56-.734 3.656 1.814 1.065 3.625-.76 5.06-1.798v.336c3.657-1.431 6.52-4.327 9.08-7.251 1.094.366 1.431-.731 1.813-1.46 2.891-3.992 7.234-7.221 6.898-12.705.716-1.799 2.896-4.327 1.431-6.52-1.431-5.087 5.455-7.22 2.927-12.31 2.164-1.462.716-4.355 2.878-5.453 3.99-1.831-2.527-6.519 2.896-6.519.38-2.53-5.423-4.358-1.097-5.821.765-2.891 3.277-1.43 2.563 1.099"/><path fill="#B4A487" d="M204.36 280.72c.731 1.794-.716 3.592 1.094 4.689v6.55c-1.46.733-2.891 2.863-5.087 2.164-2.177-2.164-2.527-4.724-2.177-7.617 1.098-2.895 3.658-4.72 6.17-5.786M190.591 301.375l-.719 1.43c-1.094 0-1.813-1.43-1.462-2.863 1.082 0 1.798.336 2.181 1.433M207.148 448.222c3.274 1.099 2.925-1.797 3.642-3.597.351-.388 1.094 0 1.445 0v-.757c3.993-6.891 13.069-5.79 18.876-10.148 5.423-1.463 11.946-2.164 14.836-7.249l-5.423-.731c-4.705 3.989-11.227 3.288-16.314 6.518-4.707 3.294-11.229 2.194-15.6 5.821-3.276-.731-4.341 2.164-7.266 2.164-.716-.369-1.067-1.1-1.067-2.164 4.707-3.259 1.433-9.807 5.806-13.434 8.333-2.164 14.5-9.05 23.548-9.417 2.559-3.623 8-1.797 8.716-6.519-1.097-.761-1.097.727-2.193 1.095-10.13 1.433-18.847 6.856-29.356 8.319-1.813.396-4.358 3.292-6.169.73 1.811-3.259 1.082-6.886 2.179-10.145.716-2.199 3.276-3.259 5.803-2.896 3.625-2.557 8.697-1.829 12.704-3.655 3.99-2.528 7.237-4.323 11.595-6.154 2.192-1.095 5.804-.697 6.9-3.265-4.708-1.094-11.609 1.469-15.249 5.096-.731 0-.351-.731-.351-1.101h-4.37c-1.433 3.627-8.334.702-10.515 4.33-4.341-1.435-9.047 1.094-13.42 0-3.274-1.071-5.424-3.229-3.99-7.225 1.097-1.101 1.813-2.194 3.656-2.528 3.245 1.797 4.708-1.826 7.618-2.926 4.707-.73 9.047-4.353 11.943-8.68 1.097-2.563 0-5.458-.335-7.984-3.655-4.723-9.078-1.826-13.451-4.354-2.91 1.826-5.774-.368-9.047 0-3.629 2.528-6.903-.73-10.893 1.429-5.087-1.429-8.333 3.627-13.756 2.527 0 1.1-2.94 1.831-1.846 3.628 4.373 0 10.893 0 15.266-.703 1.433 1.07 3.247-1.094 4.709-1.457.714 1.457 1.065 3.259.714 5.084-1.462 3.264-1.097 7.615-1.462 11.243 2.179 3.99-2.528 3.99-3.247 6.886-6.184 2.526-5.801 9.81-10.888 13.801-7.269 4.721-1.813 12.309-2.533 18.468 1.1 2.194 3.247-.701 5.06 1.457-.351 1.827-1.065 3.991-2.91 4.723 1.097 2.526-1.05 5.422 1.097 7.984 2.177 0 2.56 2.189 3.625 3.626-1.448 1.796.749 4.353 2.179 5.424 3.276-.339 7.267 1.457 10.177-1.438 5.804 1.1 13.406.701 17.396 5.089-6.169 4.697-8.697 11.946-14.503 15.941-2.557 6.178-9.793 9.442-13.786 14.527-3.274 1.801-4.704 7.95-9.794 6.521 0 1.429 1.097 2.164.747 3.991 1.433-.731 3.624 1.433 4.708-.731 1.429-.364 2.876 0 3.96 1.094 1.476-5.82 8.712-1.825 9.078-8.009 3.992-.34 4.373-5.424 7.998-7.221 2.178-1.1 5.806 2.194 6.886-1.825l12.704-1.801c3.963.334 8.669 1.065 11.58-1.826-5.058-1.438-10.527-2.532-15.951-2.164-2.527-1.468-5.803.726-8.333-1.1-1.08-2.557 2.91-2.194 2.91-4.353l1.796 1.796c.351-1.796 2.164-1.438 2.91-1.07 1.431-3.622 4.341-6.546 8.333-6.915 3.612 2.896 7.266-1.065 10.876.369 1.813 1.099 4.344-1.101 7.251-.703 0-1.094.368-2.563-.351-3.627-2.893.335-6.518-1.462-10.174-1.462-4.326-2.16-9.796.368-13.756-2.16 0-4.721-4.739-4.362-7.266-6.552-.719-.699 0-1.796.38-2.531 1.082-.362 1.796-1.791 3.244-1.089l-.714 3.281c.363.704.712 1.072 1.428.704m-12.674-74.333c.716-.735 2.164-1.801 3.244-1.099.717 2.527 3.627 1.457 5.47 2.16 1.433-.335 2.53-2.528 4.326-1.797.38 2.164 3.992 2.896 2.194 5.792-4.724 2.192-9.08 5.45-14.138 6.544-1.096 2.896-3.992.731-5.455 2.528 2.182-3.621 3.995-9.071 4.359-14.128m-1.844 69.278c-4.707.701-9.413 6.153-14.122 2.498 1.462-2.896-.38-5.792-1.448-7.95-.744-2.896-2.542-6.891.351-9.085 2.179-1.06 2.559 2.194 3.276 3.294 2.53-5.453 10.89-.732 13.04-6.882 2.56-1.497 5.47 0 3.656 3.229-1.479 1.797 1.05 3.652 1.05 5.448-1.432 3.628-1.432 7.982-5.803 9.448m-4.326-20.323c-4.707 1.433-10.893.363-15.234 1.801 1.813-5.791 3.625-11.976 7.617-17.035-1.812-4.354 4.341-2.896 2.91-6.88.716 0 .716.334 1.08.334-1.08 3.989 3.626 1.094 5.089 3.65 2.147-2.189 3.96 1.438 6.137 1.796 1.097 1.438 3.293 3.627 1.479 5.822 1.431 1.8-.746 5.422 1.813 6.521-1.478 4.692-7.281 2.897-10.891 3.991M284.199 482.709c-2.177-.728-3.273 3.995-6.52 3.229-2.177.766-3.654 4.755-6.55 2.562-4.341-1.07-6.139 3.293-8.333 6.154-1.08 3.293 3.625 1.463 1.813 4.751.381.339 1.097.339 1.46 1.07-1.079 1.825-1.811 4.353-.743 5.82-2.53 3.252 3.654 6.516-.717 9.411 1.812 1.1 2.179 3.627 4.707 2.528 2.196-3.991 7.269-1.797 10.513-3.597 2.908-1.827 6.552-2.528 10.176-3.29 1.097 2.194-1.813 2.563-2.53 3.657-2.179.701-4.739 1.801-5.804 3.961-2.56-.334-3.993 2.563-6.886 1.461l-1.097 1.797c-1.097.368-2.177-1.461-3.625 0-2.56 1.096 1.065 2.93-1.084 3.991 3.246 1.825-2.911 6.153 1.084 8.348.714.731 0 1.797.714 2.563h2.194c1.053 1.8 3.244 3.627 3.612 6.153 1.446.368 2.192 1.457 3.245 2.16 6.9-.363 13.086-4.354 19.224-7.215.749 0 2.56-.766 2.56.701 0 1.43-1.46 2.16-2.56 2.887-2.863.735-5.057 3.627-7.617 5.094-.716 2.528-1.813 2.528-3.612 3.955-2.191-.701-3.273 1.102-5.087 1.102-1.431 2.526-4.339 4.387-7.234 4.387l-1.477-1.493c-2.896 1.827-2.513 6.186-6.521 4.723-1.084 3.294-5.425.368-6.886 3.294-2.149.695-4.341 0-5.437-1.435-3.993-1.491-10.513 1.792-10.879-3.656 3.61 0 4.356-3.99 7.983-3.627 3.273-1.796 7.617-2.528 9.43-5.424l-1.097-3.292c2.896-.363 3.274-4.354 3.99-6.881 1.812-3.627-.716-7.622-1.094-11.611.378 0 .744 0 1.094-.731-.716-1.062-1.813-1.062-2.53 0 .351-1.797-1.46-2.896-2.56-3.991-2.147 1.463-3.961 1.096-6.137 1.096 0 1.438 2.176-.364 1.434 1.834-2.911.697-3.993-2.198-6.521.358-1.433-.358-3.627-.358-4.343-2.192.351-2.893 3.627-1.791 4.707-3.986 2.91.732 6.523-1.099 9.811-1.802.719-1.094 1.798-2.894 3.246-3.621-3.246-4.363-1.097-10.182-2.91-15.267.714-2.13.714-4.691-1.097-6.149-2.893 3.254-5.804-1.802-8.316 1.825-2.91 0-5.089-1.463-6.184-3.627 6.549-5.452 15.98-1.797 23.212-5.452 6.172 0 11.61-3.992 17.779-2.533M485.679 232.887l1.509.913c-2.621.914-5.999-3.625-8.621-.913-3.762-3.141-6.016 4.049-9.383 0-2.255 3.625-5.242-.429-8.243 2.255-3.746-3.141-3.366 5.879-7.115 2.712-5.24-2.255-8.225 3.624-13.13 2.251-.748-2.251-.748-4.507-.365-7.219 0-1.342-1.874-2.226-1.507-3.597l.379.456c1.128 0 1.873-.456 2.239-2.255 0 1.342 1.127.918 1.873.918.748-5.426 6.396-2.288 7.892-7.254.746-1.34 0-2.68-1.113-3.136-1.125-1.342.367-2.682.747-4.054 0-4.508 3.367-1.796 4.861-.457 3.366-6.277 8.24.457 12.734 0 1.11-2.712 4.492-3.138 5.636-4.938-2.62-3.594 2.969-5.879 2.622-9.471l.347.457c1.907-1.343 3.368-2.255 4.525-4.967.75-3.598-.377-7.222-1.873-10.358-.745-7.222 4.874-10.358 1.873-17.124 2.621-2.68-1.873-3.595.383-5.85-4.127-1.796-1.54-8.562-5.621-9.018-1.522 1.34-5.272-1.798-5.272 3.168-3.749-1.828-6.748-2.711-11.226-2.711-1.507 4.054-4.874 1.372-7.494 2.711 0 .427 0 1.342.381 1.799-1.127.424-3.748-2.288-4.131.883-2.984 1.372-6.017 1.372-9.017 1.797-2.622-.425 0-3.137-.366-4.479h-.746c-2.254-1.34-6.002 0-7.495 2.224-1.875 0-4.859 3.17-6.366 0l1.507-2.224c-1.874-1.34-3.749-.488-4.872-2.255-.75.916 0 3.598-.75 4.479-.38 0-.746.458-1.157 0 1.157-3.136-1.082-2.712-2.618-3.136-.337-1.343 2.281-1.799 1.901-3.627-3.396-1.766-4.891 1.829-5.268 4.967 1.521-.427 2.283.457 3.366.915.774 3.137-3.719 4.508-2.989 8.103-2.619-1.34-2.256 3.139-5.239.913-1.126 1.342-.76 4.054-.38 5.852l2.617-1.374c1.129.459.746 1.799.746 3.2 3.399 1.766 2.621 6.732 4.908 9.872 3.732.916 3.732-6.731 8.228-5.394.378-1.799-1.877-.425-1.877-2.254 3.384 2.684 3.001-5.423 6.751-2.711 1.872-1.338 2.238-3.593 2.621-5.392 5.603 0 10.861 3.139 16.101-.457 6.017-.886 13.13-1.342 18.372-3.167 1.493 1.369 3.366 2.282 4.492.913 5.272 1.799 3.017 8.591 4.862 12.644-.368 3.566-.717 7.19-.717 10.359.717.88 1.493 1.766 1.127 3.135.713 1.343-.778 2.255-1.522 2.255-.733 1.343 0 2.255.744 3.598-2.998-.457-4.494 4.081-7.113 3.592-1.507-1.337-4.129 1.343-4.494-1.337-7.496 4.049-16.103 3.592-23.994.457-.379 1.369 1.874.88 1.874 2.711-2.253 0-4.129 1.797-5.988.881v4.083c-2.619 1.339.747 4.054-.76 5.85-2.236.427-4.479 3.139-6.351 6.307-.383 1.767 1.111 5.821-1.128 6.733.38 0 1.874.914 1.128 2.288 1.489 2.252 1.872 6.733 1.111 9.87-.748 4.08-4.495 1.369-4.861 4.966-1.872 1.369-1.125 5.423-1.872 7.679 1.494.424 2.618 2.68 4.494 1.825 2.239-5.45 7.479-1.825 9.734-6.335l1.127 2.255c1.491-3.598 5.986-.886 7.889-4.51 4.861 4.51 5.99-5.879 11.229-.913.38-1.767-1.129-.886-1.493-2.223 2.241-1.83 5.239.457 8.226-.916 3.382 3.627 5.239-1.34 8.244-3.594 2.254-1.798 3.776 3.136 5.271-.457 3.744 1.799 7.11-2.255 11.605-.913v-1.767l-3.749-.489z"/><path fill="#B4A487" d="M461.061 234.105c-.243 0-.5.061-.714.09.244.03.47-.029.714-.09M459.829 234.256c.151-.062.333-.062.518-.062a2.576 2.576 0 0 1-.9-.395l.382.457z"/><path fill="#B4A487" d="M461.061 234.105c.977 0 1.998.031 2.501-1.19 1.126 0 1.871 0 2.984.885 1.128-4.51 4.495.457 6.78-1.798l-7.146-.457c-2.314-.702-3.487 2.041-5.119 2.56M441.821 238.766c5.242-2.711 11.641-2.711 16.514-5.879-6.018 0-11.271 6.304-16.878 2.712.364-.886 0-2.224.745-3.141-2.24 1.342-.745 4.967-.381 6.308M510.085 272.554c-1.875 3.624-5.607 3.624-8.607 4.967l-1.127-1.828c-4.115.913-7.479 5.877-11.64 5.877-.745 1.799-1.113 3.566-.365 5.394 2.651 3.139 1.872 8.105 3.777 11.73 2.62 4.054-2.256 8.988 2.62 11.7.746 3.136 1.875 6.309 2.623 9.475 4.491-2.709 10.096-2.709 13.463-8.105.766 2.685-2.238 5.396-4.109 7.222-1.876-.913-3.751 1.767-4.114 3.565 0 3.166 1.872 4.962 1.872 7.676-1.872.461-3 2.685-3 4.932 1.874 2.287 4.112 2.714 5.622 5.855-1.51 1.83.362 4.966-1.876 5.879 2.621 1.34 1.113 4.48 1.113 6.763-1.493 2.68-3.368 4.932-2.985 8.564l1.126 1.34c-3.38 5.422-5.239 12.157-7.859 18.031-1.129 3.145-2.636 5.854-4.129 8.106-2.271 5.394-7.145 7.185-9.383 12.157-1.874-.428-2.621 3.165-4.495 1.825 2.241-8.132 9.734-13.07 11.256-22.089 3.004-5.874 5.622-13.07 8.61-19.371-1.494-4.054 2.62-8.564-1.111-11.278-2.623-7.646-1.131-17.118-4.495-24.342-1.51.491-1.51 1.344-2.653 2.257.369.914.779.914.779 1.831-3.031.884-3.748 4.471-4.523 7.185-6.371 8.107-12.739 15.784-18.724 23.886-3.747-2.224-4.493 6.763-7.859 3.599 0-2.68 1.097-5.395 2.97-7.19 3.764.883 3.764-4.967 5.635-7.652 4.129-.912 4.129-9.933 8.625-7.219.746-.453 1.109-.879 1.856-1.796-.365-.918-1.492-.918-2.239-.918 0-.451 0-.451-.379-.451 3.381-.461 2.998-5.395 5.24-6.733 0-3.626.76-8.137 2.619-10.846-.747-2.682 3.031-2.682 1.507-5.848 2.986-1.342 2.986-5.396 4.143-8.564-.775 0-1.156-.913-1.521-1.342.365-1.37 1.129-3.624-.38-4.961-1.492 3.167-5.987-.886-6.367 4.048-5.24.913-10.101 7.222-14.596 5.879-3.746 1.343-6.763 3.598-9.765 6.734-.747.488 0 1.372 0 1.83-.747 3.566-.379 6.273-3.003 8.53-2.982-.913-2.619 3.166-4.855 4.54-1.493-.485-1.493-3.17-1.876-4.966 2.622-4.967 1.876-11.728 2.999-16.238-1.123-.429-2.999-2.223-4.489-.885-.749-2.712 2.235-1.338 3.366-2.712 2.236-3.168 1.49-8.134 5.603-9.015 2.639.457 2.639 4.505 4.908 5.847 6.368-4.965 14.591-1.798 20.595-6.732 2.238.427 4.493-.456 5.988-1.369-.383-2.682-4.115-4.966-1.495-7.222-.38-1.34.366-4.479-1.872-4.967-2.254 1.401-3.367-3.566-5.24.488-1.876 0-3.002-.913-4.497.427-.378.913 0 2.285-.745 2.712-2.622-2.226-5.621.916-7.861 0-1.506 0-2.999.916-4.872.456.35-3.168-1.159-5.423-2.652-7.222l2.652-1.796c10.478-.457 20.212-4.022 30.327-4.508 5.271-2.711 11.64-3.139 16.882-4.967 1.488-.43 2.236.483 2.982 1.825M499.815 410.628c-.761 2.224 1.875 1.797 2.622 3.593.365 1.801 1.873 3.598 1.873 5.851-3-.428-3.383 4.971-7.115 3.136-.762.912-1.873 2.286-3.002 1.375-.378-.463 0-.884-.378-1.375.761-.849 2.256-.422 1.873-2.224-.746-1.825-1.495.884-2.239.462.744 2.253-2.622 1.34-1.493 3.597-1.129 2.248-4.496 2.248-6 4.501h-1.114c0-.451 0-.913-.38-.913-.778 1.374-3.776 1.374-2.65 4.089.409-.918.777-2.715 2.268-1.375-3.394 3.17.763 8.992.763 13.952 4.112 2.714 8.974-.421 13.847 1.34 4.861-.427 4.494-6.3 7.861-9.446v-2.247c.745 1.334 1.128 2.708.745 3.621-1.125.427-1.491.889-1.872 1.772 0 .912 1.127.485 1.872.485 1.129-1.369 1.494-2.709 3.398-2.258l.352.889h-1.097c-.749 1.796 1.507 3.622 1.844 5.423.411 0 .773-.461 1.156.421-3.366-1.339-.383 5.394-4.159 4.05.41-.423 2.666-1.336 1.904-3.137-3.016-4.509-4.523 1.801-7.511-.913-2.998-.421-4.494 4.971-7.494 1.34-.366 0-1.112-.427-1.112 0 2.619-.848 4.479 4.544 6.734.486 1.492 2.714 3.366 0 4.859-.486.763-2.222 1.873-.848 3.029-.848.749.421.383 1.334.383 2.222-3.412 1.826-7.892 2.257-10.527 5.846-3.366-1.796-7.859-4.933-11.228-2.676-.367 2.676-1.156 8.53 1.873 10.355 0 .885 0 1.802.75 2.229 3.365 0 7.493-3.568 10.111 0 2.241 0 2.621-3.141 4.861-1.771 0 3.598-3.732 2.258-4.495 4.054-3.367.919-5.985-2.709-8.606.919.745-2.288-1.494-1.803-2.238-2.288-1.509-.427-1.509 1.369-1.875 2.709l.746.913c-.746.427-2.619-.457-2.998 1.34.715 4.51.715 5.885-.748 9.482 0 4.962 3.746 6.733 5.619 10.813 8.228 4.053 14.229-4.079 21.738-5.424.749-2.714 2.256-.427 3.75-.889-.383-3.588 4.111-2.709 6.366-3.588-1.489 2.676-2.618 5.821-5.984 6.733-1.876 3.167-5.242 1.827-6.749 5.424-3.398-.461-5.271 4.933-8.638 1.796-2.256 1.791-4.877 3.137-5.239 5.851-3.367 2.253-6.371 4.048-10.483 3.622-.38.426-.38 1.34-.38 2.253.748 1.344 1.843-.451 2.619-.913.747.462.747 1.802.747 2.714-4.112 3.17-6.763-6.336-10.13-1.801-3.004 3.136-6.748 5.396-10.86 6.31-2.241-.461-5.242 2.223-7.116-.913-2.24 1.364-3.368 1.796-5.239-.426-2.622-.919-5.652.426-7.892-1.375.363-3.169 5.27.883 3.749-4.047.775-2.259 1.873.451 3.016 0 1.872-2.259 6.366.878 5.999-4.084.367-.427 1.113 0 1.496 0 .363 0 .363.913.745.913 1.491 0 2.621-1.34 3.367-2.685l7.858-1.37c1.873-4.049 4.877-6.306 3.751-11.269 2.618-1.801 1.871-5.854 3.744-8.534 1.158 1.34 2.621-.486 4.146-.486.38-.883.38-1.801.38-2.223-1.126 1.796-3.367 2.223-4.525-.461h-.714c-.746-2.71.714-4.511 1.872-6.337-3.031 0-2.284-2.68-3.776-4.476 0-2.715 4.145.427 2.984-3.17-1.492-1.802-4.858-.457-5.238-3.166-1.873.452-5.239-3.106-5.988.913-3.001.451-8.242 0-10.861.451-2.241-.912-3.367-4.049-6.017-2.248.777-4.054-3.368-5.851-1.463-9.478-1.524-1.765 1.463-5.853-1.524-6.731l1.524-4.545c.364 2.287 2.987 2.714 4.112 1.374 1.126-.883 1.871-1.797 1.871-3.137.75-.46-.362 1.763.75 1.763l1.873-.878c0 .878-1.127 1.791 0 2.252.383 4.967-1.493 9.902-3.368 13.956 5.242.913 10.484-3.14 16.105-3.597 1.872.913 5.602.913 4.491-3.135-2.256-3.627 2.24-8.107-1.506-10.821-3.368-2.253-10.102 1.345-10.848-5.424-1.51-1.34-3.383 0-4.492-2.224a2.713 2.713 0 0 1 1.491-3.199c1.127.491 2.621-.422 3.367.912 3-3.136 6.749.923 10.114-.912 3.366-3.136 7.509 1.835 10.512-2.224 4.492 2.715 7.114-4.511 11.226-4.511 1.494-1.364.383-4.048.745-5.845h1.51z"/><defs><path id="a" d="M356.315 390.849c-1.431 1.374-2.833 2.75-4.266 4.09-1.448-1.34-2.878-2.716-4.311-4.09 1.433.034 2.863.034 4.311.034 1.402 0 2.836 0 4.266-.034m-144.917 96.646c-.868-.854-1.308-2.376-1.308-4.535 0-14.537 20.061-49.789 58.067-95.643 22.09 1.894 44.667 2.958 65.674 3.415 3.763 3.622 7.509 7.161 11.228 10.694-63.174 58.195-111.968 87.652-128.724 87.652-2.225.001-3.901-.514-4.937-1.583m147.538-86.127c3.841-3.598 7.584-7.16 11.275-10.636 20.959-.457 43.61-1.521 65.67-3.415 38.023 45.854 58.087 81.105 58.087 95.643 0 2.159-.444 3.681-1.281 4.535-.868.854-2.403 1.31-4.554 1.31-17.9-.001-67.23-30.469-129.197-87.437m-83.39-22.821a985.651 985.651 0 0 1 22-24.771 853.902 853.902 0 0 0 23.369 24.19 71.286 71.286 0 0 0 3.063 3.014 891.649 891.649 0 0 1-48.432-2.433m107.609-.545a1020.775 1020.775 0 0 0 23.401-24.226c7.831 8.535 15.155 16.79 21.953 24.771a892.638 892.638 0 0 1-48.384 2.434 160.168 160.168 0 0 0 3.03-2.979M153.13 346.861c0-10.571 40.703-24.221 110.961-30.741 8.775 10.385 17.852 20.745 26.964 30.648a980.142 980.142 0 0 0-27.116 30.802c-70.165-6.522-110.809-20.166-110.809-30.709m259.871-.062c9.078-9.934 18.234-20.294 26.961-30.679 70.258 6.521 110.95 20.17 110.95 30.741 0 10.542-40.627 24.187-110.798 30.709-8.393-9.991-17.468-20.293-27.113-30.771m-137.487-31.623c14.976-1.186 31.141-2.04 48.417-2.469a225.804 225.804 0 0 0-3.016 3.019 941.772 941.772 0 0 0-23.43 24.192c-7.863-8.564-15.173-16.792-21.971-24.742m107.641.549a575.853 575.853 0 0 0-3.029-3.019c17.275.43 33.436 1.284 48.412 2.469a993.77 993.77 0 0 1-21.951 24.742 1065.884 1065.884 0 0 0-23.432-24.192m-45.363 65.561c-3.367-3.283-6.778-6.605-10.176-10.018-8.333-8.317-16.226-16.455-23.641-24.407a947.461 947.461 0 0 1 23.641-24.435c3.398-3.41 6.81-6.73 10.176-9.992 4.677-.064 9.414-.123 14.257-.123 4.828 0 9.567.059 14.26.123 3.336 3.261 6.734 6.582 10.133 9.992a1105.695 1105.695 0 0 1 23.686 24.435 1055.661 1055.661 0 0 1-23.686 24.407c-3.398 3.412-6.797 6.734-10.133 10.018-4.692.064-9.432.127-14.26.127-4.843 0-9.579-.063-14.257-.127m14.258-82.532a265.009 265.009 0 0 0 4.266 4.083h-8.577c1.432-1.339 2.863-2.711 4.311-4.083m-140.652-92.527c8.928-8.925 62.06 20.111 133.72 86.099a1732.821 1732.821 0 0 0-11.256 10.665c-21.008.424-43.614 1.491-65.705 3.413-45.09-54.296-64.238-92.711-56.759-100.177m158.813 96.763c-3.691-3.473-7.435-7.07-11.275-10.665 71.675-65.987 124.795-95.024 133.751-86.099 7.465 7.466-11.697 45.882-56.746 100.176-22.087-1.921-44.741-2.988-65.73-3.412m-18.161-17.063c-57.309-52.524-128.235-105.565-147.382-86.403-14.883 14.897 13.936 61.148 52.219 107.912-60.143 6.004-113.248 18.343-113.248 39.425 0 21.051 52.984 33.365 113.096 39.394-34.75 42.591-56.122 78.54-56.122 96.704 0 4.751 1.369 8.559 4.055 11.238 19.147 19.16 89.998-33.849 147.322-86.376 59.123 54.51 112.591 90.494 136.144 90.494 4.767 0 8.546-1.404 11.259-4.118 2.695-2.708 4.065-6.487 4.065-11.238 0-18.164-21.374-54.113-56.137-96.704 60.099-6.029 113.096-18.343 113.096-39.394 0-21.083-53.06-33.421-113.247-39.425 38.281-46.763 67.137-93.015 52.223-107.912-2.744-2.743-6.552-3.99-11.197-3.99-27.956 0-87.049 45.394-136.146 90.393"/></defs><clipPath id="b"><use xlink:href="#a" overflow="visible"/></clipPath><radialGradient id="c" cx="166.296" cy="692.151" r="31.201" gradientTransform="matrix(5.8381 0 0 -5.8379 -617.573 4389.024)" gradientUnits="userSpaceOnUse"><stop offset="0" stop-color="#e4dfbe"/><stop offset=".031" stop-color="#e9e4ca"/><stop offset=".107" stop-color="#f3f1e2"/><stop offset=".185" stop-color="#faf9f3"/><stop offset=".265" stop-color="#fefefd"/><stop offset=".35" stop-color="#fff"/><stop offset=".65" stop-color="#fff"/><stop offset=".735" stop-color="#fefefd"/><stop offset=".815" stop-color="#faf9f3"/><stop offset=".893" stop-color="#f3f1e2"/><stop offset=".969" stop-color="#e9e4ca"/><stop offset="1" stop-color="#e4dfbe"/></radialGradient><path clip-path="url(#b)" fill="url(#c)" d="M143.638 180.362h416.778v332.996H143.638z"/><path fill="#E1D9C7" d="M78.121 485.792l17.182-2.254-10.952 13.645-6.23-11.391zm3.639 35.914c-1.644-2.738-.182-4.751 4.616-10.781l23.6-29.795-.918-1.68-39.059 4.569c-5.298.608-7.737.913-9.946-2.013l-1.431.83 6.457 11.818 1.462-.761c-.974-2.071-2.317-4.967-.088-6.159.898-.545 3.838-.913 8.91-1.552l7.175 13.134c-1.433 1.796-4.709 6.037-6.292 6.915-1.937 1.04-2.56.034-4.813-3.445l-1.462.824 10.326 18.89 1.463-.794zM118.169 558.333c-7.328-.461-13.816-1.953-19.06-8.652-9.551-12.221-6.12-25.565 3.676-33.182 10.645-8.313 24.706-7.16 33.329 3.871 3.671 4.692 4.265 10.753 5.332 12.093 1.097 1.435 2.56 1.041 4.265.516l1.126 1.404-12.262 9.601-1.021-1.312c3.124-5.369 5.804-14.596 1.159-20.567-6.004-7.647-15.602-3.412-24.466 3.504-3.155 2.434-7.923 6.703-9.764 11.243-2.056 5.147.395 9.933 1.642 11.548 3.215 4.049 7.877 6.764 16.135 7.313l-.091 2.62zM135.321 565.032l15.538-7.612-6.019 16.417-9.519-8.805zm14.884 32.871c-2.437-2.041-1.676-4.417.945-11.694l12.874-35.743-1.372-1.276-35.584 16.756c-4.847 2.316-7.055 3.322-10.054 1.281l-1.158 1.217 9.93 9.177 1.112-1.228c-1.555-1.64-3.762-3.954-2.059-5.81.719-.766 3.367-2.047 7.985-4.3l10.983 10.144c-.746 2.199-2.53 7.284-3.732 8.588-1.507 1.616-2.437.826-5.683-1.731l-1.126 1.218 15.813 14.619 1.126-1.218zM189.767 579.445c.746-1.281 1.629-2.686 5.177-.368 9.524 6.336 2.972 18.983-.378 24.038-8.79 13.252-15.997 13.556-22.21 9.443-2.685-1.763-2.5-3.072-1.023-5.329l18.434-27.784zm-35.435 23.944l17.489 11.607c14.26 8.835 25.987 4.148 32.768-6.061 5.654-8.501 7.023-21.511-8.516-31.808l-16.91-11.214-.913 1.404c1.996 1.644 4.37 3.381 2.162 6.733l-18.129 27.326c-1.37 2.075-3.561 2.954-7.051.638l-.9 1.375zM216.38 590.561l34.853 16.029-5.59 12.157-1.492-.703c2.56-9.201-1.036-12.705-9.203-16.45-3.32-1.527-4.524-1.802-5.71.819l-6.461 14.017c5.774 2.715 9.583 2.586 13.938-4.511l1.57.731-9.398 20.412-1.585-.726c2.773-7.863.503-11.093-5.469-13.865l-6.733 14.621c-1.218 2.655-.41 3.935 3.518 5.726 5.944 2.714 12.798 3.965 20.81-3.41l1.693.791-8.211 11.458-35.312-16.273.684-1.486c3.595 1.217 5.561 1.918 7.298-1.831l13.452-29.28c1.84-3.956-.658-5.266-3.34-6.733l.688-1.493zM309.183 668.221l-21.523-4.838.336-1.65c3.99.486 5.923.697 6.866-3.563l7.362-32.689-.125-.034-25.027 35.526-1.767-.398-7.617-41.827-.123-.034-6.777 30.161c-1.021 4.511-.214 6.371 5.089 7.893l-.368 1.615-15.172-3.411.383-1.645c5.146.701 6.199-.094 7.05-3.838l6.949-30.806c.761-3.381-.216-4.563-4.738-5.938l.38-1.615 16.407 3.715 6.078 33.544 19.85-27.724 16.375 3.682-.381 1.619c-3.673-.55-5.804-.884-7.038 4.692l-6.458 28.665c-1.19 5.212.213 5.697 4.358 7.283l-.369 1.615zM347.662 669.625l-23.246-1.006.076-1.645c3.58-.217 6.199-.368 6.383-4.48l1.372-32.17c.198-4.358-2.925-4.634-5.988-4.971l.093-1.67 23.244 1.001-.059 1.673c-3.156 0-6.338-.083-6.523 4.452l-1.398 32.175c-.152 4.23 2.468 4.539 6.14 4.962l-.094 1.679zM364.406 653.567l4.841-16.632 8.076 15.508-12.917 1.124zm34.352 11.096c-3.186.423-4.435-1.741-8.015-8.568l-17.792-33.573-1.873.157-11.563 37.594c-1.538 5.118-2.283 7.465-5.803 8.283l.151 1.679 13.452-1.157-.167-1.646c-2.272.064-5.455.118-5.668-2.38-.105-1.06.746-3.896 2.177-8.829l14.883-1.281c1.129 2.037 3.688 6.764 3.841 8.56.182 2.159-1.004 2.347-5.091 3.042l.156 1.649 21.432-1.859-.12-1.671zM450.167 620.087c-2.542-4.054-8.695-10.12-16.174-7.711-3.278 1.07-6.156 4.083-4.813 8.196 1.098 3.441 2.741 4.423 8.925 5.359l10.799 1.614c2.486.397 8.486 2.503 10.697 9.419 1.811 5.544.243 14.535-11.426 18.28-5.986 1.918-9.536.701-11.502 1.34-1.31.421-1.279 1.674-1.189 2.772l-1.84.58-5.061-15.633 1.845-.578c3.336 5.972 9.294 11.945 17.35 9.354 7.574-2.47 5.897-8.839 5.605-9.659-1.37-4.235-4.826-4.779-9.565-5.424l-4.902-.637c-12.509-1.708-14.26-7.16-15.19-10.085-1.249-3.843-2.057-13.07 9.948-16.972 5.057-1.615 8.695-.485 10.541-1.094 1.476-.463 1.476-1.521 1.401-2.832l1.872-.585 4.465 13.713-1.786.583zM498.478 633.093l-21.008 10.024-.719-1.521c3.095-1.831 5.303-3.167 3.565-6.919l-13.891-29.001c-1.904-3.995-4.769-2.777-7.604-1.615l-.731-1.525 21.009-10.021.714 1.521c-2.773 1.463-5.619 2.896-3.687 6.974l13.894 29.04c1.829 3.838 4.296 2.896 7.725 1.522l.733 1.521zM510.115 625.447c3.017-2.621 4.296-4.05 1.843-7.647l-17.794-26.05c-5.651-1.704-6.64-1.247-7.359-.79l-.941-1.34 11.577-7.922 35.069 10.448.12-.093-11.35-16.634c-2.254-3.315-4.156-4.66-8.835-1.977l-.93-1.373 11.792-8.044.958 1.374c-3.609 3.2-3.073 4.692-1.31 7.34l22.088 32.329-1.521 1.061-44.771-13.07-.094.064 14.978 21.938c2.71 3.99 4.553 4.23 8.926 1.89l.96 1.364-12.476 8.534-.93-1.402zM576.275 575.73l-17.031 15.872-1.128-1.217c2.407-2.686 4.127-4.639 1.309-7.682l-21.949-23.521c-3.002-3.199-5.379-1.188-7.738.766l-1.159-1.188 17.029-15.906 1.13 1.247c-2.196 2.193-4.496 4.422-1.4 7.74l21.949 23.545c2.939 3.083 4.997 1.438 7.875-.876l1.113 1.22zM607.383 525.763c1.31 7.251 1.399 13.89-3.869 20.595-9.614 12.122-23.368 11.975-33.103 4.266-10.604-8.35-12.827-22.332-4.176-33.271 3.703-4.691 9.445-6.669 10.512-8.044 1.126-1.403.396-2.737-.504-4.299l1.127-1.427 12.203 9.656-1.036 1.311c-5.988-1.766-15.538-2.193-20.245 3.745-5.987 7.588.366 15.965 9.202 22.91 3.122 2.503 8.36 6.125 13.223 6.826 5.496.796 9.551-2.738 10.828-4.323 3.216-4.084 4.738-9.236 3.306-17.398l2.532-.547zM608.935 509.035l-10.981-13.404 17.381 2.102-6.4 11.302zm28.578-22.056c-1.463 2.832-3.961 2.649-11.607 1.761l-37.748-4.259-.927 1.615 24.491 30.766c3.366 4.177 4.862 6.095 3.58 9.476l1.434.854 6.654-11.759-1.474-.854c-1.223 1.92-2.957 4.629-5.151 3.383-.928-.546-2.773-2.833-6.046-6.798l7.356-13.034c2.314.27 7.646.825 9.217 1.708 1.887 1.06 1.372 2.13-.351 5.903l1.431.83 10.589-18.797-1.448-.795zM185.379 98.314c-2.772-1.278-5.391-2.712-7.769-4.631.062-.608.349-1.735-.441-1.98l.167.182c1.278 3.047-2.466 1.678-3.899 2.805-3.627-.916-6.781-.427-10.024 1.003-2.499 1.98-6.397 3.627-8.073 7.038-1.688 1.919-1.25 5.365-4.525 5.637-.378-1.186-2.118-1.522-2.118-2.984-1.249-.457-2.407-1.556-3.808-.734-2.496-2.407-5.359.213-7.951-.12l-2.164 2.071c-3.748.062-3.7 4.113-4.795 6.429.21 1.005-.094 2.439.775 3.167 2.115.062 3.519 1.857 5.086 2.68 1.996-.424 1.812 2.623 3.519 1.86-.029 1.462-.457 2.711-.927 3.96-2.197 2.042-3.004 5.026-5.47 6.672-1.144 2.958-5.239 4.783-4.646 8.076.226 1.033 1.966 1.369 3.061 1.673l-.091-.515c2.331-.702 4.554-.126 6.994-.032 2.586-.032 3.393-3.016 5.298-3.931.032-1.767 1.813-3.2 2.181-4.967 1.065-.822 1.841.854 2.405 1.588 1.313 1.612 2.469 4.172 4.113 5.482.289 1.796-1.021 3.443-2.177 4.964.152 1.313 0 2.927.656 4.112 2.741 1.615 4.979-1.065 7.57-.761 1.875.55 3.063 1.615 4.005 3.2.871 2.56 4.589 2.805 4.449 5.21l.655.091c1.568 1.951 4.069 4.327 4.221 7.099.959 1.553 2.68.793 3.896 1.553.872-.67 2.501-.518 2.15-2.012 3.566-2.496 1.6-6.793 1.006-10.113-1.219-2.255-.624-4.783-3.183-6.522.409-.577-.503-1.337-.781-1.706-.971-1.582-1.568-3.408-3.364-4.598-1.934-.213-.916-2.223-2.667-2.591-1.311-1.278-2.542-3.168-1.674-5.055 1.843.881 2.116-1.708 3.551-1.372.791-1.22 2.375-2.499 4.096-3.259 1.433-1.158 0-2.957.655-4.326-1.537-2.255 1.112-4.115 1.311-6.005 1.585-.975.181-3.077 1.705-3.718-.181-1.003 1.159-1.491 1.401-2.281-.272-1.799 1.693-1.919 2.559-2.653 3.473 1.067 1.509-3.2 3.247-4.327-.123-.152-.304-.029-.304-.029-.246-.702.241-.795.624-1.067.151-1.612 1.157-3.286-.505-4.263m-16.667 10.94c-.334.272.198 1.308-.656 1.401.825.243-.026 1.798.231 2.436 0 2.923-.655 5.759-2.194 7.89.106.824-.684 1.679-1.523 2.103-1.553.945-2.832 3.75-5.21 2.984-.775-1.706-1.904-3.136-2.527-4.994-1.19-.763-2.925-2.621-1.937-4.268.717-2.039 1.723-3.715 3.337-5.3 1.034-.546 1.721-2.252 3.242-2.895.977-1.34.885-3.32 2.623-4.417.655-1.706 2.437-.213 3.382.213.959 1.586.272 3.291 1.232 4.847"/><path fill="#E1D9C7" d="M143.456 143.437c-1.217-.792-2.527-.582-3.84-.425-2.176-.886-4.356 1.155-6.854.211-1.509.303-3.063 1.277-4.783.576-2.024.763-3.048 2.744-3.109 4.847.152 1.34 1.372 2.133 2.483 2.407 2.255-1.219 2.911 1.462 4.694 1.492 1.521-.608 2.832.977 4.049 1.434 3.551.366 3.153 5.359 6.766 4.814 2.744.152 5.058 2.68 7.769 1.673 2.118-1.369 1.598-3.868 2.316-5.879-.474-3.168-2.652-4.054-4.524-6.063-.717-2.345-4.282-2.409-4.967-5.087M283.318 56.208c-.766-1.641-2.074-2.799-4.007-2.68-2.118 1.979-5.18-.88-6.702 1.826-1.342.336-2.559.398-3.963.064-2.802 1.524-6.9 1.401-8.728 4.479-1.782.549-3.153 2.436-5.318 2.164-.655-.947-.714-2.164-.682-3.17.624-.304 1.627.246 1.779-1.065 1.937-.152.947-3.443 3.003-3.87.457-2.255.656-4.601-.503-6.551-1.371-1.919-3.094.398-4.677.125-1.479.152-1.4-.885-1.904-1.924-1.813-.667-3.183.734-4.814.977-.688 1.798-3.078.397-3.458 2.316-2.375.822-2.866 3.592-4.467 4.537-.713.062-1.612-.272-1.489-1.097-.29-.608-.746-1.126-.123-1.43-.412-.793-.974-2.042-2.194-2.528-.93-1.552-2.803-.671-4.145-.824-2.864.792-6.106 2.532-6.839 5.852.138 1.978 2.79 2.255 3.566 3.411 2.618.822 1.217 3.198.532 5.028-1.752.545-.532 3.776-3.061 2.648-.277-.121-.596-.211-.412-.304-2.147.733-3.762-2.283-5.759-1.127-1.448.641-2.817 1.524-3.063 3.139.336 1.858.429 4.297 2.56 5.087 2.15-.213 3.487 2.193 5.3 2.834.567 2.285 2.471 2.653 4.177 3.625-.032 1.038 1.965 2.133.791 3.413-2.071.945-2.94 2.348-5.087 3.077-1.813 1.553-4.341 1.495-6.336 2.65-1.31 2.103-4.341.974-5.425 3.475-1.779 1.065-2.697 3.473-3.868 5.271.594.729-.199 2.346 1.34 2.407.807.121 1.158 1.979 1.904.881 2.925 1.401 5.698.427 8.515 2.135 3.215 1.033 5.151-1.342 6.643-3.565-.275-.579-.352-1.311.181-1.799-1.188-1.462 1.159-1.278.822-2.618 3.276-1.038 2.864-4.083 5.701-5.669 1.445-.12 1.506-2.162 2.559-3.136.624-.824 1.369-1.401 2.466-.609.351 1.826.9 3.563-.091 5.298.866 4.115-3.536 4.844-3.87 8.532-1.813 2.071-2.088 4.206-3.598 6.397-1.993 1.158-1.735 3.32-3.426 4.602-1.053 3.717-5.926 2.924-7.45 6.122.062 1.249 0 2.802 1.083 3.536 2.254 3.261 4.844-.977 7.558.061.438-1.219 1.489-2.225 1.963-3.381 1.843-.366 2.407-1.892 3.063-3.2 2.957-.093 3.214-3.963 5.988-4.446 1.963-.672 1.018-3.261 2.771-3.811.032-1.003 1.28-1.553 1.342-2.591l.594.215.213-.61c.793-1.615 1.355-3.625 2.437-5.087-.275-1.158 1.188-1.828.409-2.987.336-1.4 0-3.258.184-5.086-.304-2.864-2.468-5.394-2.27-8.257.928-2.925 3.929-4.021 5.364-6.946.682.429 1.247-.577 1.872-.852 2.329.184 3.016-2.164 5.392-2.468.032-1.522 1.342-.366 1.873-1.369 2.623.819 4.77-2.197 7.359-.336 1.036.032.228-.608.564-1.006.883.854 1.539-.457 2.527.091 3.306-1.036 6.705.948 9.551-1.097.839-.883 2.591-.945 3.246-2.255.536-.972.991-2.194 1.522-3.2-1.4-.885-.713-2.166-.985-3.324m-47.499 17.459a5.245 5.245 0 0 1-2.424 2.344c-1.311-.67-1.22-2.68-2.344-2.952.287-2.103-2.439-3.625-1.614-5.759.179-.093.485 0 .713-.093l-.091-.179-.716-.459c.928-.67 2.27-1.003 3.487-.09 1.434 2.102 1.753 4.965 2.989 7.188m11.927-13.466c-2.118 1.951.152 7.436-4.055 7.587-1.448-2.591-2.1-4.542-2.586-7.315.746-1.097.808-2.618 1.857-3.625 1.781-1.065 2.224-5.025 5.087-3.077 1.478 2.072-1.339 4.142-.303 6.43"/><path fill="#E1D9C7" d="M274.648 75.739c-2.527-.576-4.861-.272-7.327-.152-2.999-1.647-5.71 2.345-8.714.184-2.422 2.375-6.079 2.039-8.974 3.381-2.039 2.161 1.266 3.928 1.831 5.665 4.464.974 8.029 3.87 12.643 4.022 1.083.761 3.048.093 3.718 1.036l.957-.639c.383.305 1.62.241.965 1.004 1.72.485 3.241 1.035 4.841 1.828.597.729 1.372 1.37 2.302 1.217l-.215.582.184-.093.137-.304c1.205.456 2.086 1.799 3.612 1.86.714-.062 2.647-.214 2.91-1.311 1.551-.457.591-2.533 1.826-3.109 1.006-4.967-3.929-6.945-5.958-10.814-.868-.853-2.211-3.749-4.738-4.357m-16.377 4.205c-.409.211-.378-.304-.471-.52 1.219-.55 1.556-1.462 2.805-2.04-1.024.488-.583 2.529-2.334 2.56m13.253.486l-.395-.304.214-.123c.213-.09.09.213.181.427M383.721 43.627c-1.797-.913-3.871-.945-5.696-.245-1.6.429-3.445 1.128-4.557-.486.033-4.329-4.996-3.229-7.281-5.3-1.113-1.158.699-1.799 1.159-2.714.441.213.47-.457.47-.945h.446c1.582 2.805 3.425-.638 5.694.304.472-1.156 1.846-.243 2.317-1.369.684-2.712-2.027-4.815-3.627-7.099h-1.37c-.901 0-1.845.67-2.531.915-1.581-1.401-2.953.427-4.767.184-2.741 1.583-5.713 2.712-8.486 3.837-1.128 0-2.267-.031-3.185-.947l.688-.424-.442-.699-.245.667c-.212.246-.212 0-.438-.211-1.145-.488-1.829.424-2.514.64-2.073.7-1.845 2.741-2.53 4.354-1.813-1.612-3.413-4.385-6.154-5.298-2.712.667-5.926 1.308-7.295 4.081-2.744-.488-4.8 1.553-7.327 2.439-1.813 1.398-3.87 0-5.242-1.129-2.756.213-5.242 1.553-7.556 2.896-.213.942.211 1.615.474 2.314 3.394 3.413 7.021 6.154 11.347 7.099 1.372.945.442 2.284.442 3.656-1.158.67-1.372 3.197-3.428 2.741-2.969 1.342.869 4.57-2.103 6.368-2.527 2.012-2.559 5.912-5.953 6.795.439 2.743-2.773 4.782-3.934 6.611-3.64-1.614-5.269 1.799-7.767 3.381 0 .913-.031 1.799.442 2.744.685.456 1.583 1.369 2.711.941.685 1.374 1.843 2.958 1.814 4.542 0 2.282 2.496 1.857 3.87 2.527 2.056.457 2.297-1.798 3.64-2.468 2.527.915 2.314-2.528 4.159-2.744 1.843-3.408 1.188-9.109 5.058-11.364 2.27 2.744.655 6.614 2.682 9.386.243.214 1.369 1.126.928 1.369.915.457 2.285-.67 3.186-.456.682-.214.928-1.126.682-1.798.947-1.583.718-3.44.976-5.239.427-.488.901-1.615 1.796-.913 2.53.243 2.319-3.168 4.815-2.5.93-.881 3.428-.852 2.53-3.168.243-1.826-2.729-1.615-2.027-3.897.243-.918.687-2.044 2.056-2.255-.441-1.831 2.53-.913 2.088-2.957 1.583.246 3.654-.456 4.997.916.687 1.401 1.585 3.443.426 4.813-.716 4.785-1.187 9.811-3.96 13.681-.214 1.585-1.846 2.498-1.585 4.08-.03 3.414 3.398.702 4.981 1.404v-.917c3-4.326 8.272-7.95 7.616-14.347 1.37-2.01 1.663-5.242 1.403-7.526.26-1.343-.185-2.499-.185-4.081.213-.461.213-1.831 1.158-1.374l-.226-1.159c.911-.21.226-.635.682-1.337.441 0 1.13-.458 1.39 0 .21 1.127 1.34.486 1.796.486-.456.426-.456 1.128.228 1.371-.471 2.253-.471 5.24-1.188 7.495 2.06 1.403-.029 4.355 1.584 5.94-.714 4.326-.96 8.196-.092 12.339.23 1.83-2.057 2.041-1.841 3.869 1.596 1.371 1.338 3.41 3.411 4.569.684-.211 1.34.246 1.797.702.687-.246 1.6.032 1.843-.913 1.6.699 2.06-1.343 3.659-1.126-.656-3.168 2.297-5.668 1.641-8.868-.895-1.158 0-2.527.262-3.657-1.813-2.984.716-5.696-.196-8.897-1.113-1.826-.428-3.868-.428-5.728-.884-2.282-1.1-5.025-.854-7.523 0-.883 1.129-1.372 2.071-1.129.428.246.428.916.654 1.129 1.145-1.585 2.956.947 4.802.974 1.813-.667 4.34-.425 5.024-2.955.029-2.284.243-4.325-.885-6.397m-52.13 20.016c-1.158.214-.9-1.371-1.342-2.255.231-1.86 2.5-1.615 3.656-2.498.902 2.256-.944 3.382-2.314 4.753m29.982-17.152c-5.012 2.254-7.924-8.471-12.539-2.805 0 1.798.441 3.658.441 5.454-.687 1.828-2.285.427-3.656.916-1.37-.032-2.302 1.583-3.899 1.34-1.843 1.583-3.609-2.104-5.455.182-.226-.214-.226-.214-.471-.214-.211.427-.211.67-.684 1.588-1.159 1.369-2.972 1.794-4.587 2.039-.655-.245-.655-.915-1.128-1.372.687-.243.474-1.615 1.374-1.37-.456-.488 0-1.128 0-1.617.471-.425.257-.457.257-.881h.213l.244-.246c-.457-.457.687-.67.687-1.126 1.126.457 1.597-.915 2.284-1.371.687-.883.931-2.255 1.615-3.171 0-1.612-1.111-2.738-.427-4.324.901-1.614 2.271-.701 3.9-1.614 2.498-.427 4.296 2.528 6.824.515.687-.913 2.316-2.952 2.758-.211 1.585.667 2.481 2.744 4.295 2.771.916.918 1.372-.913 2.056 0 1.813.918 1.845-1.126 3.445-1.337 0-.489.211-.702 0-.918.897-.241 1.825-.21 2.514.216-.244 1.372 1.125 3.229.196 4.598 0 0-.473 0-.473.214.899.702.216 1.799.216 2.744m4.34-.213c-.443-.211 0-.699 0-.699.47-.214.47 0 .686 0 0 .699-.216.487-.686.699M428.691 64.375c1.521-.579 2.438 1.858 4.022.55 1.063.945 1.46-1.097 2.254-1.767.624.304 1.738.027 1.904-.854.775-.672 2.057-1.857 3.106-1.371.975-1.095 2.649-2.101 2.788-4.052-.975-2.925 1.401-4.847 1.463-7.831l-.352-.886c-3.455-4.019-7.145 2.591-11.287 1.251-1.723 2.194-3.868 4.235-5.209 6.672-2.119.272-1.873 3.136-3.154 4.294-.807 2.409 3.156 2.44 4.465 3.994"/><path fill="#E1D9C7" d="M481.413 115.984c1.159-1.46 1.679-3.747.959-5.545-.561-1.493-2.144-.214-2.893-1.311-2.026-1.615-.626-4.233-.411-6.398 1.6-1.311.26-3.381.288-5.119 1.024-1.798 1.739-3.961 1.145-5.971-.488-2.226-2.177-2.986-3.931-3.501-1.25-.064-2.531.608-3.123 1.369 1.096 3.717-1.372 7.617-1.143 10.451-1.31 2.435.927 4.689-.913 7.097-1.053 1.249-2.057-.913-3.366-.243-2.089-.916-3.643-1.372-5.712-2.285-4.056-3.809-10.069-.977-12.157-6.398-.947-2.927 1.399-5.394 3.366-7.008.029-1.735 1.613.243 1.781-1.218 2.589-1.342 4.738-3.354 7.57-4.115.779-.641.535-1.737.383-2.559-.535-2.741-3.308-3.744-5.332-5.39-.08-1.495-1.937-1.831-1.69-3.505.501-2.223 3.03-.608 4.112-.883 1.007 1.188 1.934 1.858 3.687 1.858.896-.334 2.999.61 2.896-1.431.047-1.74-1.463-2.896-1.829-4.294-2.026-1.679-5.712-.064-6.459-2.896.243-1.126 2.528-2.349 1.521-4.054.504-2.773 3.52-1.188 5.304-2.408l.257.611c.185.091.366-.307.597-.216.212.093.713.063.746.582 1.553.456 2.8 1.006 3.869 1.951 1.203 4.049-4.126 1.43-4.813 4.11-.475 1.039.258 1.617.715 2.319 1.539.425 2.652 2.435 4.69 1.825.368 1.401 1.8-.184 2.241.489l.47 1.217c.567 1.006 1.554.459 2.361.307 1.312-.67 3.157-.366 4.785-.641 1.111-.246 1.052-1.251 1.432-2.071-.685-1.311-.5-4.51-2.651-4.691-.182-1.343-1.964-2.378-1.401-3.629l.091-.211-.225-.094-.093.216c-1.282-3.291-5.393-4.145-7.831-5.973-1.189.459-2.56-.395-4.081-.336-.868-1.37-.305-2.618.092-4.171.807-2.408-2.746-2.224-2.148-4.724-.534-.456-1.037-.456-1.19-1.278-2.47-.579-4.616-.792-6.839-2.01-1.08.243-2.516.608-3.168 1.583-1.067 1.767 1.34 2.591 1.082 4.206.684 1.308 1.475 2.923 1.033 4.476-2.144 1.523-5.206-.608-7.523-1.613-1.645-.245-2.18 1.554-3.276 2.283l.625 2.533c1.25.059.913 1.4 1.219 1.793-.563 2.989-2.896 3.688-4.859 5.332-1.661 1.524-5.65 1.495-4.724 4.39.655.82 1.903.852 2.591.395 1.568.943 4.341-1.31 4.557 1.553.197 1.829-1.616 2.499-2.806 3.476-.896.331-1.72-.032-2.742.026-1.097.763-2.191-.699-3.306-.457-1.78.673-3.899-.76-5.835-.333-2.434-.091-5.026-.518-7.112-1.948-1.342.179-2.909-.764-4.311-.398-1.905 3.136 2.254 4.479 2.878 7.006 2.771.52 3.795 3.199 6.581 3.199 1.021-1.798 2.956.062 3.489-1.705 1.463.64 2.938-.456 4.586-.213.623.271.838.883.563 1.491-2.179 1.036-4.082 4.206-7.178 3.809-3.958 2.223-8.604 1.401-12.627.397-1.323-1.615-3.152.336-4.689.395-2.241 0-3.672-2.375-5.455-3.442-1.463-.611-3.183-.152-4.053-1.036-.563.761-2.025.12-2.816.761-1.617.792-.369 3.077-1.465 3.838l.216.093c.196-.397.503-.03.623.275-.991 2.8 3.003 2.832 3.596 4.844 2.998-1.159 4.739 1.128 7.325 2.041 1.968.609 3.992 0 6.019 1.645 1.007-.03 2.01-1.094 2.818-.763 1.584 3.232 4.174-.363 6.291 1.067 1.538.427 2.758-.029 4.008.521.93-1.588 3.047-.152 3.366-1.983 1.433.123 1.553-1.795 2.864-1.98 2.68.702 2.878-2.466 4.218-3.867 1.342-.184 1.799-1.19 2.455-2.133 2.437-.459 2.819-3.536 4.372-5.334 1.537-.059 1.753-1.706 3.473-2.191 1.173-.457 1.493 1.158 2.301 1.005.504 2.254-1.997 3.352-2.652 5.329-3.367 4.236-6.047 9.782-8.485 15.203-.272 2.348 2.212 3.472 3.095 4.847 2.956 1.828 4.616 4.814 8.333 5.484 1.918.09 3.548 1.553 5.421 2.375 2.529 2.135 6.142 3.015 8.698 5.119 2.469.091 4.465 1.217 6.579 1.431 1.282 1.067 2.288 2.254 2.625 3.656.47.702 1.813 1.039 2.493.608.685-2.679 4.128-3.653 3.562-6.914M454.3 74.765c-1.527.062-3.34.761-4.74-.611-.592-2.012-2.086-3.686-1.369-5.847.456-.55 1.994-.611 1.966-1.647-.352-.883 1.368-1.403 1.217-2.191.459-1.039 0-2.255 1.083-3.019.229.091.623.307 1.036-.062 1.02.489.06 1.554 0 2.255-1.036 2.314-4.311 4.084-2.652 7.099 1.646.214 2.239 1.708 3.672 1.861.226.576.562 1.489-.213 2.162M505.94 120.129v.304c.656-.334 1.785.456 2.438.122 2.409-.216 4.963-1.249 6.063-3.656 1.856-2.621 3.106-5.575 5.665-6.917 1.721-1.796 3.599-5.086 6.369-4.022 4.22.58.947 6.613 4.995 7.646 1.113-.486 2.118 1.434 3.399.094 1.159 1.433 3.092 1.705 4.858 1.187 2.253-.032 4.159-2.01 5.745-3.352.471-.485 1.278-.03 1.307.64 2.104.424 2.973 2.832 4.132 4.268.807.152.774-.795.927-1.006l1.466.793h-.308c-.472.485-1.463.213-1.432 1.185 1.461.125.518 2.076 2.148 2.045-.321 1.308.837 2.07.868 3.352-1.277 1.338-3.215.729-4.676.609-.688-2.255-3.582-2.499-4.922-4.449-1.78-.731-3.975-3.779-5.179-1.158.183 1.767.549 3.688 2.328 4.478.383 2.226 2.772 1.706 4.253 2.803 1.144-.182 1.798 1.404 2.772 1.404.501.457 2.437.091 1.811 1.401 1.282-.336 1.814 1.096 2.926.913 1.479.12 2.057-1.492 2.683-2.467.623-.335 1.63-.031 2.254-.701.152.488 1.312.641.989 1.615l.322-.366c1.31.304 2.437.761 3.579.913v.307c1.476 1.097 2.467 2.68 4.399 2.984.688 1.249 2.122 1.068 2.976 2.194 1.794 1.097 3.016-1.188 3.836-2.346.597-1.615-1.189-2.04-1.539-3.35-.837-.793-.062-2.255 1.097-2.44.277-.974-.06-2.255-.563-3.045-1.936-.305-3.58-1.22-5.06-2.619-.091-4.238-4.888-1.862-6.397-4.571-.865-3.717 1.278-9.231-3.136-11.548-5.181-1.828-2.471 5.209-5.026 6.854-1.936-.272-4.054-1.673-5.866-3.41-.033-.974-.214-2.101-1.036-2.864-.989-.638-1.813-1.462-3.076-1.067-.946 1.919-2.85 3.262-4.908 4.452-1.627.027-3.368 1.49-4.995.241.29-1.615-.9-3.654.688-4.997 2.25-1.369 5.271-1.887 7.585-.336 1.43.125 2.711-1.186 3.989-1.826.775-1.158-.534-2.436.09-3.75-.426-4.478-4.951-5.359-7.599-7.891-4.495.397-7.374-5.178-11.899-5.392-7.207 1.585.975 6.582.229 10.331.52 2.407 3.152 3.654 4.919 4.689.033.366.352.974.033 1.005.35.305-.123 1.127-.429 1.431-1.311.368-2.559 2.01-4.037 1.222-1.493-2.714-2.68-5.426-5.132-7.468-2.47-1.065-3.184 2.317-4.464 3.32-2.528 1.647-3.093 5.853-6.001 6.886-2.303 5.06-9.506 7.955-11.321 13.499 1.01 1.582 3.097 2.009 4.863 1.827m57.479 1.065l-.444 1.769c-1.278.333-2.559 1.337-4.021.576-1.155-.792.444-1.43.094-2.407 1.276-.698 3.365-.881 4.371.062"/><path fill="#E1D9C7" d="M558.438 168.571c1.401-1.798 1.826-3.931 1.963-5.698.624-1.308.749-2.439 2.211-2.922 2.375-1.19 1.521-3.597 3.121-5.244-.383-1.946-2.469-1.735-3.929-2.496-1.6 1.006-3.366 1.521-4.132 3.288-3.196.734-4.415 4.327-7.296 5.669-.303.304-1.31.029-1.614.333-1.127.851-2.438-.091-3.565-.547-1.489-2.743-4.143-5.271-7.234-6.002-.333-.974-.989-1.583-1.813-2.071-1.616-.277-2.423-1.401-4.085-1.982-2.588-1.247-1.187-4.022-1.097-6.123 1.936-.67 2.699-3.106 5.119-3.015.166.152.503.152.319.304 2.272.611 5.061 1.675 6.613-.579.272-1.646-.383-3.261-.898-4.691.775-1.46-1.189-2.408-.076-3.563.44-1.767 1.598-.336 2.406-1.495 1.128 1.129 2.119 3.016 3.9 2.53 2.467 1.067 2.498 3.958 4.188 5.877.779-.211.807.766 1.462 1.07.475.152 1.16 1.126 1.617.333 1.127.427 1.75.123 2.56-.731 1.036-4.054-2.593-7.526-5.835-8.743-3.779-2.317-7.326-4.206-11.107-6.216-4.553-2.834-9.139-4.967-13.221-8.29-2.438-.12-4.111-3.96-6.671-2.282-2.533 2.314.866 3.686.624 5.94 1.019 3.2 4.204 1.858 6.32 3.259 1.814.457 2.973 1.583 4.279 2.5.305 0 .623-.641 1.127-.184v.336c-3.382 1.186-7.737.153-11.452.7l-2.287-.579c-4.83.426-9.856-.945-14.685-1.799-1.967.032-3.929-1.858-5.833-.211-.78 1.156-1.222 2.618-1.037 4.052 1.31.944.383 2.893 1.997 3.533.652-.032.971-.032 1.6-.366.987 0 2.084-.852 2.587.275.396 2.56 2.926.913 4.557 1.188l.503.457c1.278 0 2.39-.184 3.698-.516 1.436-.216 2.136 2.375 4.069 1.004 1.553-2.255 4.021 1.036 6.109-.123 1.158.488 2.744-.518 3.871.275l3.714-.275c1.585-.67 3.048-.854 4.326-.55.534 1.131-.622 1.615-1.05 2.439-3.215 1.036-6.094 3.32-8.776 5.18-1.276 1.006-1.047 3.077-2.023 4.384-1.34 5.698 3.273 9.445 6.73 13.436 1.312 1.587 3.445 2.319 3.811 4.604 2.283 1.217 3.306 4.113 5.469 5.514 1.965 2.224 4.419 4.599 6.259 7.31 1.479 1.403 3.414.094 5.351.032 1.583-.032 2.36-2.133 3.99-2.162 1.553-1.981 4.582-3.471 3.246-6.367m-20.034-39.76c0-.667.12-1.127-.352-1.583.319-.032.823.456.976.915-.319.331.334.636.501.788-.317.641-.622.032-1.125-.12"/><path fill="#FFF" d="M294.682 573.443l-27.178-8.587.501-1.591c8.395 2.743 9.415.275 10.696-3.778l7.951-25.104c.535-1.614 1.448-4.505-1.372-5.388-1.021-.34-3.747-.34-6.488-.281l.564-1.673 20.502-1.312 1.251.395-11.808 37.171c-1.401 4.358-1.308 6.312 5.864 8.6l-.483 1.548zM326.367 542.913c.501-5.424.914-9.688 5.529-9.291 4.677.491 5.424 4.814 4.145 18.219-.123 1.584-.93 5.001-1.249 6.061-.123.555-2.209.701-3.428.579-5.211-.516-5.927-5.782-4.997-15.568m-14.564 35.158c22.896.093 34.871-11.969 36.058-24.342 1.568-16.362-8.605-21.23-15.403-21.875-13.631-1.31-17.606 10.023-17.943 13.713-1.126 11.695 7.114 15.082 12.326 15.568 1.37.152 2.496.177 3.686.088 1.112-.029 2.209-.304 3.396-.731-5.089 12.524-14.257 15.174-21.967 15.782l-.153 1.797zM390.88 576.672l-31.409 3.593-.184-1.556c10.893-13.162 18.996-23.18 18.097-31.194-.228-1.918-2.227-8.563-9.994-7.646-1.735.182-6.397 1.124-8.516 7.127l-2.116.279c1.066-4.058 4.372-14.566 15.036-15.783 4.675-.555 14.228.79 15.417 11.087.213 1.982.807 7.131-6.962 15.543l-11.014 11.877 11.423-1.306c7.982-.951 8.576-1.679 10.165-6.552l1.81-.182-1.753 14.713zM405.948 532.159c-.898-2.65.592-5.997 4.127-7.224 5.332-1.827 7.953 2.443 9.077 5.728 1.312 3.901.567 5.914-.438 8.477-.807-.096-10.728-.915-12.766-6.981m4.66-9.506c-11.547 3.9-14.518 11.063-12.462 17.094 1.812 5.359 7.771 7.769 14.075 8.652-4.339 2.99-9.441 7.554-7.082 14.592 2.406 7.16 10.95 8.441 18.723 5.82 10.328-3.504 15.22-10.783 12.475-18.891-2.023-6.032-8.164-9.021-15.506-10.207 3.592-2.528 8.62-6.822 6.78-12.305-1.253-3.72-6.094-8.441-17.003-4.755m3.213 37.295c-1.628-4.756-.788-7.283.396-10.91 5.898 1.25 11.517 2.469 13.301 7.77.596 1.702 2.559 7.586-3.841 9.75-4.676 1.58-8.27-1.983-9.856-6.61"/><path fill="#155F8E" d="M307.813 443.378l21.556-22.791 53.88 50.573c6.078 5.762 6.216 15.544.243 21.814-2.771 2.99-10.814 11.426-10.814 11.426s-7.74-7.342-10.984-10.414l-53.881-50.608zM324.644 221.035c-6.93-6.827-7.617-17.369-1.521-23.553 2.712-2.741 11.014-11.18 11.014-11.18s8.699 8.592 12.537 12.369l48.639 48.503-22.026 22.362-48.643-48.501zM355.112 287.847l-23.309-22.026-21.583 22.85 23.307 21.994zM353.009 364.806l-23.304-21.993-21.587 22.846 23.336 21.996zM392.297 323.219l-23.29-22.028-21.603 22.821 23.308 22.03zM391.019 400.969l-23.308-22.023-21.587 22.844 23.339 21.997z"/><path fill="#1A77A8" d="M402.107 277.977c6.672-7.07 6.992-17.608.687-23.582-2.804-2.65-11.41-10.755-11.41-10.755s-8.393 8.898-12.111 12.795l-75.97 80.465c-6.669 7.038-6.993 17.609-.684 23.577 2.972 2.778 11.484 10.759 11.484 10.759s8.485-9.05 12.037-12.795l75.967-80.464zM401.558 203.607c6.462-6.856 6.613-17.246.324-23.185-2.82-2.682-11.428-10.787-11.428-10.787s-8.148 8.654-11.698 12.431l-73.657 77.965c-6.456 6.854-6.625 17.243-.316 23.215 2.97 2.771 11.484 10.724 11.484 10.724s8.24-8.746 11.668-12.402l73.623-77.961zM400.829 355.726c6.672-7.068 6.99-17.61.686-23.582-2.836-2.65-11.411-10.754-11.411-10.754s-8.396 8.898-12.11 12.8l-75.969 80.458c-6.674 7.038-6.991 17.609-.687 23.583 2.97 2.772 11.487 10.757 11.487 10.757s8.485-9.05 12.034-12.794l75.97-80.468zM399.869 431.619c6.459-6.856 6.61-17.245.319-23.188-2.85-2.676-11.425-10.783-11.425-10.783s-8.151 8.623-11.73 12.397l-73.625 78c-6.457 6.856-6.623 17.245-.319 23.183 2.972 2.773 11.487 10.754 11.487 10.754s8.196-8.742 11.668-12.396l73.625-77.967z"/></g></switch></svg>