<svg xmlns="http://www.w3.org/2000/svg" xmlns:xlink="http://www.w3.org/1999/xlink" width="700" height="700" viewBox="0 0 700 700"><defs><path id="a" d="M356.3 390.8L352 395l-4.3-4h8.6m-144.9 96.6c-.9-.9-1.3-2.4-1.3-4.5 0-14.6 20-49.8 58-95.7 22.1 2 44.7 3 65.7 3.4l11.3 10.7c-63.2 58.2-112 87.7-128.8 87.7-2.2 0-3.9-.5-4.9-1.6m147.5-86.1l11.3-10.7c21-.4 43.6-1.5 65.7-3.4 38 45.9 58 81.1 58 95.7 0 2.1-.4 3.6-1.2 4.5-.9.8-2.4 1.3-4.6 1.3-17.9 0-67.2-30.5-129.2-87.4m-83.4-22.9a985.7 985.7 0 0 1 22-24.7A853.9 853.9 0 0 0 321 378a71.3 71.3 0 0 0 3 3 891.6 891.6 0 0 1-48.4-2.5m107.7-.5a1020.8 1020.8 0 0 0 23.4-24.2c7.8 8.5 15.1 16.8 22 24.7A892.6 892.6 0 0 1 380 381a160.2 160.2 0 0 0 3-3m-230-31.1c0-10.6 40.7-24.3 111-30.8a972.2 972.2 0 0 0 27 30.7 980.1 980.1 0 0 0-27.2 30.8c-70.1-6.6-110.8-20.2-110.8-30.7m259.9-.1c9-10 18.2-20.3 27-30.7 70.2 6.5 111 20.2 111 30.8 0 10.5-40.7 24.1-110.9 30.7-8.4-10-17.5-20.3-27.1-30.8m-137.5-31.6c15-1.2 31.2-2 48.4-2.5a225.8 225.8 0 0 0-3 3 941.8 941.8 0 0 0-23.4 24.2 938.5 938.5 0 0 1-22-24.7m107.7.5a575.9 575.9 0 0 0-3-3c17.2.4 33.4 1.3 48.3 2.5a993.8 993.8 0 0 1-22 24.7 1065.9 1065.9 0 0 0-23.3-24.2m-45.4 65.6l-10.2-10a949 949 0 0 1-23.6-24.4 947.5 947.5 0 0 1 23.6-24.5 815 815 0 0 1 10.2-10 1035.5 1035.5 0 0 1 28.5 0l10.1 10a1105.7 1105.7 0 0 1 23.7 24.5 1055.7 1055.7 0 0 1-23.7 24.4l-10 10a1039.5 1039.5 0 0 1-28.6 0m14.2-82.5a265 265 0 0 0 4.3 4h-8.6l4.3-4m-140.6-92.6c9-8.9 62 20.1 133.7 86.1A1732.8 1732.8 0 0 0 334 303c-21 .4-43.7 1.5-65.7 3.4-45.1-54.3-64.3-92.7-56.8-100.2M370.2 303L359 292.3c71.7-66 124.8-95 133.8-86 7.5 7.4-11.7 45.8-56.8 100.1-22-2-44.7-3-65.7-3.4m-18.1-17c-57.4-52.6-128.3-105.6-147.4-86.5-15 15 13.9 61.2 52.2 108-60.2 6-113.3 18.3-113.3 39.4 0 21 53 33.3 113.1 39.4-34.7 42.5-56 78.5-56 96.7 0 4.7 1.3 8.5 4 11.2 19.1 19.2 90-33.9 147.3-86.4 59.1 54.5 112.6 90.5 136.1 90.5 4.8 0 8.6-1.4 11.3-4.1 2.7-2.7 4-6.5 4-11.2 0-18.2-21.3-54.2-56-96.7 60-6 113-18.4 113-39.4 0-21.1-53-33.5-113.2-39.5 38.3-46.7 67.1-93 52.2-107.9-2.8-2.7-6.6-4-11.2-4-28 0-87 45.4-136.1 90.4"/><clipPath id="b"><use xlink:href="#a" overflow="visible" width="100%" height="100%"/></clipPath><radialGradient id="c" cx="166.3" cy="692.2" r="31.2" gradientTransform="matrix(5.8381 0 0 -5.8379 -617.6 4389)" gradientUnits="userSpaceOnUse"><stop offset="0" stop-color="#e4dfbe"/><stop offset="0" stop-color="#e9e4ca"/><stop offset=".1" stop-color="#f3f1e2"/><stop offset=".2" stop-color="#faf9f3"/><stop offset=".3" stop-color="#fefefd"/><stop offset=".3" stop-color="#fff"/><stop offset=".7" stop-color="#fff"/><stop offset=".7" stop-color="#fefefd"/><stop offset=".8" stop-color="#faf9f3"/><stop offset=".9" stop-color="#f3f1e2"/><stop offset="1" stop-color="#e9e4ca"/><stop offset="1" stop-color="#e4dfbe"/></radialGradient></defs><path d="M700 350c2 137.6-86.5 270.4-213.8 322.5-125 54.4-280.2 26.3-377.7-69.1-98.8-91.8-134.8-243-88.7-369.7C64.4 102.4 193.3 5.7 332 .5c134.8-8.8 269.5 69.4 329.7 190.2A348.9 348.9 0 0 1 700 350z" fill="#044d83"/><path d="M591.9 349c2.3 113.5-86.4 219.4-198.3 237.3-107.7 21.4-223.8-41.7-264.8-143.4-44.5-100.6-8.3-228.3 82.6-290.3 90.2-66.7 226.1-57 305.8 22a240.8 240.8 0 0 1 74.7 174.5z" fill="#e1d9c7"/><path d="M264.7 152.6c3.3 3.4 17.6 12 13 25.7 12-2.4 54.3-6.4 28 7 1.5 5.6-33.8-1.8-27.4 20.4-8 12.1-5.1 32.9-5 38.6 11.3-1 20.8-2.4 37.1-6-5-14.6 7.7 1.3-3 11.5-12.5.8-39.4 25.6-42.1 5.4-8.7-12.9 1.6 27-11.4 7.6 13.2-16 9.7-22.7 13.3-39.8 9-9.6 2-42.5-21-23.3-13.3-10.3 22.8-9.6 20.3-26-5.2-3.5-15.4-30.9-1.8-21.1zM213 257.5c30 16-39.7-6-21.8 23.6 10 25.8-12 12.7-10.1-7.6-4.7-13-47.7.3-14.6-13.8 16.4 0 28-6 46.5-2.2zm16.3 6.2c2.8 19.5-1.9 39.7-16.3 52.2-9.5 13.8-51.5 36.8-22.7 11 1.6-10.8 1.5-40 6.6-16-8.2 24.4 23.2-2.4 22.7-16.5 3.2-11.4 5.5-29 9.7-32.4z" fill="#b4a487"/><path d="M204.4 280.7c8.8 19.7-18.2 13.9 0 0zm-13.8 20.7c-2 4.6-3.2-5.1 0 0zM207 448.2c7.1-9 60.3-28.7 21.1-17.8-16.7 12.7-40.4 8.5-16.2-8 13-4.7 42.2-20 9.6-8.4-20.3 17.7-28.9-8-6.8-10.3 16.7-2.9 34.7-18 9.3-6.3-10.5 5.4-49.2 2.4-21-9 34.2-22.1-19.7-24.7-35.5-17-2.2 9.2 31.7-6.6 17.4 17.7-11.8 13.1-19.9 34.2-14.5 45.4-6 28.6 52.2 5.9 23.8 33-12.3 12-41.7 38.6-10.3 24 4-16.3 38.3-11 36.7-16.7-30.8 1.8-16.1-11 3.7-12.7 29.3 1.4-34.6-15.2-18.7-14.6zM194.5 374c20.3-4 15.5 10.6-4.4 14.1l2.9-6.5zm-1.9 69.3c-20 13-22-24.2-1.5-15.3 9.5-13 8.2 15.2 1.5 15.3zm-4.3-20.4c-28.3 12-4.5-39.1 9.4-13.7.1 8.2 3.8 15.2-9.4 13.7zm95.9 60c-15.8 5.7-24.6 11.2-18.5 28.3-4.5 17 43.4-9.7 12.7 8.9-14.3.4-9.8 16-1.8 23.3 12.7 4.1 36.8-13.8 13.4 6-15.3 4.1-29.3 21.3-45.7 8.5 17.4-2 27.8-26 15.2-35.6-7.8 7-25.1-2-1-4.7 6.1-14.5-.2-27.4-15.3-26.8 12.7-4.4 27.5-6.5 41-8zm201.5-250c-7.7-1.6-26.8 2.8-38.6 5.8-22.1-5.8 8-12.3 4.3-26.8 21.8 7.8 32-16.1 30-36.3 7.4-22.4-16.2-28.6-28.7-18.3-13.4 3.7-26.8-4-32.2.4-8.6-16 .7 6.2-12 8.2.6 10.9 13.8 21.5 18.8 6.8 14.2-6.3 59-19.6 48.9 16.6 1.2 19.8-33.4 6.8-37.5 13.9-7.5 8.4-10.9 25.3-11.4 37.8-11.3 20.1 15.2 3.5 24.5 2.6 9-2.6 22.5-7.3 37.6-8.4 1.5-3-2.5-1.4-3.7-2.2z" fill="#b4a487"/><path d="M461 234.1h-.7zm-1.2.2c1.7.3-1.6-1 0 0z" fill="#b4a487"/><path d="M461 234.1c12.6-.7 15.7-6.2 0 0zm-19.2 4.7c41.7-7.3-3.1-8.7 0 0zm68.3 33.8c-27 1.9-21.6 26.2-12.7 47.3 27.1-19-6.5 13.1 8.8 26-.8 18.7-9.3 44-26.4 58 12.7-17.2 27-65.5 11.2-73.2-7.5 17.5-45.5 51.3-20 18 10.5-7.8 11.4-25.4 18.9-40.6-5.5-12.5-35.1 9.9-38.4 22.2-5.1 8.4-3.3-21.4-2.1-21.7 2-14.8 49 .5 32.2-23.4-7.2 6.2-38.3-.2-14-5.8 13.8.4 30.4-9.9 42.5-6.8zm-10.3 138c10.2 14.4-7.6 13.8-7.2 12.6-16.9 4.1-12.1 28.1 8.9 22.2 3.4-15.4 12-5.4 9 3.7 0-9-26.9 2.6-4.3-2.5 10.5 7.1-32.5-1.2-15.7 17.2 28-2.4 1.5.5-3.2 4.7-14.3 35.1 34 9.9 33 15.6-13 11.7-40.7 20.8-37 22-6.5 8.6-48.8 6.1-27.4-1.7 13-1.8 22.7-13.3 27.1-26-3.5-1.6 2.6-20.6-11.8-21.3-16.1 15.3-28-20.8-15.2-19.4 11.1-11.3-7 26.6 13 11.2 21.5-3-.6-19.2-8.2-23.8 5.2-4.8 16-.4 23.1-2.5 7-1.7 15-5.5 16-12z" fill="#b4a487"/><path clip-path="url(#b)" d="M143.6 180.4h416.8v333H143.6v-333z" fill="url(#c)"/><path d="M78.1 485.8c19.3-7.7 16.6 5.3 5.3 9.6l-5.3-9.6zm3.7 36c2.1-13.1 15.9-22.7 23-34.2 14-13.8-13.7-4.8-21.3-5.2-13.7 1.7-33.8-1.7-17 11.5 6.6-24 24.7 20.4 4.4 11.4 3.8 4.5 6 15.9 10.9 16.4zm36.4 36.5c-44.2.5-18.5-68.6 14.4-41.6 10.5 11.6 18.5 22.6 1 26 20-54.8-70 5-15.3 13l-.1 2zm17.1 6.7c15.8-13.4 17.4-.2 8 7.5l-8-7.5zm14.9 32.9c-2-13 7.9-26.5 11-39.6 8.8-17.6-14.5-.1-21.8 1.9-19 3-24.3 16.7-14.8 13.4 11.3-20.3 26.2 16.5 10.1 12.2 5 3 10.8 13 15.5 12.1zm39.6-18.5c34.7 3-25.6 58.6-15.2 22.9l15.2-22.9zm-35.5 24c14.3 10.6 37.2 26.6 50.3 5.5 14.3-19-12.8-38-26.3-41.6 6.4 11-11.4 22.3-15.4 33.1-1.8 7.4-7.1-1.7-8.6 3zm62-12.8l35 16c-4.8 30.4-16-26.2-26.2 4.8-3 14.9 22.6-8.3 7.4 13.8-4.7 20.7-8.3-22.4-15.6 4-7.8 24 39.9-4.6 16 18.5l-35.3-16.3c12.3-.6 13.6-20.5 20.4-30.3 4.6-5.2-1.9-7.1-1.6-10.5zm92.9 77.6c-16.7-4.5-25.3-1-13-15.8.2-6.2 11-36.4 1.3-20.5-7.6 9-13.3 22.9-22.2 28.7-2.6-14-5-28.1-7.7-41.9-1 12-9.7 25.9-4.9 36.8 9.3 5.3-27-.9-5-6 1-12.7 11.7-29.5 2.7-38.4 15.5-.8 19.6 9.4 19.9 23.2-.1 22 8 7 15.2-3.6-.7-16 33.5-6.8 17.3-3.2-1 12.4-13.2 30.3-3.2 39.1zm38.5 1.4c-17-1.7-26.6 3.9-16.6-13 1-11 2-30.8-2.8-32.8 20 1 20.9-2.7 14.4 15 1.4 10-6.3 27 5 30.8zm16.7-16c.7-20.8 11.5-13.1 11-1l-11 1zm34.4 11c-11-7.1-14.4-23.6-22-34.7-7-18.4-9.8 10.6-13.3 17.4-4 13.2-15 30.3 3.6 20.1-19.2-15.6 28.7-14.4 12.3.6 5.6-1.6 17 .9 19.4-3.3zm51.4-44.5c-15.6-22-32 9.6-4.3 7 37.6 5-12.5 49.7-15.3 23.4-9.7-16 30.6 19.2 21.4-9.6-35 1.8-32.4-36.8-3.9-33.2-.3 3.3 6.5 11.3 2 12.4zm48.3 13c-16 6.4-21.7 15.8-20.8-3.8-4.3-10.2-12.6-28-17.8-27.6 18.1-8.5 17.1-12.2 19.6 6.5 6.1 8.2 7.2 26.8 19 24.9zm11.6-7.7c6.7-11.3-11.6-22.5-16-33.7-19-2 11-15.6 18.5-5.5 12 4 27.4 10.3 12.2-5.6-10.5-9.2-16-11.1-.5-15.2-4.4 12.2 12.5 23.5 17.6 35.1 6.4 11.8-19.4-2.5-26.9-2.7-17.1-7.7-17.8-3-6.3 10 7.7 13.7 23 10 1.4 17.6zm66.2-49.7c-13.3 11-15.9 21.6-21 2.7-7.1-8.5-20.4-23-25.3-21 14.7-13.6 12.7-16.8 20.7.2 8.3 6.1 15 23.5 25.6 18.1zm31-50c11 42.8-62.2 34.3-43.8-4.1 8.8-12.9 17.7-23.4 25-7-57.9-6.5 21.5 66.7 16.4 11.7l1.9-.4zM609 509c-16.7-12.3-4.2-16.9 5.5-9.5l-5.5 9.5zm28.6-22c-12.2 5-27.6-1.6-41.1-1.6-19.1-4.5 3.2 14.2 6.9 20.8 7.3 17.9 21.9 19.7 16.4 11.3-22.4-6.3 10-29.3 9.6-12.7 1.8-5.5 10.2-13.5 8.2-17.8zM185.4 98.3c-12.2-18.7-28.2 14.5-40.5 6.3-20-2.6-11.4 13.5-6.5 20.1-21.2 15 .6 22.8 8.7 7.2 1.8 17.2 18.4 19.9 30 31.6 8.4-17.9-20-29-2.2-42.5.7-10.9 13.8-12.8 10.5-22.7zm-16.7 11c-1.7 32.4-25 1-1.2-4.9z" fill="#e1d9c7"/><path d="M143.5 143.4c-28.3-3.6-13.3 12.6 3.3 16.7 13.5 1 1.4-13.5-3.3-16.7zm139.8-87.2c-7.7-9.6-37.7 15-24.6-2.2-1.7-20.5-20.8 7.2-27.8-6.4-10.5 4.5 4.7 20.5-14 16.7 11.3 13.7 12.6 18.9-7.2 28.4.5 18.1 22.7 1.5 27-9.3 10.7 11.8-28 33.5-10.4 34.8 11-8.4 27.4-22 18.7-39.2 7.7-14.5 23.7-11.1 36.2-15 3.6-2 3-4.8 2.1-7.8zm-47.5 17.5c-8.3 9.3-6.5-23.7 0 0zm12-13.5c-6 21-6.4-16.2.3-3.3z" fill="#e1d9c7"/><path d="M274.6 75.7c-20.1-5.5-36.9 13.2-5.8 13.5 13.9 13 25.3-1.2 5.8-13.5zM258.3 80c-.3-3.6 4.7-2.3 0 0zm13.2.5c-1.1 0 .3-1 0 0zm112.2-36.8c-18.5-.8-17-8.2-8.4-14.4-14.7-8.3-26.7 7.3-38.8.8-11.2 7.2-36.1 4.7-10.7 18.2-2.7 12.4-22.6 24.8-20.3 31.5 11 21.5 17.5-24.3 25.3.8C335.3 70.3 341 68 343.5 59c13.7-2-9.2 44 12.2 12.9 0-17.8 7.4-28.4 7.2-4.6-9.9 23.8 15.4 27 10.2 2.6-1.6-14.7-2.3-20 11.5-19.8v-3.3zm-52.1 20c-4.6-5 7.7-5.6 0 0zm30-17.1c-13-8-16.4 7-30.9 8.5.8-8.6 6.6-18.8 17.3-18 6 11 16.8-6.5 13.6 9.5zm4.3-.2c-1-1.3 2.3-.8 0 0zm62.8 18c20.5 3.1 15.7-33-1.3-8.2-4.4 2.7-4 7.3 1.3 8.3z" fill="#e1d9c7"/><path d="M481.4 116c-1-10-3.9-45.1-9.4-12.5-10.2 11.2-34.6-14-8.6-19-20.8-16.4 17.6-5.2-4.8-17.8 11.8-15.3 5.6 3.2 14 5.2 17 8.1 6.5-19-6-16 .3-16.6-15.1-9.5-14.8-1.7-4.4-2.6-21.5 17.4-7.7 16.5-6.9 8.8-41.7-5.6-16.7 10.6 22-.5-20.8 8.2-28.1.5C396 95.2 421 95 430.6 94.4c12.4-10.1 29.4-26.1 11.9 1-7 10 39.8 35.3 39 20.6zm-27.1-41.2c-14.6 0 6-24.8-3.5-4 2-.8 5.2 2.2 3.5 4zm51.6 45.3c14.8-9.8 19-16.3 33.8-5.2 15-10.9 19.4 19.9 2.5 2.2-4.3 10.3 15.3 10.7 21.5 10.7 23.5 12.9-.9-13-2.1-22.2-7-2.8-9.2 9-17.3-2.7-15.6 10.3-6.7-2.3 2.5-4.3-11.6-21.2-27.1-13.3-16.7 3.3-4.8-21.8-33.6 18.1-24.2 18.2zm57.5 1c-2 8.1-9.9-3.5 0 0z" fill="#e1d9c7"/><path d="M558.4 168.6c12-20 1.2-13.8-13.2-7.6-12.4-5.8-21-20.4-2.2-19.5-8.3-24.2 27.5 16.1 9.3-9.4-11-12.4-48.6-22.4-19.7-5.1-7.4-1-51.5-1.1-23.5 7 10 2.7 39.7-4.1 15.4 9.9-3.2 10.4 28 50.1 34 24.7zm-20-39.8c-2-4.4 3 1.8 0 0z" fill="#e1d9c7"/><path d="M294.7 573.4c-8.3-4-40.4-8.7-17-11.2.4-10.4 18.8-33.3 1-33.5 7.7-3.6 30.5-7.3 18.8 8.7-1.3 11.7-15.8 29.6-2.8 36zm31.7-30.5c18.5-37.6 6.1 53 0 0zm-14.6 35.2c40.8 12.6 48-64 6.7-41.3-21.5 24.6 33.6 20.6 5.4 36-1 5.8-13.2-1-12.1 5.3zm79-1.4c-10.1-.8-44 11.2-24-7.3 18.5-11.3 6.5-43-10-22.1 14.4-37.8 46.2 4 15.4 19.5-3.9 12.4 30.7-17 19 7l-.2 2zm15.1-44.5c9.8-27.8 25.4 26.5 0 0zm4.7-9.5c-29.8 7.6.9 28-1.6 28.3-17.2 41.7 60-1 11.8-11.3 15.2-7.3 3-24.4-10.2-17zm3.2 37.2c-1.5-31.8 28.9 18.6 1.6 3.3z" fill="#fff"/><path d="M307.8 443.4c8.7-5 16.8-27.2 25.9-18.7 17.4 17.3 37.2 32.7 53 51.4 2.9 31.8-23.4 27.4-36.6 7l-42.3-39.7zM324.6 221c-16.8-33.4 20-37.8 33.3-11.1l37.4 37.3c-8.7 4.7-17.4 26.9-26.2 18.1L324.6 221zm30.5 66.8c-8.6-4.6-17.7-23.8-26-19.1-5.1 9-27.2 18.4-11.7 26.8 8.8 8.4 17.6 22 25.7 5.1l12-12.8zm-2 77c-8.7-4.6-17.8-23.8-26.1-19.1-5.1 9-27.2 18.4-11.7 26.7 8.8 8.5 17.7 22 25.7 5.2l12-12.8zm39.2-41.6c-8.6-4.6-17.7-23.8-26-19.1-5.1 9-27.2 18.3-11.7 26.7 8.7 8.5 17.6 22 25.6 5.2l12.1-12.8zM391 401c-8.6-4.6-17.6-23.9-26-19.2-5.1 9-27.2 18.4-11.7 26.8 8.8 8.4 17.7 22 25.7 5.1l12-12.7z" fill="#155f8e"/><path d="M402.1 278c15.6-34.1-21.2-37-33.7-10-22.7 25-47.8 48.3-68.9 74.7-5 26.1 21.7 33.3 32 10l70.6-74.7zm-.5-74.4c14.8-33.6-21.3-36.7-33.7-10-21.9 24.2-46.2 46.6-66.5 72.1-2.5 35.7 26.1 24 38.8 3l61.4-65zm-.8 152.1c15.7-34-21.1-37-33.7-10-22.7 25.1-47.8 48.4-68.9 74.8-4.9 26 21.8 33.3 32.1 10l70.5-74.8zm-1 76c15-33.6-21.3-36.8-33.6-10.1-21.9 24.2-46.2 46.6-66.5 72.1-2.4 35.7 26.2 24 38.8 3l61.4-65z" fill="#1a77a8"/></svg>