<svg width="170" xmlns="http://www.w3.org/2000/svg" viewBox="0 0 170 170" height="170" fill="#b3b3b3"><path d="M150.4 130.3a88 88 0 0 1-8.7 15.6c-4.6 6.5-8.4 11-11.3 13.6a21.8 21.8 0 0 1-14.4 6.3c-3.7 0-8.1-1-13.3-3.2-5.2-2-10-3.1-14.3-3.1-4.6 0-9.5 1-14.8 3.1A39.7 39.7 0 0 1 61 166c-5 .2-9.9-2-14.8-6.5a97.1 97.1 0 0 1-29.4-68c0-11 2.4-20.3 7.1-28.2a41.3 41.3 0 0 1 34.7-20.5c4 0 9 1.2 15.4 3.6A49.6 49.6 0 0 0 86.2 50c1.3 0 5.9-1.4 13.6-4.3a44.9 44.9 0 0 1 18.4-3.2 39.2 39.2 0 0 1 30.7 16.1 34.1 34.1 0 0 0-18.1 31c0 10.3 3.8 19 11.2 25.8 3.3 3.1 7 5.6 11.2 7.3l-2.8 7.5zM119 7.3c0 8-3 15.6-8.8 22.6C103 38.2 94.5 43 85.2 42.3l-.2-3c0-7.9 3.4-16.2 9.4-23 3-3.4 6.8-6.3 11.4-8.6 4.7-2.2 9-3.5 13.1-3.7.2 1 .2 2.2.2 3.2z"/></svg>