<svg xmlns="http://www.w3.org/2000/svg" width="600" height="600"><path d="M298.5 521.9L192.2 335l214.9 1.3-108.6 185.5z" fill="#fff"/><path d="M299.5 554.3A734125 734125 0 0 1 0 43.5c200 0 400-.7 600 .3a507064.9 507064.9 0 0 1-298.7 512.8l-1.8-2.3zm8.8-53.6c22.3-19.3-36-19.2-13 .2 6.8 11.5 5.8 14.1 13-.2zm-20.5-28.2c12.6-11.2 42.6 9.1 41.7-12.3-15.1 2-56.5-8.9-52 10.4 1.3 7 6.1 3.3 10.3 1.9zm-19-25.9c23.9-6.8 46.6 0 70.4-1.7 20-19-22.4-3.4-32.6-13.8-15.2 5.5-33.3-.2-47 9 2.9 2.7 3.4 12 9.3 6.5zM251.2 422c27.3-2 54.4-12.7 81.3-1.5 9.6 2.6 40.3-5.8 19.7-12.6-20.4 9.6-40.4-11.3-60.6-1.1-10.6 3.6-65.2-6-40.4 15.2zm-15.4-26.8c23.8-7.6 49.4-1.5 73.4-6.5 19.6 7.6 49.8 6.4 64.7-1.2 0-19.3-40.8 6.3-56.1-6.7-24.1-8.5-48.8 6.5-74.3-1.4-13 .2-23.4 9.7-7.7 15.8zm-15.9-29.8c27.8-12.4 57.1 5.3 85.2-6.4 26.4 13.8 58.5-2 83.2 3.5 13.8-24.7-34.5-9.3-48.3-9.2-28.6-9.9-56.4-2.8-85-2-8.5-8.8-68.8-5-35 14z" fill="#fde400"/><path d="M299.5 554.3A734125 734125 0 0 1 0 43.5c200 0 400-.7 600 .3a507064.9 507064.9 0 0 1-298.7 512.8l-1.8-2.3zm8.8-53.6c22.3-19.3-36-19.2-13 .2 6.8 11.5 5.8 14.1 13-.2zm-20.5-28.2c12.6-11.2 42.6 9.1 41.7-12.3-15.1 2-56.5-8.9-52 10.4 1.3 7 6.1 3.3 10.3 1.9zm-19-25.9c23.9-6.8 46.6 0 70.4-1.7 20-19-22.4-3.4-32.6-13.8-15.2 5.5-33.3-.2-47 9 2.9 2.7 3.4 12 9.3 6.5zM251.2 422c27.3-2 54.4-12.7 81.3-1.5 9.6 2.6 40.3-5.8 19.7-12.6-20.4 9.6-40.4-11.3-60.6-1.1-10.6 3.6-65.2-6-40.4 15.2zm-15.4-26.8c23.8-7.6 49.4-1.5 73.4-6.5 19.6 7.6 49.8 6.4 64.7-1.2 0-19.3-40.8 6.3-56.1-6.7-24.1-8.5-48.8 6.5-74.3-1.4-13 .2-23.4 9.7-7.7 15.8zm-15.9-29.8c27.8-12.4 57.1 5.3 85.2-6.4 26.4 13.8 58.5-2 83.2 3.5 13.8-24.7-34.5-9.3-48.3-9.2-27.4-8.2-53.7-5.5-81.1-1-13.2-10.5-72.9-5-39 13zm-1.3-23.2c12-1.3 3.5-19.2 6-28.1v-70.8c-14.4-4.6-10.4 9.3-10.7 19 .2 27-.6 54 .5 81l4.2-1zm160.9-.4c13.5 3.7 4.2-17 7-24.8v-73.7c-14.2-4.3-13.3 6.5-12.4 17.3v81.6l1-.2zm33.7-21.5c18.6-16-15.7-18.3-7.4.1.4 14.5-1.8 16 7.4 0zm-218.7-1c7.8-17.2-24.6-14.1-6.7.1 5.3 8.2 7.8 17.5 6.7-.2zm69.8 4.2c1.4-6.7-22.6-7-20.3.6-3 5.7 24 5.7 20.3-.6zm45.4 0c1-7-21.2-5.9-21.6-1-2.1 9.6 18.3 4.8 21.6 3.6v-2.6zm45 0c1.1-7-21.2-5.9-21.6-1-2 9.6 18.3 4.8 21.6 3.6v-2.6zM251.8 293c3-21.7 36-19.6 38.7-34.7-2.3-10-42.1 3.5-15-12.6 15.3-16.6 31-22.9 46.5-2.7 20 10.8 11.4 13.2-6 11.6-20 9.5 20.3 18.4 24.7 30 4 17.7 18.8 14.7 14-1.7v-56.2c-12.8 3.3-15.5-3.4-13.4-15h-81.8c2.6 12.4-1.5 18-14.3 15-3 6.8-.4 19.4-1.3 28.4v42c4.3 0 6.7.9 7.9-4zm243.1-114.5c21.2-36.8 42.5-73.5 63.6-110.3-173-.2-346 0-519 0l131.3 222.5c7.6-2.3 25.7 5.8 23.6-6.3v-41.2h-38c-1.1-11-1.4-21.3 12.6-17.2 12.8 3.6 14.6-3.8 12.7-14.9-7.4-2-23.2 4.2-25.3-3.1 3-12-13.9-4.2-20.6-6.4 1-8.6-4.8-24.2 9.4-19.7H212c-4.3-14.1 6.5-13.2 17.4-12.3 2.7-6.9 5.5-13.7 18.7-10.2 7-2.4.9-18 16.5-12h83.1c-4.3 14.1 6.9 12.8 17.4 12 1.5 8 5.7 13.2 18 10.2 8.4 1.5 1 18.7 17.2 12.3h65.1c-1 8.7 4.8 24.2-9.5 19.7-15.6-6.5-6.5 11.7-17.7 9.5-8.6 1-24-4.7-19.4 9.5-1.3 11 16.4 3 23.7 5.4 3.8 4 5 22.9-7.5 17.2h-29.2v47.5c9.3-2 24.3 5.7 28-6.2l61.2-106zm-44.6-11.7c-19.7-5.7-35.3-13.3-18.8-33.7 7-15.8 10-42.4 31.4-24.3 18.8 8.8 53.6 11.7 30 37.7-7.4 19.5-14.2 43.1-37.1 22.7zm32.1-18.4c22.8-24-19-29.8-34-33.8-7.6 18.1-26 41 4.8 44.2 18 10 22.6 11 29.2-10.4zM464 162.3c-25.6-5.8 17.6-33-10.1-35.8-16.3-4-.6-14.9 8.5-3.9a68 68 0 0 1 21.6 6.3c9.2 17.6-17.9-3.2-17.3 18.1 4.6-3.8 21.3-16.7 12 .6-2.2 13.4-26.6 2-4.2 13 .1 10.5-7.2 1.5-10.5 1.7zm-20.3-9.9c-25.4-12.7 20.7-6.8 6.8 3.2l-6.8-3.2zm3-8c-21.7-6.5 11.3-30.3 13.8-9.4-4.3 7.2-3.1 18-13.8 9.4zm6.5-6.7c-1.3-14.3-13 7.4 0 0zM113 150c-6.5-14-23-33 4-34 9.2 6-11 11.4 3.8 7.6 3.8 11-7.5 6.7 5.1 10.2-7.2 7.5.5 8.8 7 1.7-12.7-3.2-.4-17.5-15.1-19.8 12.7-2.8 18.8-12.8 20.4 3.2 9.1 4.2.9 20.5 17.5 8.8-6.8.5-13-4.4-4-9.9-22.1 7.7 8.4-15.5-10.6-4.7-4.3-14.3 27.4-17.9 24.4 3.5 4 12.3 26.7 47.5 3 39.2-4.5-15.3-9.3-29.5-26.8-14-33.8.6 13 33-15.1 35.4L112.9 150zm22.4-24c-1.5-7-4.9 4.2 0 0zm5 44c-.9-7.5 13.7-13-4.7-6.8-9.2-8.5 20.3-14.7-3-8.5-10-10.7 36.8-25 22.7-6.4 19-5.4-3.2 7.4 5.6 14.6-6 1.5-15.5 8.3-20.6 7.1zm250.3-23c-18 1.6-40.8-14.2-17.7-17.8 5.7-14.3 2.2-20.8-3-28 3.3-12.7 27.5 8 29.2-8.5 15.2 2 9.9 18.1 30.9 16-1.6 11-21.3 19.6-11 32.3 13.4 22.2-18.7 6-28.4 6zm11.2-12.5c7.7-12.3 4.8-26.3-11.4-20.9-5.7 14.7-5.9 27 11.4 21zm-215.5 13.1c-14.7-2.8 18-37-10.2-23.3-11-16.5 21-11.5 12.5-29.2 16.6-11.5 11.2 20.5 29.3 6 17.8-1.6 4.8 16.7-8.5 14.4 10.3 6.2 40.5 18.2 17.4 24.6-18.4-13.2-29.5-14.6-34.5 9.8l-1.9-.7zm69.3-9.3c-13.7-3.5 11.1-18.1-11.8-11-8-8.1 6-16.4-.9-30.4 21.2 5.2 10-15.8 28.3-12.6-2.3 18.7 26.3-4.1 20.2 20 4.3 8 13.3 20.5-6.5 18.9 23.6 9-4.4 21.5-13.8 4.5-4.8 5.7-6.8 18.5-15.5 10.6zm4.7-28.4c-3.6-17-3.2 16 0 0zm17 2.7c8.5-13.2-12-8.6 0 0zm56 27.4c-14 1.4-2.5-20.2-21.8-13.6-9.2-1.4-11.6-45.6 9.3-34.6 11.4 1.6 5.8-16.3 23.4-6.9-5.2 17.8 30.4-.6 18.6 22.7 6.1 22.7-11.8 19-20.9 23.7 1 9.2.1 10.7-8.7 8.7zm16.2-24.6c5.6-28.6-19.3 2 0 0zm-22.3-6.4c-7.4-23.1-13.4 19.3 0 0z" fill="#da0028"/><path d="M299.5 554.3A734125 734125 0 0 1 0 43.5c200 0 400-.7 600 .3a507064.9 507064.9 0 0 1-298.7 512.8l-1.8-2.3zm8.8-53.6c22.3-19.3-36-19.2-13 .2 6.8 11.5 5.8 14.1 13-.2zm-20.5-28.2c12.6-11.2 42.6 9.1 41.7-12.3-15.1 2-56.5-8.9-52 10.4 1.3 7 6.1 3.3 10.3 1.9zm-19-25.9c23.9-6.8 46.6 0 70.4-1.7 20-19-22.4-3.4-32.6-13.8-15.2 5.5-33.3-.2-47 9 2.9 2.7 3.4 12 9.3 6.5zM251.2 422c27.3-2 54.4-12.7 81.3-1.5 9.6 2.6 40.3-5.8 19.7-12.6-20.4 9.6-40.4-11.3-60.6-1.1-10.6 3.6-65.2-6-40.4 15.2zm-15.4-26.8c23.8-7.6 49.4-1.5 73.4-6.5 19.6 7.6 49.8 6.4 64.7-1.2 0-19.3-40.8 6.3-56.1-6.7-24.1-8.5-48.8 6.5-74.3-1.4-13 .2-23.4 9.7-7.7 15.8zm-15.9-29.8c27.8-12.4 57.1 5.3 85.2-6.4 26.4 13.8 58.5-2 83.2 3.5 13.8-24.7-34.5-9.3-48.3-9.2-27.4-8.2-53.7-5.5-81.1-1-13.2-10.5-72.9-5-39 13zm-1.3-23.2c12-1.3 3.5-19.2 6-28.1v-70.8c-14.4-4.6-10.4 9.3-10.7 19 .2 27-.6 54 .5 81l4.2-1zm160.9-.4c13.5 3.7 4.2-17 7-24.8v-73.7c-14.2-4.3-13.3 6.5-12.4 17.3v81.6l1-.2zm33.7-21.5c18.6-16-15.7-18.3-7.4.1.4 14.5-1.8 16 7.4 0zm-218.7-1c7.8-17.2-24.6-14.1-6.7.1 5.3 8.2 7.8 17.5 6.7-.2zm69.8 4.2c1.4-6.7-22.6-7-20.3.6-3 5.7 24 5.7 20.3-.6zm45.4 0c1-7-21.2-5.9-21.6-1-2.1 9.6 18.3 4.8 21.6 3.6v-2.6zm45 0c1.1-7-21.2-5.9-21.6-1-2 9.6 18.3 4.8 21.6 3.6v-2.6zM251.8 293c3-21.7 36-19.6 38.7-34.7-2.3-10-42.1 3.5-15-12.6 15.3-16.6 31-22.9 46.5-2.7 20 10.8 11.4 13.2-6 11.6-20 9.5 20.3 18.4 24.7 30 4 17.7 18.8 14.7 14-1.7v-56.2c-12.8 3.3-15.5-3.4-13.4-15h-81.8c2.6 12.4-1.5 18-14.3 15-3 6.8-.4 19.4-1.3 28.4v42c4.3 0 6.7.9 7.9-4zm243.1-114.5c21.2-36.8 42.5-73.5 63.6-110.3-173-.2-346 0-519 0l131.3 222.5c7.6-2.3 25.7 5.8 23.6-6.3v-41.2h-38c-1.1-11-1.4-21.3 12.6-17.2 12.8 3.6 14.6-3.8 12.7-14.9-7.4-2-23.2 4.2-25.3-3.1 3-12-13.9-4.2-20.6-6.4 1-8.6-4.8-24.2 9.4-19.7H212c-4.3-14.1 6.5-13.2 17.4-12.3 2.7-6.9 5.5-13.7 18.7-10.2 7-2.4.9-18 16.5-12h83.1c-4.3 14.1 6.9 12.8 17.4 12 1.5 8 5.7 13.2 18 10.2 8.4 1.5 1 18.7 17.2 12.3h65.1c-1 8.7 4.8 24.2-9.5 19.7-15.6-6.5-6.5 11.7-17.7 9.5-8.6 1-24-4.7-19.4 9.5-1.3 11 16.4 3 23.7 5.4 3.8 4 5 22.9-7.5 17.2h-29.2v47.5c9.3-2 24.3 5.7 28-6.2l61.2-106z" fill="#0c4498"/><path d="M201.2 342.2c-6.9-7.8-7.7-17.3-6.8-27.2 4.1-14.3-16.6-.4-17.5-14-18-19.2 18.2-2.4 17.5-15v-42.8h-38c-1.1-11-1.4-21.3 12.6-17.2 12.8 3.6 14.6-3.8 12.7-14.9-7.4-2-23.2 4.2-25.3-3.1 3-12-13.9-4.2-20.6-6.4 1-8.6-4.8-24.2 9.4-19.7H212c-4.3-14.1 6.5-13.2 17.4-12.3 2.7-6.9 5.5-13.7 18.7-10.2 7-2.4.9-18 16.5-12h83.1c-4.3 14.1 6.9 12.8 17.4 12 1.5 8 5.7 13.2 18 10.2 8.4 1.5 1 18.7 17.2 12.3h65.1c-1 8.7 4.8 24.2-9.5 19.7-15.6-6.5-6.5 11.7-17.7 9.5-8.6 1-24-4.7-19.4 9.5-1.3 11 16.4 3 23.7 5.4 3.8 4 5 22.9-7.5 17.2h-29.2v47.5c14.2-.8 31.5-2 16 14.6-6.4 5.5-21.4-2-16 13.6 2.5 12.7-4.5 22.8-11 33-29.3-9.6-59.7 10-88.7-5.3-26.5 4.1-51.7 7-78 0-13 1.4-21.7 14-26.8-4.4zm17.3 0c12-1.4 3.5-19.3 6-28.2v-70.8c-14.4-4.6-10.4 9.3-10.7 19 .2 27-.6 54 .5 81l4.2-1zm160.9-.5c13.5 3.7 4.2-17 7-24.8v-73.7c-14.2-4.3-13.3 6.5-12.4 17.3v81.6l1-.2 4.4-.2zm-115.2-18.3c1.4-6.7-22.6-7-20.3.6-3 5.7 24 5.7 20.3-.6zm45.4 0c1-7-21.2-5.9-21.6-1-2.1 9.6 18.3 4.8 21.6 3.6v-2.6zm45 0c1.1-7-21.2-5.9-21.6-1-2.1 9.6 18.3 4.8 21.6 3.6v-2.6zM251.8 293c3-21.7 36-19.6 38.7-34.7-2.3-10-42.1 3.5-15-12.6 15.3-16.6 31-22.9 46.5-2.7 20 10.8 11.4 13.2-6 11.6-20 9.5 20.3 18.4 24.7 30 4 17.7 18.8 14.7 14-1.7v-56.2c-12.8 3.3-15.5-3.4-13.4-15h-81.8c2.6 12.4-1.5 18-14.3 15-3 6.8-.4 19.4-1.3 28.4v42c4.3 0 6.7.9 7.9-4z"/></svg>