<svg xmlns="http://www.w3.org/2000/svg" width="400" height="342.214"><path d="M199.02 319.008l-70.893-124.484 143.254.847z" fill="#fff"/><path d="M199.665 340.62C197.029 336.221 0 .206 0 .11 0 .05 90.027 0 200.06 0 375.818 0 400.103.038 400 .31c-.158.411-198.9 341.668-199.114 341.895-.09.097-.64-.617-1.221-1.586zm5.866-35.733c2.307-3.993 4.152-7.328 4.1-7.412-.146-.238-4.444-1.576-6.255-1.948-2.331-.48-4.038-.426-6.177.194-1.903.552-4.563 1.666-4.563 1.912 0 .212 8.553 14.66 8.632 14.582.038-.037 1.956-3.335 4.263-7.328zm-13.677-18.802c2.581-.938 5.265-1.843 5.962-2.01 1.831-.438 5.425-.601 7.507-.34 7.196.904 10.186 1.33 10.703 1.528.499.19.644.163.878-.156.516-.705 3.855-6.57 3.855-6.772 0-.109-.5-.314-1.11-.455-2.083-.481-3.4-.512-5.654-.134-3.17.533-6.011.364-8.778-.521-2.537-.812-3.985-.793-7.506.099-1.654.419-3.164.617-5.921.777-2.035.118-4.192.306-4.792.417-1.014.188-4.512 1.715-4.512 1.97 0 .094 2.072 3.654 3.85 6.615.228.378.506.688.619.688.112 0 2.317-.768 4.899-1.706zm-12.613-17.239c1.662-.495 2.401-.576 6.628-.729 3.002-.108 5.148-.283 5.815-.475.582-.167 1.887-.55 2.901-.853 4.167-1.242 8.307-1.288 11.529-.13 3.874 1.393 5.447 1.723 8.725 1.829 2.377.077 3.422.02 4.652-.254.872-.194 2.928-.406 4.568-.47l2.983-.118 1.915-3.302 1.914-3.302-.985-.244c-1.674-.415-3.523-.32-6.456.331-5.379 1.194-6.833 1.082-13.313-1.026-5.163-1.68-6.837-2.002-9.648-1.857-2.486.127-3.73.462-7.833 2.103l-2.643 1.058-2.432-.183c-1.338-.1-3.812-.182-5.498-.182h-3.066l-1.692.805c-1.877.894-4.383 2.455-4.29 2.672.034.077.77 1.34 1.637 2.808l1.576 2.668.572-.296c.314-.162 1.413-.546 2.441-.853zM167.427 252.4c.548-.275 1.758-.77 2.689-1.097 2.186-.77 5.34-.917 9.312-.43 3.183.389 5.274.426 6.888.123.627-.118 3.423-.967 6.214-1.887 2.985-.983 5.804-1.777 6.846-1.928 3.423-.496 6.68.072 13.348 2.326 2.384.806 4.84 1.566 5.455 1.69 1.734.347 4.937.268 7.2-.179 3.058-.603 4.74-.696 7.54-.415 4.165.418 3.53.725 5.528-2.67.959-1.629 1.748-3.038 1.755-3.131.03-.444-4.104-1.839-5.452-1.839-.354 0-2.148.399-3.987.886-3.123.828-3.53.887-6.197.894-3.307.009-3.723-.086-9.391-2.128-5.772-2.08-6.78-2.293-10.803-2.278l-3.384.012-3.374.99c-5.122 1.506-6.48 1.704-11.745 1.718-3.26.009-5.44-.1-7.705-.387-5.113-.645-7.725-.247-12.928 1.97-3.467 1.479-3.368 1.032-1.086 4.924 1.071 1.828 2.023 3.327 2.114 3.33.09.005.614-.218 1.163-.494zm-10.293-17.906c5.51-2.781 13.819-3.766 20.488-2.428 2.013.404 3.798.606 6.051.685 3.78.133 5.486-.142 8.94-1.44 3.379-1.268 5.336-1.718 7.952-1.825 2.858-.116 4.409.184 7.726 1.495 4.889 1.933 8.223 2.657 12.997 2.824 2.926.103 3.36.067 5.604-.46 1.337-.314 3.43-.802 4.652-1.086 4.545-1.055 8.572-.88 13.21.575 1.482.464 1.96.54 2.14.342.363-.401 4.315-7.307 4.315-7.54 0-.69-5.234-1.379-9.284-1.22-2.548.1-3.283.222-6.47 1.081-5.154 1.39-6.878 1.66-10.572 1.659-4.724-.003-7.877-.623-15.86-3.121-2.79-.874-5.927-1.746-6.97-1.938-2.57-.474-3.972-.22-7.706 1.4-4.555 1.977-4.803 2.023-10.698 2.007-4.403-.011-5.803-.104-10.573-.7-7.207-.901-10.43-1.046-12.763-.573-1.923.39-4.05 1.174-6.428 2.372-2.417 1.217-2.519 1.303-2.182 1.842.156.251 1.109 1.86 2.116 3.575 1.008 1.716 1.878 3.12 1.934 3.12.056 0 .677-.291 1.38-.646zm-10.595-19.867c5.041-2.212 10.213-3.527 14.696-3.735 3.134-.146 4.703.069 10.255 1.402 6.026 1.448 7.941 1.757 10.996 1.776 3.237.02 4.255-.195 8.556-1.804 4.485-1.677 6.454-2.142 9.1-2.15 2.527-.008 3.69.248 6.767 1.489 4.575 1.844 8.935 2.677 15.33 2.928 4.107.162 5.7-.036 11.877-1.475 5.295-1.233 7.63-1.6 10.194-1.6 2.622 0 6.15.691 10.264 2.016 1.908.614 3.104.902 3.23.775.592-.591 4.934-8.413 4.734-8.528-.43-.249-6.571-1.66-9.077-2.086-4.616-.784-6.882-.584-14.094 1.243-5.045 1.279-8.293 1.715-12.765 1.715-5.471 0-8.288-.47-15.949-2.66-6.514-1.863-7.686-2.088-10.828-2.078-3.148.01-5.417.439-11.313 2.136-6.095 1.754-8.748 2.247-12.158 2.257-3.261.009-4.452-.238-9.673-2.009-5.743-1.947-7.011-2.19-11.367-2.175-3.56.012-3.963.054-6.238.663-1.337.358-3.24.948-4.23 1.311-2.153.792-5.822 2.589-5.794 2.839.05.461 5.08 8.782 5.266 8.712.117-.044 1.116-.477 2.22-.962z" fill="#fde400"/><path d="M199.665 340.62C197.029 336.221 0 .206 0 .11 0 .05 90.027 0 200.06 0 375.818 0 400.103.038 400 .31c-.158.411-198.9 341.668-199.114 341.895-.09.097-.64-.617-1.221-1.586zm5.866-35.733c2.307-3.993 4.152-7.328 4.1-7.412-.146-.238-4.444-1.576-6.255-1.948-2.331-.48-4.038-.426-6.177.194-1.903.552-4.563 1.666-4.563 1.912 0 .212 8.553 14.66 8.632 14.582.038-.037 1.956-3.335 4.263-7.328zm-13.677-18.802c2.581-.938 5.265-1.843 5.962-2.01 1.831-.438 5.425-.601 7.507-.34 7.196.904 10.186 1.33 10.703 1.528.499.19.644.163.878-.156.516-.705 3.855-6.57 3.855-6.772 0-.109-.5-.314-1.11-.455-2.083-.481-3.4-.512-5.654-.134-3.17.533-6.011.364-8.778-.521-2.537-.812-3.985-.793-7.506.099-1.654.419-3.164.617-5.921.777-2.035.118-4.192.306-4.792.417-1.014.188-4.512 1.715-4.512 1.97 0 .094 2.072 3.654 3.85 6.615.228.378.506.688.619.688.112 0 2.317-.768 4.899-1.706zm-12.613-17.239c1.662-.495 2.401-.576 6.628-.729 3.002-.108 5.148-.283 5.815-.475.582-.167 1.887-.55 2.901-.853 4.167-1.242 8.307-1.288 11.529-.13 3.874 1.393 5.447 1.723 8.725 1.829 2.377.077 3.422.02 4.652-.254.872-.194 2.928-.406 4.568-.47l2.983-.118 1.915-3.302 1.914-3.302-.985-.244c-1.674-.415-3.523-.32-6.456.331-5.379 1.194-6.833 1.082-13.313-1.026-5.163-1.68-6.837-2.002-9.648-1.857-2.486.127-3.73.462-7.833 2.103l-2.643 1.058-2.432-.183c-1.338-.1-3.812-.182-5.498-.182h-3.066l-1.692.805c-1.877.894-4.383 2.455-4.29 2.672.034.077.77 1.34 1.637 2.808l1.576 2.668.572-.296c.314-.162 1.413-.546 2.441-.853zM167.427 252.4c.548-.275 1.758-.77 2.689-1.097 2.186-.77 5.34-.917 9.312-.43 3.183.389 5.274.426 6.888.123.627-.118 3.423-.967 6.214-1.887 2.985-.983 5.804-1.777 6.846-1.928 3.423-.496 6.68.072 13.348 2.326 2.384.806 4.84 1.566 5.455 1.69 1.734.347 4.937.268 7.2-.179 3.058-.603 4.74-.696 7.54-.415 4.165.418 3.53.725 5.528-2.67.959-1.629 1.748-3.038 1.755-3.131.03-.444-4.104-1.839-5.452-1.839-.354 0-2.148.399-3.987.886-3.123.828-3.53.887-6.197.894-3.307.009-3.723-.086-9.391-2.128-5.772-2.08-6.78-2.293-10.803-2.278l-3.384.012-3.374.99c-5.122 1.506-6.48 1.704-11.745 1.718-3.26.009-5.44-.1-7.705-.387-5.113-.645-7.725-.247-12.928 1.97-3.467 1.479-3.368 1.032-1.086 4.924 1.071 1.828 2.023 3.327 2.114 3.33.09.005.614-.218 1.163-.494zm-10.293-17.906c5.51-2.781 13.819-3.766 20.488-2.428 2.013.404 3.798.606 6.051.685 3.78.133 5.486-.142 8.94-1.44 3.379-1.268 5.336-1.718 7.952-1.825 2.858-.116 4.409.184 7.726 1.495 4.889 1.933 8.223 2.657 12.997 2.824 2.926.103 3.36.067 5.604-.46 1.337-.314 3.43-.802 4.652-1.086 4.545-1.055 8.572-.88 13.21.575 1.482.464 1.96.54 2.14.342.363-.401 4.315-7.307 4.315-7.54 0-.69-5.234-1.379-9.284-1.22-2.548.1-3.283.222-6.47 1.081-5.154 1.39-6.878 1.66-10.572 1.659-4.724-.003-7.877-.623-15.86-3.121-2.79-.874-5.927-1.746-6.97-1.938-2.57-.474-3.972-.22-7.706 1.4-4.555 1.977-4.803 2.023-10.698 2.007-4.403-.011-5.803-.104-10.573-.7-7.207-.901-10.43-1.046-12.763-.573-1.923.39-4.05 1.174-6.428 2.372-2.417 1.217-2.519 1.303-2.182 1.842.156.251 1.109 1.86 2.116 3.575 1.008 1.716 1.878 3.12 1.934 3.12.056 0 .677-.291 1.38-.646zm-10.595-19.867c5.041-2.212 10.213-3.527 14.696-3.735 3.134-.146 4.703.069 10.255 1.402 6.026 1.448 7.941 1.757 10.996 1.776 3.237.02 4.255-.195 8.556-1.804 4.485-1.677 6.454-2.142 9.1-2.15 2.527-.008 3.69.248 6.767 1.489 4.575 1.844 8.935 2.677 15.33 2.928 4.107.162 5.7-.036 11.877-1.475 5.295-1.233 7.63-1.6 10.194-1.6 2.622 0 6.15.691 10.264 2.016 1.908.614 3.104.902 3.23.775.592-.591 4.934-8.413 4.734-8.528-.43-.249-6.571-1.66-9.077-2.086-4.616-.784-6.882-.584-14.094 1.243-5.045 1.279-8.293 1.715-12.765 1.715-5.471 0-8.288-.47-15.949-2.66-6.514-1.863-7.686-2.088-10.828-2.078-3.149.01-5.091.379-11.638 2.208-6.357 1.776-8.617 2.195-11.833 2.196-3.178 0-3.99-.167-9.304-1.903-6.67-2.18-7.307-2.304-11.736-2.29-3.563.01-3.962.052-6.238.661-1.337.358-3.24.948-4.23 1.311-2.153.792-5.822 2.589-5.794 2.839.05.461 5.08 8.782 5.266 8.712.117-.044 1.116-.477 2.22-.962zm-.846-15.442c1.337-.33 2.788-.657 3.224-.728l.793-.13V133.217h-7.189v33.432c0 31.757.018 33.425.37 33.283.203-.082 1.464-.42 2.802-.748zm107.208-.302c1.22-.005 2.767.064 3.436.152l1.216.16V133.217h-8.247v65.964l.687-.145c.378-.08 1.686-.149 2.908-.153zm22.486-14.301c2.52-4.372 4.58-8.012 4.58-8.088 0-.077-2.141-.14-4.758-.14h-4.758v8.29c0 4.559.08 8.198.179 8.088.098-.11 2.239-3.778 4.757-8.15zm-145.765-.72v-7.507h-4.44c-2.443 0-4.441.05-4.441.11 0 .16 8.708 14.903 8.802 14.903.043 0 .08-3.378.08-7.507zm46.52 2.854v-2.749H162.61v5.498H176.142v-2.749zm30.238 0v-2.749H192.001v5.498h14.38v-2.749zm30.027 0v-2.749H222.028v5.498h14.38v-2.749zm-68.565-20.259c1.723-3.5 3.635-6.153 6.507-9.024 4.774-4.775 10.736-8.074 17.07-9.449l2.273-.493v-6.66h-8.776c-4.826 0-8.77-.072-8.763-.16.012-.155 23.712-18.075 24.058-18.19.21-.07 24.215 17.84 24.318 18.142.045.133-3.04.207-8.617.207h-8.687v7.125l1.639.47c9.635 2.771 17.93 9.765 22.152 18.679l.976 2.061h4.414v-46.943h-8.881v-9.939h-54.556v9.94h-10.361v46.942l1.956-.012 1.956-.011 1.32-2.685zm162.12-76.348c23.337-40.4 42.395-73.49 42.35-73.534-.044-.044-77.92-.057-173.058-.028L26.277 16.6 70.07 90.767l43.794 74.168h15.759v-31.719h-25.376v-11.418h16.917v-9.939h-16.917v-6.343H90.503v-13.11H141.252v-8.247H154.785v-6.766h13.111v-8.036h63.86v8.036h13.109v6.766H258.398v8.247h51.807v13.11h-13.956v6.344H279.12V121.798h17.128v11.419H270.45v31.713l8.089.056 8.088.055.45-.74c.249-.407 19.546-33.794 42.883-74.193zm-29.755-7.83c-9.977-4.4-18.196-8.057-18.265-8.126-.114-.114 14.2-34.92 14.516-35.3.104-.125 38.163 15.308 38.444 15.59.037.037-3.53 8.094-7.928 17.903-5.032 11.224-8.113 17.853-8.312 17.884-.174.027-8.479-3.551-18.455-7.951zm21.411-12.252c3.162-6.9 5.717-12.577 5.679-12.614-.23-.223-27.737-11.102-27.831-11.007-.152.152-10.996 24.523-10.942 24.591.18.227 27.104 11.818 27.21 11.713.074-.075 2.723-5.782 5.884-12.683zm-12.356 9.28c-2.67-1.258-5.073-2.481-5.34-2.719-.64-.57-.62-1.385.071-3.113.305-.762.52-1.41.476-1.441a6.301 6.301 0 0 0-.53-.255c-.45-.2-.449-.21.326-1.998.704-1.624.84-1.803 1.404-1.863.604-.063.685-.216 2.501-4.713 1.033-2.556 1.842-4.674 1.798-4.707-.044-.033-2.953-1.229-6.464-2.658l-6.384-2.598.493-1.087.946-2.087.454-1 .891.354c.49.195 3.348 1.374 6.352 2.62l5.46 2.266.42-.981c.232-.54.451-1.012.488-1.048.06-.06 4.373 1.602 4.511 1.738.032.031-.136.512-.375 1.068-.238.556-.407 1.034-.375 1.06.21.178 1.451.737 1.633.737.129 0 .222-.496.222-1.177 0-1.065.039-1.165.407-1.048.224.071 1.2.395 2.168.72l1.76.591.061 1.595.062 1.595.962.27c.53.148 1.01.391 1.066.54.158.41-1.037 3.893-1.336 3.893-.144 0-2.137-.766-4.43-1.7-2.294-.936-4.25-1.62-4.35-1.522-.098.098-.93 2.05-1.85 4.339l-1.67 4.16.773.215c.426.118.878.215 1.005.216.46.002.983-.855 2.338-3.837.758-1.669 1.457-3.115 1.552-3.215.094-.099 1.219.222 2.498.712l2.326.892-.798 1.72c-2.641 5.694-3.811 7.908-4.373 8.277-.961.63-2.3.636-4.555.021-1.114-.303-2.131-.552-2.261-.552-.13 0-.236.269-.236.597 0 .564.182.68 3.406 2.167 1.874.864 3.452 1.684 3.507 1.822.147.368-1.466 3.338-1.838 3.382-.174.02-2.502-.991-5.172-2.249zm-13.542-6.597c-3.024-1.406-5.567-2.62-5.653-2.697-.172-.156 1.295-3.826 1.529-3.826.459 0 11.112 5.084 11.162 5.327.033.16-.3 1.071-.74 2.023l-.8 1.73-5.498-2.557zm2.024-5.333c-2.84-1.303-5.2-2.472-5.242-2.598-.042-.127.922-2.407 2.143-5.068 1.544-3.366 2.322-4.837 2.557-4.837.543 0 10.454 4.207 10.46 4.44.008.295-4.516 10.47-4.647 10.449-.058-.01-2.43-1.083-5.27-2.386zm4.35-4.488c.407-.883.71-1.634.673-1.67-.107-.101-3.918-1.8-4.038-1.8-.138 0-1.503 3.381-1.397 3.461.178.135 3.687 1.602 3.847 1.608.095.004.506-.716.914-1.599zM75.295 71.134c-4.918-9.954-8.862-18.17-8.762-18.257.277-.243 11.273-4.534 11.364-4.435.18.195 1.82 3.58 1.82 3.755 0 .104-.78.472-1.733.818-.954.347-1.764.72-1.8.83-.037.11.056.367.207.573.258.353.378.337 2.128-.297 1.02-.369 1.887-.636 1.925-.594.18.198 1.811 3.58 1.811 3.755 0 .11-.85.503-1.888.874-1.836.657-1.881.69-1.657 1.18.287.632.344.628 2.276-.135.873-.344 1.684-.627 1.804-.627.197 0 2.003 3.387 2.003 3.758 0 .086-.846.484-1.88.884l-1.88.727.335.702c.184.387.395.677.468.646.073-.031 1.523-.628 3.223-1.326l3.09-1.268.347-1.235c.19-.68.316-1.263.278-1.298-.28-.253-5.311-2.648-5.564-2.648-.409 0-.437.183.504-3.266l.804-2.95-3.034-1.476c-1.67-.812-3.033-1.531-3.032-1.597.002-.067 1.113-.566 2.47-1.11l2.464-.99 1.014.514c.557.282 1.061.514 1.12.514.059 0 .254-.5.434-1.11l.327-1.11 2.466-1.002c1.357-.55 2.493-.975 2.524-.943.032.032-.317 1.428-.775 3.102s-.81 3.065-.784 3.091c.125.123 4.378 2.153 5.178 2.473.839.335 1.124.655.73.82-.153.064-1.523 4.92-1.523 5.397 0 .11.547.46 1.215.78l1.216.58 3.384-1.41a371.99 371.99 0 0 1 3.85-1.591c.418-.16.444-.249.244-.822-.123-.354-.3-.643-.395-.643-.094 0-1.193.428-2.442.951-1.25.524-2.357.952-2.461.952-.205 0-1.862-3.468-1.862-3.897 0-.142 1.11-.68 2.467-1.195s2.5-1.035 2.54-1.156c.04-.12-.05-.388-.202-.594-.258-.353-.43-.319-2.903.579-1.446.525-2.638.936-2.65.913-.197-.41-1.578-3.9-1.578-3.989 0-.069 1.141-.536 2.537-1.04 2.51-.905 2.807-1.133 2.37-1.822-.117-.184-.863.064-2.693.893-1.393.631-2.627 1.15-2.743 1.152-.188.004-1.69-3.431-1.691-3.87-.001-.249 13.066-5.244 13.225-5.055.104.122 14.798 35.081 15.318 36.44.103.271-.6.634-3.584 1.85-2.043.833-3.79 1.514-3.882 1.514-.092 0-1.669-3.755-3.503-8.343l-3.335-8.343-.988.392c-2.018.8-20.662 8.516-20.908 8.652-.178.099.902 2.608 3.552 8.252 2.094 4.46 3.779 8.13 3.744 8.155-.11.078-7.534 3.076-7.62 3.076-.044 0-4.105-8.145-9.024-18.1zM90.221 55.11l.212-.926-.923-.449c-.68-.33-.945-.379-1.006-.183l-.28.899c-.187.6-.15.66.67 1.1.478.257.924.47.992.476.067.005.218-.407.335-.917zm3.334 29.36l-.62-1.499c-.175-.42-.318-.886-.318-1.032 0-.147 1.166-.72 2.59-1.273 1.425-.553 2.631-1.04 2.68-1.082.115-.1-.863-2.19-1.024-2.19-.067 0-1.487.571-3.155 1.269-1.667.697-3.147 1.268-3.287 1.268-.258 0-2.192-3.719-2.02-3.887.05-.05 1.47-.66 3.153-1.354 2.877-1.187 3.07-1.303 3.236-1.942.096-.374.147-.753.112-.843-.035-.09-1.488.44-3.23 1.179-1.74.738-3.226 1.272-3.302 1.187-.354-.396-1.865-4.171-1.725-4.31.215-.214 17.164-7.158 17.471-7.158.135 0 .547.852.917 1.894l.672 1.894-1.004 1.542c-.552.848-1.077 1.663-1.166 1.81-.163.27.526.033 3.26-1.117.72-.303 1.42-.508 1.559-.455.223.085 1.603 3.292 1.603 3.724 0 .094-1.14.635-2.535 1.202-1.394.567-2.536 1.103-2.538 1.19-.001.089.58 1.261 1.293 2.606.715 1.348 1.213 2.521 1.11 2.614-.101.092-3.165 1.366-6.807 2.832L93.858 85.2l-.303-.732zm166.812-15.395c-10.49-2.35-19.125-4.327-19.19-4.392-.066-.065.231-1.8.66-3.854.612-2.94.849-3.733 1.11-3.726.183.005 1.487.274 2.899.599l2.566.59.355-2.344c.532-3.51 1.53-8.48 2.087-10.398l.495-1.7-2.822-.603c-2.319-.495-2.803-.662-2.718-.937.057-.185.43-1.888.829-3.786.398-1.899.76-3.487.802-3.53.043-.042 3.493.682 7.667 1.61 4.174.927 7.653 1.611 7.731 1.52.078-.092.491-1.348.918-2.793.426-1.444.813-2.664.86-2.71.08-.081 9.034 2.043 9.19 2.18.043.038-.172 1.192-.476 2.564-.305 1.372-.554 2.642-.553 2.822 0 .255 1.22.596 5.551 1.553 3.053.675 6.177 1.367 6.942 1.539l1.391.311-.895 3.701c-.493 2.036-.955 3.76-1.028 3.834-.117.117-3.37-.468-4.049-.728-.176-.068-.343.305-.507 1.13-.403 2.033-1.615 6.567-2.622 9.809-.594 1.914-.866 3.096-.73 3.18.118.073 1.262.353 2.542.622 1.28.268 2.364.59 2.408.715.044.125-.328 1.845-.827 3.822-.623 2.47-1.002 3.607-1.21 3.634-.168.022-8.887-1.884-19.376-4.234zm7.486-8.28c1.224-3.589 3.59-12.334 3.381-12.494-.023-.018-2.326-.535-5.117-1.148-2.792-.613-5.188-1.157-5.326-1.208-.294-.11-.667 1.056-1.44 4.503-.54 2.406-1.49 7.774-1.623 9.171l-.07.728 4.44.996c2.443.547 4.623.981 4.846.963.302-.023.532-.405.91-1.512zM124.23 69.517c-2.093-.827-3.843-1.533-3.889-1.568-.046-.034.514-1.373 1.244-2.975 2.215-4.86 3.933-9.602 4.415-12.182.168-.9.15-1.012-.155-.928-.19.052-2.136.597-4.323 1.211-2.29.643-4.052 1.036-4.153.928-.23-.247-2.624-6.845-2.52-6.948.042-.043 2.552-.767 5.575-1.61 3.024-.841 5.529-1.554 5.566-1.583.115-.089-.767-5.03-1.245-6.97-.247-1.003-.406-1.866-.353-1.918.136-.136 8.118-2.412 8.446-2.408.164.002.858 1.678 1.73 4.177.802 2.295 1.483 4.203 1.512 4.24.03.036 3.015-.763 6.634-1.778 3.618-1.014 6.612-1.805 6.652-1.758.04.047.605 1.684 1.254 3.639.809 2.435 1.101 3.579.928 3.635-.138.046-2.868.81-6.066 1.698-3.198.888-5.845 1.645-5.882 1.682-.038.038.866.689 2.008 1.447 2.712 1.803 7.061 4.113 11.856 6.298 2.122.967 3.859 1.836 3.859 1.93 0 .511-2.848 7.774-3.049 7.774-1.393 0-15.355-6.607-19.08-9.03-.442-.287-.472-.244-1.034 1.46-1.154 3.497-5.538 13.09-5.967 13.055-.086-.007-1.87-.69-3.963-1.518zm46.15-6.196c-2.18-1.101-3.965-2.06-3.965-2.13 0-.07.465-.712 1.033-1.426 1.157-1.454 3.196-4.37 3.196-4.57 0-.071-2.14.105-4.756.391-2.616.287-4.8.479-4.852.427-.105-.105-1.176-6.3-1.176-6.802 0-.244.41-.35 1.798-.466 1.144-.095 1.794-.238 1.79-.395-.005-.135-.373-3.004-.818-6.377-.446-3.373-.752-6.19-.68-6.26.072-.071 2.533-.445 5.47-.831l5.339-.702-.004-.544c-.002-.3-.143-1.448-.313-2.553s-.311-2.203-.313-2.44c-.004-.4.303-.473 4.251-1.027 3.312-.464 4.292-.538 4.417-.335.089.144.334 1.487.546 2.984l.385 2.724.643-.107c1.784-.297 10.317-1.394 10.377-1.335.06.06 2.214 13.128 2.214 13.43 0 .061.714.045 1.586-.037 1.45-.136 1.586-.115 1.595.24.005.213.179 1.8.387 3.527.263 2.186.308 3.16.15 3.21-.126.037-2.25.282-4.72.543-4.034.425-4.445.504-4.056.777.238.167 1.997 1.06 3.909 1.984 1.911.924 3.475 1.724 3.475 1.778 0 .303-4.314 6.648-4.52 6.648-.136 0-1.386-.575-2.778-1.279-2.743-1.386-6.6-3.866-8.17-5.253-.542-.478-1.033-.869-1.092-.869-.059 0-.51.738-1.002 1.639-1.201 2.2-3.122 4.988-4.364 6.336l-1.017 1.102-3.965-2.002zm3.178-18.972l.058-3.121-1.221.126c-.672.069-1.326.157-1.454.195-.164.048-.12.901.149 2.89.21 1.55.385 2.897.39 2.99.006.094.462.142 1.015.106l1.004-.064.059-3.122zm11.307 1.853c.866-.084 1.429-.237 1.431-.387.002-.136-.204-1.514-.457-3.062l-.461-2.815-1.393.145c-.766.08-1.415.163-1.442.185-.026.022.012 1.439.086 3.15.117 2.703.179 3.097.472 3.016.185-.05.979-.155 1.764-.232zm37.281 18.258c-2.784-.22-5.104-.443-5.156-.494-.05-.05.016-1.827.148-3.947s.168-3.917.08-3.992c-.087-.076-3.203-.302-6.924-.504-3.72-.201-6.771-.383-6.779-.403-.021-.056 1.023-23.291 1.049-23.334.012-.02 3.019.144 6.682.364 3.662.22 6.86.403 7.107.407.427.006.456-.127.601-2.743l.152-2.749 1.091.015c1.805.024 9.21.526 9.289.63.04.052.007 1.285-.073 2.739-.08 1.453-.124 2.668-.096 2.7.027.031 2.92.217 6.43.413 3.508.196 6.483.42 6.61.5.163.1-.052 3.49-.738 11.614-.533 6.31-.996 11.5-1.029 11.532-.033.033-2.89-.1-6.35-.296l-6.291-.356-.002 2.752c-.003 3.462-.197 5.616-.505 5.58-.129-.015-2.512-.207-5.297-.428zm10.88-16.408c.003-.087.139-1.631.305-3.431.166-1.8.279-3.296.25-3.324-.028-.028-1.106-.116-2.395-.194l-2.344-.142-.155 3.317c-.086 1.824-.103 3.37-.04 3.433.065.064 1.004.19 2.088.278 1.085.089 2.043.175 2.13.192.087.016.16-.042.161-.129zm-14.916-4.296c.084-1.753.113-3.227.062-3.278-.05-.05-1.236-.152-2.636-.228l-2.546-.137-.139 2.305c-.076 1.267-.192 2.751-.257 3.298l-.118.993 1.34.076c.737.042 1.97.094 2.74.116l1.4.041.154-3.186z" fill="#da0028"/><path d="M199.665 340.62C197.029 336.221 0 .206 0 .11 0 .05 90.027 0 200.06 0 375.818 0 400.103.038 400 .31c-.158.411-198.9 341.668-199.114 341.895-.09.097-.64-.617-1.221-1.586zm5.866-35.733c2.307-3.993 4.152-7.328 4.1-7.412-.146-.238-4.444-1.576-6.255-1.948-2.331-.48-4.038-.426-6.177.194-1.903.552-4.563 1.666-4.563 1.912 0 .212 8.553 14.66 8.632 14.582.038-.037 1.956-3.335 4.263-7.328zm-13.677-18.802c2.581-.938 5.265-1.843 5.962-2.01 1.831-.438 5.425-.601 7.507-.34 7.196.904 10.186 1.33 10.703 1.528.499.19.644.163.878-.156.516-.705 3.855-6.57 3.855-6.772 0-.109-.5-.314-1.11-.455-2.083-.481-3.4-.512-5.654-.134-3.17.533-6.011.364-8.778-.521-2.537-.812-3.985-.793-7.506.099-1.654.419-3.164.617-5.921.777-2.035.118-4.192.306-4.792.417-1.014.188-4.512 1.715-4.512 1.97 0 .094 2.072 3.654 3.85 6.615.228.378.506.688.619.688.112 0 2.317-.768 4.899-1.706zm-12.613-17.239c1.662-.495 2.401-.576 6.628-.729 3.002-.108 5.148-.283 5.815-.475.582-.167 1.887-.55 2.901-.853 4.167-1.242 8.307-1.288 11.529-.13 3.874 1.393 5.447 1.723 8.725 1.829 2.377.077 3.422.02 4.652-.254.872-.194 2.928-.406 4.568-.47l2.983-.118 1.915-3.302 1.914-3.302-.985-.244c-1.674-.415-3.523-.32-6.456.331-5.379 1.194-6.833 1.082-13.313-1.026-5.163-1.68-6.837-2.002-9.648-1.857-2.486.127-3.73.462-7.833 2.103l-2.643 1.058-2.432-.183c-1.338-.1-3.812-.182-5.498-.182h-3.066l-1.692.805c-1.877.894-4.383 2.455-4.29 2.672.034.077.77 1.34 1.637 2.808l1.576 2.668.572-.296c.314-.162 1.413-.546 2.441-.853zM167.427 252.4c.548-.275 1.758-.77 2.689-1.097 2.186-.77 5.34-.917 9.312-.43 3.183.389 5.274.426 6.888.123.627-.118 3.423-.967 6.214-1.887 2.985-.983 5.804-1.777 6.846-1.928 3.423-.496 6.68.072 13.348 2.326 2.384.806 4.84 1.566 5.455 1.69 1.734.347 4.937.268 7.2-.179 3.058-.603 4.74-.696 7.54-.415 4.165.418 3.53.725 5.528-2.67.959-1.629 1.748-3.038 1.755-3.131.03-.444-4.104-1.839-5.452-1.839-.354 0-2.148.399-3.987.886-3.123.828-3.53.887-6.197.894-3.307.009-3.723-.086-9.391-2.128-5.772-2.08-6.78-2.293-10.803-2.278l-3.384.012-3.374.99c-5.122 1.506-6.48 1.704-11.745 1.718-3.26.009-5.44-.1-7.705-.387-5.113-.645-7.725-.247-12.928 1.97-3.467 1.479-3.368 1.032-1.086 4.924 1.071 1.828 2.023 3.327 2.114 3.33.09.005.614-.218 1.163-.494zm-10.293-17.906c5.51-2.781 13.819-3.766 20.488-2.428 2.013.404 3.798.606 6.051.685 3.78.133 5.486-.142 8.94-1.44 3.379-1.268 5.336-1.718 7.952-1.825 2.858-.116 4.409.184 7.726 1.495 4.889 1.933 8.223 2.657 12.997 2.824 2.926.103 3.36.067 5.604-.46 1.337-.314 3.43-.802 4.652-1.086 4.545-1.055 8.572-.88 13.21.575 1.482.464 1.96.54 2.14.342.363-.401 4.315-7.307 4.315-7.54 0-.69-5.234-1.379-9.284-1.22-2.548.1-3.283.222-6.47 1.081-5.154 1.39-6.878 1.66-10.572 1.659-4.724-.003-7.877-.623-15.86-3.121-2.79-.874-5.927-1.746-6.97-1.938-2.57-.474-3.972-.22-7.706 1.4-4.555 1.977-4.803 2.023-10.698 2.007-4.403-.011-5.803-.104-10.573-.7-7.207-.901-10.43-1.046-12.763-.573-1.923.39-4.05 1.174-6.428 2.372-2.417 1.217-2.519 1.303-2.182 1.842.156.251 1.109 1.86 2.116 3.575 1.008 1.716 1.878 3.12 1.934 3.12.056 0 .677-.291 1.38-.646zm-10.595-19.867c5.041-2.212 10.213-3.527 14.696-3.735 3.134-.146 4.703.069 10.255 1.402 6.026 1.448 7.941 1.757 10.996 1.776 3.237.02 4.255-.195 8.556-1.804 4.485-1.677 6.454-2.142 9.1-2.15 2.527-.008 3.69.248 6.767 1.489 4.575 1.844 8.935 2.677 15.33 2.928 4.107.162 5.7-.036 11.877-1.475 5.295-1.233 7.63-1.6 10.194-1.6 2.622 0 6.15.691 10.264 2.016 1.908.614 3.104.902 3.23.775.592-.591 4.934-8.413 4.734-8.528-.43-.249-6.571-1.66-9.077-2.086-4.616-.784-6.882-.584-14.094 1.243-5.045 1.279-8.293 1.715-12.765 1.715-5.471 0-8.288-.47-15.949-2.66-6.514-1.863-7.686-2.088-10.828-2.078-3.149.01-5.091.379-11.638 2.208-6.357 1.776-8.617 2.195-11.833 2.196-3.178 0-3.99-.167-9.304-1.903-6.67-2.18-7.307-2.304-11.736-2.29-3.563.01-3.962.052-6.238.661-1.337.358-3.24.948-4.23 1.311-2.153.792-5.822 2.589-5.794 2.839.05.461 5.08 8.782 5.266 8.712.117-.044 1.116-.477 2.22-.962zm-.846-15.442c1.337-.33 2.788-.657 3.224-.728l.793-.13V133.217h-7.189v33.432c0 31.757.018 33.425.37 33.283.203-.082 1.464-.42 2.802-.748zm107.208-.302c1.22-.005 2.767.064 3.436.152l1.216.16V133.217h-8.247v65.964l.687-.145c.378-.08 1.686-.149 2.908-.153zm22.486-14.301c2.52-4.372 4.58-8.012 4.58-8.088 0-.077-2.141-.14-4.758-.14h-4.758v8.29c0 4.559.08 8.198.179 8.088.098-.11 2.239-3.778 4.757-8.15zm-145.765-.72v-7.507h-4.44c-2.443 0-4.441.05-4.441.11 0 .16 8.708 14.903 8.802 14.903.043 0 .08-3.378.08-7.507zm46.52 2.854v-2.749H162.61v5.498H176.142v-2.749zm30.238 0v-2.749H192.001v5.498h14.38v-2.749zm30.027 0v-2.749H222.028v5.498h14.38v-2.749zm-68.565-20.259c1.723-3.5 3.635-6.153 6.507-9.024 4.774-4.775 10.736-8.074 17.07-9.449l2.273-.493v-6.66h-8.776c-4.826 0-8.77-.072-8.763-.16.012-.155 23.712-18.075 24.058-18.19.21-.07 24.215 17.84 24.318 18.142.045.133-3.04.207-8.617.207h-8.687v7.125l1.639.47c9.635 2.771 17.93 9.765 22.152 18.679l.976 2.061h4.414v-46.943h-8.881v-9.939h-54.556v9.94h-10.361v46.942l1.956-.012 1.956-.011 1.32-2.685zm162.12-76.348c23.337-40.4 42.395-73.49 42.35-73.534-.044-.044-77.92-.057-173.058-.028L26.277 16.6 70.07 90.767l43.794 74.168h15.759v-31.719h-25.376v-11.418h16.917v-9.939h-16.917v-6.343H90.503v-13.11H141.252v-8.247H154.785v-6.766h13.111v-8.036h63.86v8.036h13.109v6.766H258.398v8.247h51.807v13.11h-13.956v6.344H279.12V121.798h17.128v11.419H270.45v31.713l8.089.056 8.088.055.45-.74c.249-.407 19.546-33.794 42.883-74.193z" fill="#0c4498"/><path d="M134.107 199.216l-4.485-7.588v-15.274h-9.028l-3.257-5.529c-1.791-3.04-3.289-5.61-3.327-5.709-.04-.1 3.458-.18 7.77-.18h7.842v-31.72h-25.375v-11.418h16.917v-9.939h-16.917v-6.343H90.503v-13.11H141.252v-8.247H154.785v-6.766h13.111v-8.036h63.86v8.036h13.109v6.766H258.398v8.247h51.807v13.11h-13.956v6.344H279.12V121.798h17.128v11.419H270.45v31.719h8.058c7.587 0 8.05.02 7.917.37-.078.203-1.525 2.772-3.215 5.709l-3.073 5.339H270.451V193.093l-3.621 6.274c-1.992 3.45-3.652 6.308-3.689 6.35-.037.041-1.666-.314-3.62-.791-6.961-1.699-10.571-2.054-14.258-1.405-.975.171-3.628.782-5.896 1.356-5.045 1.279-8.293 1.715-12.765 1.715-5.471 0-8.288-.47-15.949-2.66-6.514-1.863-7.686-2.088-10.828-2.078-3.149.01-5.091.379-11.638 2.208-6.357 1.776-8.617 2.195-11.833 2.196-3.178 0-3.99-.167-9.304-1.903-6.6-2.157-7.32-2.299-11.63-2.298-3.173.002-3.987.072-5.71.498a44.304 44.304 0 0 0-8.587 3.104c-1.293.63-2.391 1.144-2.441 1.144-.05 0-2.109-3.414-4.575-7.587zm11.586-.032c1.337-.33 2.788-.657 3.224-.728l.793-.13V133.217h-7.189v33.432c0 31.757.018 33.425.37 33.283.203-.082 1.464-.42 2.802-.748zm107.208-.302c1.22-.005 2.767.064 3.436.152l1.216.16V133.217h-8.247v65.964l.687-.145c.378-.08 1.686-.149 2.908-.153zm-76.759-12.167v-2.749H162.61v5.498H176.142v-2.749zm30.238 0v-2.749H192.001v5.498h14.38v-2.749zm30.027 0v-2.749H222.028v5.498h14.38v-2.749zm-68.565-20.259c1.723-3.5 3.635-6.153 6.507-9.024 4.774-4.775 10.736-8.074 17.07-9.449l2.273-.493v-6.66h-8.776c-4.826 0-8.77-.072-8.763-.16.012-.155 23.712-18.075 24.058-18.19.21-.07 24.215 17.84 24.318 18.142.045.133-3.04.207-8.617.207h-8.687v7.125l1.639.47c9.635 2.771 17.93 9.765 22.152 18.679l.976 2.061h4.414v-46.943h-8.881v-9.939h-54.556v9.94h-10.361v46.942l1.956-.012 1.956-.011 1.32-2.685z"/></svg>