<svg xmlns="http://www.w3.org/2000/svg" width="600" height="600"><path d="M298.53 521.851L192.19 335.126l214.881 1.27z" fill="#fff"/><path d="M299.497 554.27C295.543 547.67 0 43.648 0 43.504c0-.09 135.04-.165 300.09-.165 263.637 0 300.064.057 299.91.465-.237.616-298.35 512.501-298.671 512.842-.135.145-.96-.926-1.832-2.38zm8.8-53.6c3.46-5.99 6.227-10.992 6.15-11.118-.22-.357-6.667-2.364-9.383-2.922-3.497-.72-6.057-.639-9.266.291-2.854.828-6.844 2.499-6.844 2.868 0 .318 12.83 21.99 12.948 21.873.057-.056 2.934-5.003 6.394-10.992zm-20.516-28.203c3.871-1.407 7.897-2.765 8.943-3.015 2.746-.657 8.137-.902 11.26-.51 10.794 1.356 15.28 1.995 16.055 2.292.748.285.966.244 1.317-.234.774-1.058 5.782-9.855 5.782-10.158 0-.163-.75-.471-1.665-.682-3.124-.722-5.1-.768-8.48-.201-4.756.799-9.017.546-13.168-.782-3.805-1.218-5.977-1.19-11.259.148-2.48.629-4.746.926-8.881 1.166-3.053.177-6.288.459-7.188.625-1.521.283-6.768 2.573-6.768 2.955 0 .141 3.108 5.481 5.775 9.923.342.567.759 1.032.928 1.032.168 0 3.476-1.152 7.349-2.559zm-18.92-25.858c2.493-.743 3.602-.864 9.942-1.094 4.503-.162 7.722-.424 8.723-.712.873-.251 2.83-.825 4.351-1.28 6.25-1.863 12.46-1.932 17.294-.195 5.81 2.09 8.17 2.585 13.087 2.744 3.566.115 5.133.03 6.978-.381 1.308-.291 4.392-.61 6.852-.705l4.475-.177 2.872-4.953 2.871-4.953-1.477-.366c-2.511-.623-5.285-.48-9.684.496-8.069 1.791-10.25 1.623-19.97-1.539-7.744-2.52-10.255-3.003-14.472-2.785-3.729.19-5.595.693-11.75 3.154l-3.964 1.587-3.648-.274c-2.007-.15-5.718-.273-8.247-.273h-4.599l-2.538 1.207c-2.815 1.341-6.574 3.683-6.435 4.008.051.116 1.155 2.01 2.456 4.212l2.364 4.002.858-.444c.47-.243 2.12-.819 3.661-1.28zm-17.72-24.67c.821-.412 2.636-1.154 4.033-1.645 3.279-1.155 8.01-1.375 13.968-.645 4.774.584 7.91.639 10.332.185.94-.177 5.134-1.451 9.32-2.831 4.478-1.474 8.707-2.665 10.27-2.892 5.134-.744 10.02.108 20.022 3.489 3.576 1.209 7.26 2.349 8.182 2.535 2.601.52 7.406.402 10.8-.268 4.587-.905 7.11-1.044 11.31-.623 6.248.627 5.295 1.088 8.292-4.005 1.439-2.443 2.622-4.557 2.633-4.696.045-.666-6.156-2.759-8.178-2.759-.531 0-3.222.599-5.98 1.329-4.685 1.242-5.296 1.33-9.296 1.341-4.96.014-5.585-.129-14.087-3.192-8.658-3.12-10.17-3.44-16.204-3.417l-5.076.018-5.061 1.485c-7.683 2.259-9.72 2.556-17.618 2.577-4.89.014-8.16-.15-11.557-.58-7.67-.968-11.588-.371-19.392 2.955-5.2 2.218-5.052 1.548-1.63 7.386 1.607 2.742 3.035 4.99 3.172 4.995.135.008.92-.327 1.744-.741zm-15.44-26.858c8.265-4.172 20.728-5.65 30.732-3.642 3.02.606 5.697.909 9.076 1.027 5.67.2 8.23-.213 13.41-2.16 5.069-1.902 8.004-2.577 11.928-2.737 4.287-.174 6.614.276 11.59 2.242 7.333 2.9 12.334 3.986 19.495 4.236 4.389.155 5.04.1 8.406-.69a3712.5 3712.5 0 0 1 6.978-1.629c6.817-1.582 12.858-1.32 19.815.863 2.223.696 2.94.81 3.21.513.544-.602 6.472-10.96 6.472-11.31 0-1.035-7.85-2.069-13.926-1.83-3.822.15-4.924.333-9.705 1.621-7.73 2.085-10.317 2.49-15.858 2.489-7.086-.005-11.815-.935-23.79-4.682-4.185-1.31-8.89-2.619-10.455-2.907-3.855-.71-5.958-.33-11.559 2.1-6.832 2.966-7.204 3.035-16.047 3.01-6.604-.016-8.704-.155-15.86-1.05-10.81-1.35-15.644-1.568-19.144-.859-2.884.585-6.075 1.761-9.642 3.558-3.625 1.826-3.778 1.955-3.273 2.763.234.377 1.664 2.79 3.174 5.363 1.512 2.574 2.817 4.68 2.901 4.68.084 0 1.016-.437 2.07-.97zm-15.893-29.8c7.562-3.319 15.32-5.291 22.044-5.603 4.701-.22 7.055.103 15.383 2.103 9.039 2.172 11.911 2.635 16.494 2.664 4.855.03 6.382-.293 12.834-2.706 6.727-2.516 9.68-3.213 13.65-3.225 3.79-.012 5.535.372 10.15 2.233 6.863 2.766 13.403 4.016 22.995 4.392 6.16.243 8.55-.054 17.816-2.212 7.942-1.85 11.445-2.4 15.29-2.4 3.934 0 9.226 1.036 15.397 3.024 2.862.92 4.656 1.353 4.845 1.162.888-.886 7.4-12.62 7.1-12.792-.644-.373-9.856-2.49-13.615-3.129-6.924-1.176-10.323-.876-21.14 1.865-7.568 1.918-12.44 2.572-19.148 2.572-8.207 0-12.432-.705-23.924-3.99-9.77-2.794-11.529-3.132-16.242-3.117-4.722.015-8.125.659-16.97 3.204-9.142 2.631-13.121 3.37-18.236 3.386-4.892.013-6.678-.357-14.51-3.014-8.614-2.92-10.516-3.285-17.05-3.262-5.34.018-5.945.08-9.357.994-2.006.537-4.86 1.422-6.345 1.967-3.23 1.188-8.733 3.883-8.691 4.258.075.692 7.62 13.173 7.899 13.068a212.89 212.89 0 0 0 3.33-1.443z" fill="#fde400"/><path d="M299.497 554.27C295.543 547.67 0 43.648 0 43.504c0-.09 135.04-.165 300.09-.165 263.637 0 300.064.057 299.91.465-.237.616-298.35 512.501-298.671 512.842-.135.145-.96-.926-1.832-2.38zm8.8-53.6c3.46-5.99 6.227-10.992 6.15-11.118-.22-.357-6.667-2.364-9.383-2.922-3.497-.72-6.057-.639-9.266.291-2.854.828-6.844 2.499-6.844 2.868 0 .318 12.83 21.99 12.948 21.873.057-.056 2.934-5.003 6.394-10.992zm-20.516-28.203c3.871-1.407 7.897-2.765 8.943-3.015 2.746-.657 8.137-.902 11.26-.51 10.794 1.356 15.28 1.995 16.055 2.292.748.285.966.244 1.317-.234.774-1.058 5.782-9.855 5.782-10.158 0-.163-.75-.471-1.665-.682-3.124-.722-5.1-.768-8.48-.201-4.756.799-9.017.546-13.168-.782-3.805-1.218-5.977-1.19-11.259.148-2.48.629-4.746.926-8.881 1.166-3.053.177-6.288.459-7.188.625-1.521.283-6.768 2.573-6.768 2.955 0 .141 3.108 5.481 5.775 9.923.342.567.759 1.032.928 1.032.168 0 3.476-1.152 7.349-2.559zm-18.92-25.858c2.493-.743 3.602-.864 9.942-1.094 4.503-.162 7.722-.424 8.723-.712.873-.251 2.83-.825 4.351-1.28 6.25-1.863 12.46-1.932 17.294-.195 5.81 2.09 8.17 2.585 13.087 2.744 3.566.115 5.133.03 6.978-.381 1.308-.291 4.392-.61 6.852-.705l4.475-.177 2.872-4.953 2.871-4.953-1.477-.366c-2.511-.623-5.285-.48-9.684.496-8.069 1.791-10.25 1.623-19.97-1.539-7.744-2.52-10.255-3.003-14.472-2.785-3.729.19-5.595.693-11.75 3.154l-3.964 1.587-3.648-.274c-2.007-.15-5.718-.273-8.247-.273h-4.599l-2.538 1.207c-2.815 1.341-6.574 3.683-6.435 4.008.051.116 1.155 2.01 2.456 4.212l2.364 4.002.858-.444c.47-.243 2.12-.819 3.661-1.28zm-17.72-24.67c.821-.412 2.636-1.154 4.033-1.645 3.279-1.155 8.01-1.375 13.968-.645 4.774.584 7.91.639 10.332.185.94-.177 5.134-1.451 9.32-2.831 4.478-1.474 8.707-2.665 10.27-2.892 5.134-.744 10.02.108 20.022 3.489 3.576 1.209 7.26 2.349 8.182 2.535 2.601.52 7.406.402 10.8-.268 4.587-.905 7.11-1.044 11.31-.623 6.248.627 5.295 1.088 8.292-4.005 1.439-2.443 2.622-4.557 2.633-4.696.045-.666-6.156-2.759-8.178-2.759-.531 0-3.222.599-5.98 1.329-4.685 1.242-5.296 1.33-9.296 1.341-4.96.014-5.585-.129-14.087-3.192-8.658-3.12-10.17-3.44-16.204-3.417l-5.076.018-5.061 1.485c-7.683 2.259-9.72 2.556-17.618 2.577-4.89.014-8.16-.15-11.557-.58-7.67-.968-11.588-.371-19.392 2.955-5.2 2.218-5.052 1.548-1.63 7.386 1.607 2.742 3.035 4.99 3.172 4.995.135.008.92-.327 1.744-.741zm-15.44-26.858c8.265-4.172 20.728-5.65 30.732-3.642 3.02.606 5.697.909 9.076 1.027 5.67.2 8.23-.213 13.41-2.16 5.069-1.902 8.004-2.577 11.928-2.737 4.287-.174 6.614.276 11.59 2.242 7.333 2.9 12.334 3.986 19.495 4.236 4.389.155 5.04.1 8.406-.69a3712.5 3712.5 0 0 1 6.978-1.629c6.817-1.582 12.858-1.32 19.815.863 2.223.696 2.94.81 3.21.513.544-.602 6.472-10.96 6.472-11.31 0-1.035-7.85-2.069-13.926-1.83-3.822.15-4.924.333-9.705 1.621-7.73 2.085-10.317 2.49-15.858 2.489-7.086-.005-11.815-.935-23.79-4.682-4.185-1.31-8.89-2.619-10.455-2.907-3.855-.71-5.958-.33-11.559 2.1-6.832 2.966-7.204 3.035-16.047 3.01-6.604-.016-8.704-.155-15.86-1.05-10.81-1.35-15.644-1.568-19.144-.859-2.884.585-6.075 1.761-9.642 3.558-3.625 1.826-3.778 1.955-3.273 2.763.234.377 1.664 2.79 3.174 5.363 1.512 2.574 2.817 4.68 2.901 4.68.084 0 1.016-.437 2.07-.97zm-15.893-29.8c7.562-3.319 15.32-5.291 22.044-5.603 4.701-.22 7.055.103 15.383 2.103 9.039 2.172 11.911 2.635 16.494 2.664 4.855.03 6.382-.293 12.834-2.706 6.727-2.516 9.68-3.213 13.65-3.225 3.79-.012 5.535.372 10.15 2.233 6.863 2.766 13.403 4.016 22.995 4.392 6.16.243 8.55-.054 17.816-2.212 7.942-1.85 11.445-2.4 15.29-2.4 3.934 0 9.226 1.036 15.397 3.024 2.862.92 4.656 1.353 4.845 1.162.888-.886 7.4-12.62 7.1-12.792-.644-.373-9.856-2.49-13.615-3.129-6.924-1.176-10.323-.876-21.14 1.865-7.568 1.918-12.44 2.572-19.148 2.572-8.207 0-12.432-.705-23.924-3.99-9.77-2.794-11.529-3.132-16.242-3.117-4.723.015-7.636.569-17.457 3.312-9.535 2.664-12.925 3.293-17.75 3.294-4.766 0-5.984-.25-13.955-2.854-10.005-3.27-10.96-3.456-17.604-3.435-5.345.015-5.943.078-9.357.991-2.006.537-4.86 1.422-6.345 1.967-3.23 1.188-8.733 3.883-8.691 4.258.075.692 7.62 13.173 7.899 13.068a212.89 212.89 0 0 0 3.33-1.443zm-1.269-23.164c2.006-.495 4.182-.985 4.836-1.092l1.19-.195v-97.665H213.78v50.148c0 47.636.027 50.138.555 49.925.305-.123 2.196-.63 4.203-1.122zm160.812-.453c1.83-.008 4.15.096 5.154.228l1.824.24v-98.967h-12.37v98.946l1.03-.217c.567-.12 2.53-.224 4.362-.23zm33.73-21.451c3.78-6.558 6.87-12.018 6.87-12.132 0-.116-3.212-.21-7.138-.21h-7.137v12.435c0 6.838.12 12.297.269 12.132.147-.165 3.358-5.667 7.135-12.225zm-218.648-1.08v-11.26h-6.66c-3.665 0-6.662.074-6.662.164 0 .24 13.062 22.355 13.203 22.355.065 0 .12-5.067.12-11.26zm69.78 4.28v-4.123h-20.298v8.247h20.298zm45.357 0v-4.123H288v8.247h21.57v-4.123zm45.04 0v-4.123h-21.568v8.247h21.57v-4.123zm-102.847-30.388c2.584-5.25 5.452-9.23 9.76-13.536 7.161-7.162 16.104-12.11 25.605-14.173l3.41-.74v-9.99h-13.164c-7.24 0-13.155-.108-13.145-.24.018-.232 35.568-27.112 36.087-27.285.315-.105 36.323 26.76 36.477 27.213.068.2-4.56.31-12.925.31h-13.03v10.688l2.458.705c14.452 4.157 26.895 14.648 33.228 28.019l1.464 3.091h6.62v-70.414h-13.32v-14.909h-81.835v14.91h-15.541v70.413l2.934-.018 2.934-.016 1.98-4.028zm243.18-114.522c35.005-60.6 63.592-110.235 63.525-110.3-.066-.067-116.88-.086-259.587-.043l-259.466.08 65.69 111.25 65.69 111.252h23.64v-47.578H156.37v-17.127h25.376v-14.909H156.37v-9.514h-20.616v-19.665h76.124v-12.37h20.3v-10.15h19.666v-12.054h95.79v12.054h19.663v10.15h20.3v12.37h77.71v19.665h-20.934v9.516H418.68v14.907h25.692v17.128h-38.697v47.57l12.133.084 12.132.082.675-1.11c.374-.61 29.32-50.69 64.325-111.29zm-44.633-11.745c-14.965-6.6-27.294-12.085-27.397-12.189-.171-.17 21.3-52.38 21.774-52.95.156-.187 57.244 22.962 57.666 23.385.055.056-5.295 12.141-11.892 26.855-7.548 16.836-12.17 26.78-12.468 26.826-.261.04-12.719-5.327-27.683-11.927zm32.117-18.378c4.743-10.35 8.575-18.865 8.518-18.92-.345-.335-41.605-16.654-41.746-16.511-.228.228-16.494 36.784-16.413 36.886.27.34 40.656 17.727 40.815 17.57.11-.113 4.084-8.673 8.826-19.025zm-18.534 13.92c-4.005-1.887-7.61-3.721-8.01-4.078-.96-.855-.93-2.078.106-4.67.458-1.143.78-2.115.714-2.161a9.451 9.451 0 0 0-.795-.383c-.675-.3-.673-.315.49-2.997 1.055-2.436 1.26-2.704 2.105-2.794.906-.095 1.028-.324 3.752-7.07 1.55-3.834 2.763-7.01 2.697-7.06-.066-.05-4.43-1.844-9.696-3.987l-9.576-3.897.74-1.63 1.418-3.131.681-1.5 1.337.53c.735.293 5.022 2.062 9.528 3.93l8.19 3.4.63-1.472c.348-.81.676-1.518.732-1.572.09-.09 6.56 2.403 6.766 2.607.048.047-.204.768-.562 1.602-.357.834-.61 1.551-.563 1.59.315.267 2.177 1.106 2.45 1.106.193 0 .333-.744.333-1.766 0-1.597.058-1.747.61-1.572.336.107 1.8.593 3.252 1.08l2.64.887.092 2.392.093 2.393 1.443.405c.795.222 1.515.586 1.599.81.237.615-1.556 5.84-2.004 5.84-.216 0-3.206-1.15-6.645-2.55-3.441-1.405-6.375-2.43-6.525-2.284-.147.147-1.395 3.075-2.775 6.509l-2.505 6.24 1.16.322c.638.177 1.316.323 1.507.324.69.003 1.474-1.282 3.507-5.755 1.137-2.504 2.185-4.673 2.328-4.823.14-.148 1.828.333 3.747 1.068l3.489 1.338-1.197 2.58c-3.962 8.541-5.717 11.862-6.56 12.416-1.441.945-3.45.954-6.832.031-1.671-.454-3.197-.828-3.392-.828-.195 0-.354.404-.354.896 0 .846.273 1.02 5.11 3.25 2.81 1.296 5.177 2.526 5.26 2.733.22.552-2.2 5.007-2.757 5.073-.261.03-3.753-1.486-7.758-3.373zm-20.313-9.895c-4.536-2.11-8.35-3.93-8.48-4.046-.258-.234 1.943-5.739 2.294-5.739.688 0 16.668 7.626 16.743 7.99.05.24-.45 1.607-1.11 3.035l-1.2 2.595zm3.036-8c-4.26-1.954-7.8-3.708-7.863-3.897-.063-.19 1.383-3.61 3.214-7.602 2.316-5.049 3.483-7.255 3.836-7.255.814 0 15.68 6.31 15.69 6.66.012.442-6.774 15.705-6.97 15.673-.088-.015-3.646-1.624-7.906-3.579zm6.525-6.732c.61-1.324 1.065-2.45 1.01-2.505-.161-.151-5.878-2.7-6.058-2.7-.207 0-2.254 5.072-2.095 5.192.267.202 5.53 2.403 5.77 2.412.143.006.76-1.074 1.371-2.399zm-340.199 12.368c-7.377-14.931-13.293-27.255-13.143-27.386.416-.364 16.91-6.8 17.046-6.652.27.292 2.73 5.37 2.73 5.632 0 .156-1.17.708-2.6 1.227-1.43.52-2.645 1.08-2.7 1.245-.055.165.085.55.311.86.387.53.567.505 3.192-.446 1.53-.553 2.83-.954 2.888-.89.27.296 2.716 5.37 2.716 5.632 0 .165-1.275.754-2.832 1.31-2.754.986-2.821 1.036-2.485 1.77.43.949.516.943 3.414-.202 1.31-.516 2.526-.94 2.706-.94.295 0 3.004 5.08 3.004 5.637 0 .129-1.269.726-2.82 1.326l-2.82 1.09.503 1.053c.276.58.592 1.016.702.97.11-.047 2.284-.943 4.834-1.99l4.635-1.902.52-1.852c.286-1.02.475-1.895.418-1.947-.42-.38-7.967-3.972-8.346-3.972-.614 0-.656.274.756-4.9l1.206-4.424-4.551-2.214c-2.505-1.218-4.55-2.297-4.548-2.396.003-.1 1.67-.849 3.705-1.665l3.696-1.485 1.52.771c.836.423 1.592.771 1.68.771.09 0 .382-.75.652-1.665l.49-1.665 3.7-1.503c2.035-.825 3.739-1.462 3.785-1.414.048.048-.475 2.142-1.162 4.653-.687 2.51-1.215 4.597-1.176 4.636.187.185 6.567 3.23 7.767 3.71 1.258.502 1.686.982 1.095 1.23-.23.096-2.285 7.38-2.285 8.095 0 .165.82.69 1.823 1.17l1.824.87 5.076-2.115a557.985 557.985 0 0 1 5.775-2.386c.627-.24.666-.374.366-1.233-.185-.531-.45-.965-.593-.965-.14 0-1.79.642-3.663 1.427-1.875.786-3.535 1.428-3.691 1.428-.308 0-2.793-5.202-2.793-5.846 0-.213 1.665-1.02 3.7-1.792 2.036-.773 3.75-1.553 3.81-1.734.06-.18-.075-.582-.303-.891-.387-.53-.645-.479-4.354.868-2.17.788-3.957 1.404-3.975 1.37-.296-.615-2.367-5.85-2.367-5.984 0-.103 1.711-.804 3.805-1.56 3.765-1.357 4.21-1.7 3.555-2.733-.175-.276-1.294.096-4.04 1.34-2.089.946-3.94 1.725-4.114 1.728-.282.006-2.535-5.147-2.536-5.805-.002-.374 19.599-7.866 19.837-7.583.156.183 22.197 52.622 22.977 54.66.155.407-.9.951-5.376 2.775-3.064 1.25-5.685 2.271-5.823 2.271-.138 0-2.503-5.632-5.254-12.514l-5.003-12.515-1.482.588c-3.027 1.2-30.993 12.774-31.362 12.978-.267.149 1.353 3.912 5.328 12.378 3.141 6.69 5.669 12.195 5.616 12.233-.165.117-11.3 4.614-11.43 4.614-.066 0-6.157-12.218-13.536-27.15zm22.39-24.036l.317-1.39-1.384-.673c-1.02-.495-1.418-.568-1.51-.274l-.42 1.348c-.28.9-.224.99 1.006 1.65.717.386 1.386.705 1.488.714.1.008.327-.61.502-1.375zm5 44.04l-.93-2.249c-.262-.63-.477-1.329-.477-1.548 0-.22 1.75-1.08 3.885-1.91 2.138-.829 3.947-1.56 4.02-1.622.173-.15-1.294-3.285-1.536-3.285-.1 0-2.23.856-4.732 1.903-2.5 1.046-4.72 1.902-4.93 1.902-.388 0-3.289-5.578-3.03-5.83.074-.075 2.204-.99 4.729-2.031 4.315-1.78 4.605-1.955 4.854-2.913.144-.561.22-1.13.168-1.265-.053-.135-2.232.66-4.845 1.769-2.61 1.107-4.84 1.908-4.953 1.78-.531-.594-2.798-6.256-2.588-6.465.323-.32 25.746-10.737 26.207-10.737.202 0 .82 1.278 1.375 2.841l1.008 2.841-1.506 2.313a220.481 220.481 0 0 0-1.749 2.715c-.244.405.79.05 4.89-1.675 1.08-.455 2.13-.762 2.339-.683.334.128 2.404 4.938 2.404 5.586 0 .141-1.71.953-3.802 1.803-2.091.85-3.804 1.655-3.807 1.785-.002.134.87 1.892 1.94 3.91 1.072 2.021 1.819 3.78 1.664 3.92-.151.138-4.747 2.05-10.21 4.248l-9.933 3.992-.455-1.098zm250.218-23.093c-15.735-3.525-28.687-6.49-28.785-6.588-.099-.097.347-2.7.99-5.78.918-4.41 1.274-5.6 1.665-5.59.275.008 2.23.411 4.349.899l3.849.885.532-3.516c.798-5.265 2.295-12.72 3.13-15.597l.743-2.55-4.233-.905c-3.478-.742-4.204-.993-4.077-1.405.086-.278.645-2.832 1.244-5.68.597-2.848 1.14-5.23 1.203-5.294.064-.063 5.24 1.023 11.5 2.415 6.261 1.39 11.48 2.416 11.597 2.28.117-.138.736-2.022 1.377-4.19.639-2.166 1.22-3.996 1.29-4.065.12-.121 13.55 3.065 13.785 3.27.064.057-.258 1.788-.714 3.846-.458 2.058-.831 3.963-.83 4.233 0 .383 1.83.894 8.327 2.33 4.58 1.012 9.265 2.05 10.413 2.308l2.086.467-1.342 5.551c-.74 3.054-1.433 5.64-1.542 5.751-.176.176-5.055-.702-6.074-1.092-.264-.102-.514.458-.76 1.695-.605 3.05-2.423 9.85-3.933 14.714-.891 2.87-1.3 4.644-1.095 4.77.177.11 1.893.53 3.813.933 1.92.402 3.546.885 3.612 1.072.066.188-.492 2.768-1.24 5.733-.935 3.705-1.504 5.41-1.816 5.451-.252.033-13.33-2.826-29.064-6.35zm11.23-12.42c1.835-5.383 5.384-18.5 5.07-18.74-.034-.028-3.488-.803-7.675-1.723-4.188-.92-7.782-1.735-7.989-1.812-.44-.165-1 1.584-2.16 6.755-.81 3.609-2.235 11.66-2.434 13.756l-.105 1.092 6.66 1.494c3.664.82 6.934 1.472 7.269 1.445.453-.035.798-.608 1.365-2.268zm-215.435 13.083c-3.14-1.24-5.765-2.3-5.834-2.352-.069-.05.771-2.06 1.866-4.462 3.323-7.29 5.9-14.403 6.623-18.273.252-1.35.225-1.518-.233-1.392-.285.078-3.204.895-6.484 1.816-3.435.965-6.078 1.554-6.23 1.392-.345-.37-3.936-10.267-3.78-10.422.063-.064 3.828-1.15 8.363-2.415 4.536-1.261 8.293-2.33 8.349-2.374.172-.134-1.15-7.545-1.868-10.455-.37-1.505-.609-2.8-.53-2.877.205-.204 12.178-3.618 12.67-3.612.246.003 1.287 2.517 2.595 6.265 1.203 3.443 2.224 6.305 2.268 6.36.045.054 4.522-1.144 9.95-2.667 5.428-1.52 9.919-2.707 9.979-2.637.06.07.907 2.526 1.88 5.459 1.214 3.652 1.652 5.368 1.393 5.452-.207.07-4.302 1.215-9.1 2.547-4.796 1.332-8.767 2.468-8.822 2.523-.057.057 1.299 1.034 3.012 2.17 4.068 2.705 10.591 6.17 17.784 9.448 3.183 1.45 5.788 2.754 5.788 2.895 0 .766-4.272 11.66-4.573 11.66-2.09 0-23.033-9.91-28.62-13.544-.663-.43-.708-.366-1.551 2.19-1.731 5.245-8.307 19.635-8.95 19.582-.13-.01-2.806-1.035-5.945-2.277zm69.225-9.294c-3.27-1.651-5.948-3.09-5.948-3.195 0-.105.698-1.068 1.55-2.139 1.735-2.18 4.794-6.555 4.794-6.855 0-.106-3.21.158-7.134.587-3.924.43-7.2.718-7.278.64-.158-.157-1.764-9.45-1.764-10.203 0-.366.615-.525 2.697-.699 1.716-.142 2.69-.357 2.685-.592-.008-.203-.56-4.506-1.227-9.566-.67-5.06-1.128-9.285-1.02-9.39.108-.106 3.8-.667 8.205-1.246l8.008-1.053-.006-.816c-.003-.45-.214-2.172-.47-3.83-.254-1.657-.466-3.304-.469-3.66-.006-.6.455-.71 6.377-1.54 4.968-.696 6.438-.807 6.625-.503.134.216.501 2.23.82 4.476l.577 4.086.964-.16c2.676-.446 15.476-2.091 15.566-2.003.09.09 3.32 19.692 3.32 20.145 0 .092 1.072.068 2.38-.055 2.175-.204 2.379-.173 2.392.36.008.32.269 2.7.58 5.29.395 3.28.463 4.74.226 4.815-.19.056-3.375.423-7.08.815-6.051.637-6.668.756-6.084 1.165.357.25 2.995 1.59 5.863 2.976 2.867 1.386 5.213 2.586 5.213 2.667 0 .455-6.471 9.972-6.78 9.972-.204 0-2.08-.862-4.167-1.918-4.115-2.08-9.9-5.8-12.255-7.88-.813-.717-1.55-1.303-1.638-1.303-.089 0-.765 1.107-1.503 2.458-1.802 3.3-4.683 7.482-6.546 9.504l-1.526 1.653zm4.767-28.458l.087-4.681-1.832.189c-1.008.103-1.989.235-2.18.292-.247.072-.18 1.352.223 4.335.315 2.325.577 4.346.585 4.485.009.141.693.213 1.522.16l1.506-.097zm16.96 2.78c1.3-.126 2.144-.356 2.147-.58.003-.205-.306-2.272-.686-4.594l-.691-4.222-2.09.217c-1.149.12-2.122.245-2.163.278-.039.033.018 2.158.13 4.725.175 4.054.268 4.645.707 4.524.278-.075 1.469-.233 2.646-.348zm55.922 27.387c-4.176-.33-7.656-.665-7.734-.741-.075-.075.024-2.74.222-5.92.198-3.18.252-5.876.12-5.989-.13-.114-4.805-.453-10.386-.756-5.58-.301-10.157-.574-10.169-.604-.031-.084 1.535-34.937 1.574-35.001.018-.03 4.528.216 10.023.546 5.493.33 10.29.604 10.66.61.64.01.684-.19.902-4.114l.228-4.124 1.636.023c2.708.036 13.815.789 13.934.945.06.078.01 1.927-.11 4.108-.12 2.18-.186 4.002-.144 4.05.04.047 4.38.326 9.645.62 5.262.294 9.725.63 9.915.75.245.15-.078 5.235-1.107 17.42-.8 9.466-1.494 17.25-1.543 17.299-.05.05-4.335-.15-9.525-.444l-9.437-.534-.003 4.128c-.005 5.193-.295 8.424-.757 8.37-.194-.023-3.768-.31-7.946-.642zm16.32-24.612c.005-.13.208-2.447.457-5.147.25-2.7.419-4.944.375-4.986-.042-.042-1.659-.174-3.592-.29l-3.516-.214-.233 4.976c-.129 2.736-.154 5.055-.06 5.15.098.095 1.506.284 3.132.416 1.628.134 3.065.263 3.195.288.13.024.24-.063.242-.193zm-22.374-6.444c.126-2.63.17-4.84.093-4.917-.075-.075-1.854-.228-3.954-.342l-3.82-.206-.208 3.458c-.114 1.9-.288 4.126-.385 4.947l-.177 1.49 2.01.113a175.9 175.9 0 0 0 4.11.174l2.1.062z" fill="#da0028"/><path d="M299.497 554.27C295.543 547.67 0 43.648 0 43.504c0-.09 135.04-.165 300.09-.165 263.637 0 300.064.057 299.91.465-.237.616-298.35 512.501-298.671 512.842-.135.145-.96-.926-1.832-2.38zm8.8-53.6c3.46-5.99 6.227-10.992 6.15-11.118-.22-.357-6.667-2.364-9.383-2.922-3.497-.72-6.057-.639-9.266.291-2.854.828-6.844 2.499-6.844 2.868 0 .318 12.83 21.99 12.948 21.873.057-.056 2.934-5.003 6.394-10.992zm-20.516-28.203c3.871-1.407 7.897-2.765 8.943-3.015 2.746-.657 8.137-.902 11.26-.51 10.794 1.356 15.28 1.995 16.055 2.292.748.285.966.244 1.317-.234.774-1.058 5.782-9.855 5.782-10.158 0-.163-.75-.471-1.665-.682-3.124-.722-5.1-.768-8.48-.201-4.756.799-9.017.546-13.168-.782-3.805-1.218-5.977-1.19-11.259.148-2.48.629-4.746.926-8.881 1.166-3.053.177-6.288.459-7.188.625-1.521.283-6.768 2.573-6.768 2.955 0 .141 3.108 5.481 5.775 9.923.342.567.759 1.032.928 1.032.168 0 3.476-1.152 7.349-2.559zm-18.92-25.858c2.493-.743 3.602-.864 9.942-1.094 4.503-.162 7.722-.424 8.723-.712.873-.251 2.83-.825 4.351-1.28 6.25-1.863 12.46-1.932 17.294-.195 5.81 2.09 8.17 2.585 13.087 2.744 3.566.115 5.133.03 6.978-.381 1.308-.291 4.392-.61 6.852-.705l4.475-.177 2.872-4.953 2.871-4.953-1.477-.366c-2.511-.623-5.285-.48-9.684.496-8.069 1.791-10.25 1.623-19.97-1.539-7.744-2.52-10.255-3.003-14.472-2.785-3.729.19-5.595.693-11.75 3.154l-3.964 1.587-3.648-.274c-2.007-.15-5.718-.273-8.247-.273h-4.599l-2.538 1.207c-2.815 1.341-6.574 3.683-6.435 4.008.051.116 1.155 2.01 2.456 4.212l2.364 4.002.858-.444c.47-.243 2.12-.819 3.661-1.28zm-17.72-24.67c.821-.412 2.636-1.154 4.033-1.645 3.279-1.155 8.01-1.375 13.968-.645 4.774.584 7.91.639 10.332.185.94-.177 5.134-1.451 9.32-2.831 4.478-1.474 8.707-2.665 10.27-2.892 5.134-.744 10.02.108 20.022 3.489 3.576 1.209 7.26 2.349 8.182 2.535 2.601.52 7.406.402 10.8-.268 4.587-.905 7.11-1.044 11.31-.623 6.248.627 5.295 1.088 8.292-4.005 1.439-2.443 2.622-4.557 2.633-4.696.045-.666-6.156-2.759-8.178-2.759-.531 0-3.222.599-5.98 1.329-4.685 1.242-5.296 1.33-9.296 1.341-4.96.014-5.585-.129-14.087-3.192-8.658-3.12-10.17-3.44-16.204-3.417l-5.076.018-5.061 1.485c-7.683 2.259-9.72 2.556-17.618 2.577-4.89.014-8.16-.15-11.557-.58-7.67-.968-11.588-.371-19.392 2.955-5.2 2.218-5.052 1.548-1.63 7.386 1.607 2.742 3.035 4.99 3.172 4.995.135.008.92-.327 1.744-.741zm-15.44-26.858c8.265-4.172 20.728-5.65 30.732-3.642 3.02.606 5.697.909 9.076 1.027 5.67.2 8.23-.213 13.41-2.16 5.069-1.902 8.004-2.577 11.928-2.737 4.287-.174 6.614.276 11.59 2.242 7.333 2.9 12.334 3.986 19.495 4.236 4.389.155 5.04.1 8.406-.69a3712.5 3712.5 0 0 1 6.978-1.629c6.817-1.582 12.858-1.32 19.815.863 2.223.696 2.94.81 3.21.513.544-.602 6.472-10.96 6.472-11.31 0-1.035-7.85-2.069-13.926-1.83-3.822.15-4.924.333-9.705 1.621-7.73 2.085-10.317 2.49-15.858 2.489-7.086-.005-11.815-.935-23.79-4.682-4.185-1.31-8.89-2.619-10.455-2.907-3.855-.71-5.958-.33-11.559 2.1-6.832 2.966-7.204 3.035-16.047 3.01-6.604-.016-8.704-.155-15.86-1.05-10.81-1.35-15.644-1.568-19.144-.859-2.884.585-6.075 1.761-9.642 3.558-3.625 1.826-3.778 1.955-3.273 2.763.234.377 1.664 2.79 3.174 5.363 1.512 2.574 2.817 4.68 2.901 4.68.084 0 1.016-.437 2.07-.97zm-15.893-29.8c7.562-3.319 15.32-5.291 22.044-5.603 4.701-.22 7.055.103 15.383 2.103 9.039 2.172 11.911 2.635 16.494 2.664 4.855.03 6.382-.293 12.834-2.706 6.727-2.516 9.68-3.213 13.65-3.225 3.79-.012 5.535.372 10.15 2.233 6.863 2.766 13.403 4.016 22.995 4.392 6.16.243 8.55-.054 17.816-2.212 7.942-1.85 11.445-2.4 15.29-2.4 3.934 0 9.226 1.036 15.397 3.024 2.862.92 4.656 1.353 4.845 1.162.888-.886 7.4-12.62 7.1-12.792-.644-.373-9.856-2.49-13.615-3.129-6.924-1.176-10.323-.876-21.14 1.865-7.568 1.918-12.44 2.572-19.148 2.572-8.207 0-12.432-.705-23.924-3.99-9.77-2.794-11.529-3.132-16.242-3.117-4.723.015-7.636.569-17.457 3.312-9.535 2.664-12.925 3.293-17.75 3.294-4.766 0-5.984-.25-13.955-2.854-10.005-3.27-10.96-3.456-17.604-3.435-5.345.015-5.943.078-9.357.991-2.006.537-4.86 1.422-6.345 1.967-3.23 1.188-8.733 3.883-8.691 4.258.075.692 7.62 13.173 7.899 13.068a212.89 212.89 0 0 0 3.33-1.443zm-1.269-23.164c2.006-.495 4.182-.985 4.836-1.092l1.19-.195v-97.665H213.78v50.148c0 47.636.027 50.138.555 49.925.305-.123 2.196-.63 4.203-1.122zm160.812-.453c1.83-.008 4.15.096 5.154.228l1.824.24v-98.967h-12.37v98.946l1.03-.217c.567-.12 2.53-.224 4.362-.23zm33.73-21.451c3.78-6.558 6.87-12.018 6.87-12.132 0-.116-3.212-.21-7.138-.21h-7.137v12.435c0 6.838.12 12.297.269 12.132.147-.165 3.358-5.667 7.135-12.225zm-218.648-1.08v-11.26h-6.66c-3.665 0-6.662.074-6.662.164 0 .24 13.062 22.355 13.203 22.355.065 0 .12-5.067.12-11.26zm69.78 4.28v-4.123h-20.298v8.247h20.298zm45.357 0v-4.123H288v8.247h21.57v-4.123zm45.04 0v-4.123h-21.568v8.247h21.57v-4.123zm-102.847-30.388c2.584-5.25 5.452-9.23 9.76-13.536 7.161-7.162 16.104-12.11 25.605-14.173l3.41-.74v-9.99h-13.164c-7.24 0-13.155-.108-13.145-.24.018-.232 35.568-27.112 36.087-27.285.315-.105 36.323 26.76 36.477 27.213.068.2-4.56.31-12.925.31h-13.03v10.688l2.458.705c14.452 4.157 26.895 14.648 33.228 28.019l1.464 3.091h6.62v-70.414h-13.32v-14.909h-81.835v14.91h-15.541v70.413l2.934-.018 2.934-.016 1.98-4.028zm243.18-114.522c35.005-60.6 63.592-110.235 63.525-110.3-.066-.067-116.88-.086-259.587-.043l-259.466.08 65.69 111.25 65.69 111.252h23.64v-47.578H156.37v-17.127h25.376v-14.909H156.37v-9.514h-20.616v-19.665h76.124v-12.37h20.3v-10.15h19.666v-12.054h95.79v12.054h19.663v10.15h20.3v12.37h77.71v19.665h-20.934v9.516H418.68v14.907h25.692v17.128h-38.697v47.57l12.133.084 12.132.082.675-1.11c.374-.61 29.32-50.69 64.325-111.29z" fill="#0c4498"/><path d="M201.16 342.164l-6.727-11.382V307.87H180.89l-4.886-8.294c-2.686-4.56-4.933-8.415-4.99-8.563-.06-.15 5.187-.27 11.655-.27h11.763v-47.58H156.37v-17.127h25.376v-14.909H156.37v-9.514h-20.616v-19.665h76.124v-12.37h20.3v-10.15h19.666v-12.054h95.79v12.054h19.663v10.15h20.3v12.37h77.71v19.665h-20.934v9.516H418.68v14.907h25.692v17.128h-38.697v47.579h12.087c11.38 0 12.075.03 11.875.555-.117.304-2.287 4.158-4.822 8.563l-4.61 8.009h-14.529v25.108l-5.431 9.411c-2.988 5.175-5.478 9.462-5.534 9.525-.055.062-2.499-.47-5.43-1.186-10.441-2.549-15.856-3.081-21.387-2.108-1.462.257-5.442 1.173-8.844 2.034-7.567 1.919-12.44 2.573-19.147 2.573-8.207 0-12.432-.705-23.924-3.99-9.77-2.795-11.529-3.132-16.242-3.117-4.723.015-7.636.568-17.457 3.312-9.535 2.664-12.925 3.292-17.75 3.294-4.766 0-5.984-.25-13.955-2.855-9.9-3.235-10.98-3.448-17.445-3.447-4.76.003-5.98.108-8.565.747a66.456 66.456 0 0 0-12.88 4.656c-1.94.945-3.587 1.716-3.662 1.716-.075 0-3.164-5.12-6.863-11.38zm17.38-.048c2.005-.495 4.181-.986 4.835-1.092l1.19-.195v-97.664H213.78v50.148c0 47.636.027 50.138.555 49.925.305-.123 2.196-.63 4.203-1.122zm160.811-.453c1.83-.008 4.15.096 5.154.228l1.824.24v-98.966h-12.37v98.946l1.03-.217c.567-.12 2.53-.224 4.362-.23zm-115.138-18.25v-4.124h-20.298v8.247h20.298zm45.357 0v-4.124H288v8.247h21.57v-4.124zm45.04 0v-4.124h-21.568v8.247h21.57v-4.124zm-102.847-30.39c2.584-5.25 5.452-9.229 9.76-13.535 7.161-7.163 16.104-12.111 25.605-14.174l3.41-.74v-9.99h-13.164c-7.24 0-13.155-.107-13.145-.24.018-.232 35.568-27.112 36.087-27.284.315-.105 36.323 26.76 36.477 27.213.068.2-4.56.31-12.925.31h-13.03v10.688l2.458.705c14.452 4.156 26.895 14.647 33.228 28.018l1.464 3.092h6.62V226.67h-13.32v-14.908h-81.835v14.91h-15.541v70.413l2.934-.018 2.934-.017 1.98-4.027z"/></svg>