<svg xmlns="http://www.w3.org/2000/svg" width="600" height="600"><path d="M298.53 521.851L192.19 335.126l214.881 1.27L298.53 521.851z" fill="#fff"/><path d="M299.497 554.27A734124.92 734124.92 0 0 1 0 43.504c199.998-.031 400.012-.664 600 .3a507064.88 507064.88 0 0 1-298.671 512.842l-1.832-2.38zm8.8-53.6c22.335-19.244-36.069-19.123-12.913.219 6.735 11.481 5.743 14.117 12.913-.219zm-20.516-28.203c12.619-11.204 42.652 9.154 41.692-12.307-15.105 2.114-56.514-8.816-51.996 10.43 1.333 6.92 6.127 3.267 10.304 1.877zm-18.92-25.858c23.794-6.806 46.49.039 70.383-1.748 19.905-19.028-22.434-3.369-32.628-13.786-15.237 5.506-33.33-.152-47.094 9.043 2.977 2.68 3.522 12.03 9.339 6.491zm-17.72-24.67c27.215-2 54.31-12.77 81.23-1.492 9.597 2.512 40.29-5.803 19.754-12.663-20.392 9.585-40.39-11.246-60.587-1.083-10.665 3.628-65.233-5.995-40.397 15.238zm-15.44-26.858c23.795-7.574 49.424-1.465 73.429-6.474 19.6 7.63 49.734 6.355 64.651-1.253.104-19.301-40.803 6.384-56.077-6.685-24.153-8.48-48.791 6.533-74.287-1.338-13.02.12-23.444 9.65-7.716 15.75zm-15.893-29.8c27.755-12.385 57.124 5.327 85.17-6.353 26.439 13.804 58.516-2.119 83.254 3.437 13.723-24.668-34.556-9.271-48.329-9.136-28.63-9.9-56.384-2.794-84.999-1.937-8.505-8.9-68.843-5.068-35.096 13.989z" fill="#fde400"/><path d="M299.497 554.27A734124.92 734124.92 0 0 1 0 43.504c199.998-.031 400.012-.664 600 .3a507064.88 507064.88 0 0 1-298.671 512.842l-1.832-2.38zm8.8-53.6c22.335-19.244-36.069-19.123-12.913.219 6.735 11.481 5.743 14.117 12.913-.219zm-20.516-28.203c12.619-11.204 42.652 9.154 41.692-12.307-15.105 2.114-56.514-8.816-51.996 10.43 1.333 6.92 6.127 3.267 10.304 1.877zm-18.92-25.858c23.794-6.806 46.49.039 70.383-1.748 19.905-19.028-22.434-3.369-32.628-13.786-15.237 5.506-33.33-.152-47.094 9.043 2.977 2.68 3.522 12.03 9.339 6.491zm-17.72-24.67c27.215-2 54.31-12.77 81.23-1.492 9.597 2.512 40.29-5.803 19.754-12.663-20.392 9.585-40.39-11.246-60.587-1.083-10.665 3.628-65.233-5.995-40.397 15.238zm-15.44-26.858c23.795-7.574 49.424-1.465 73.429-6.474 19.6 7.63 49.734 6.355 64.651-1.253.104-19.301-40.803 6.384-56.077-6.685-24.153-8.48-48.791 6.533-74.287-1.338-13.02.12-23.444 9.65-7.716 15.75zm-15.893-29.8c27.755-12.385 57.124 5.327 85.17-6.353 26.439 13.804 58.516-2.119 83.254 3.437 13.723-24.668-34.556-9.271-48.329-9.136-27.366-8.19-53.753-5.49-81.149-.952-13.2-10.562-72.83-5.108-38.946 13.004zm-1.269-23.164c11.999-1.312 3.464-19.191 6.026-28.134v-70.818c-14.481-4.57-10.475 9.35-10.785 18.95.206 27.037-.545 54.168.555 81.123l4.203-1.122zm160.812-.453c13.598 3.739 4.22-16.96 6.978-24.8v-73.699c-14.152-4.238-13.264 6.564-12.37 17.372v81.574l1.03-.217zm33.73-21.451c18.635-15.928-15.717-18.269-7.405.093.46 14.516-1.809 16.074 7.405-.093zm-218.648-1.08c7.737-17.156-24.61-14.078-6.773.172 5.353 8.182 7.818 17.484 6.773-.172zm69.78 4.28c1.412-6.668-22.595-6.98-20.298.615-2.951 5.712 23.966 5.687 20.298-.615zm45.357 0c1.107-7.003-21.205-5.874-21.57-.965-2.137 9.524 18.254 4.786 21.57 3.51v-2.544zm45.04 0c1.107-7.003-21.203-5.875-21.568-.965-2.137 9.524 18.254 4.786 21.57 3.51v-2.544zm-102.847-30.388c3.06-21.679 35.953-19.59 38.775-34.766-2.347-10.035-42.181 3.547-15.02-12.602 15.253-16.562 31.047-22.843 46.476-2.674 20.02 10.844 11.368 13.218-6.022 11.601-19.988 9.496 20.312 18.39 24.72 29.978 4.088 17.741 18.815 14.748 13.916-1.688v-56.201c-12.754 3.344-15.447-3.372-13.32-14.909h-81.835c2.604 12.312-1.422 17.994-14.213 14.91-3.091 6.827-.448 19.388-1.328 28.426v41.987c4.25.08 6.652.876 7.851-4.062zm243.18-114.522c21.193-36.756 42.485-73.456 63.525-110.3-173.018-.157-346.035.015-519.053.037l131.38 222.502c7.642-2.344 25.716 5.745 23.64-6.317v-41.261H156.37c-1.114-11.035-1.412-21.253 12.634-17.127 12.792 3.575 14.626-3.808 12.742-14.909-7.427-2.084-23.225 4.202-25.376-3.158 2.972-11.963-13.843-4.139-20.616-6.356 1.083-8.63-4.753-24.18 9.475-19.665h66.649c-4.238-14.152 6.564-13.264 17.372-12.37 2.783-6.84 5.585-13.662 18.72-10.15 7.104-2.417.92-18.122 16.508-12.054h83.156c-4.331 14.14 6.838 12.779 17.372 12.054 1.499 7.912 5.689 13.133 18.083 10.15 8.326 1.512.954 18.72 17.142 12.37h65.076c-1.083 8.63 4.753 24.18-9.475 19.665-15.6-6.503-6.486 11.71-17.776 9.516-8.57 1.047-23.946-4.712-19.376 9.475-1.322 11.03 16.43 2.983 23.689 5.432 3.87 3.899 4.991 22.835-7.472 17.128h-29.222v47.57c9.318-2.107 24.29 5.681 28.015-6.248 20.432-35.318 40.838-70.664 61.253-105.984zm-44.633-11.745c-19.74-5.614-35.349-13.295-18.765-33.612 7.008-15.8 9.939-42.43 31.345-24.322 18.857 8.778 53.579 11.662 29.978 37.659-7.365 19.508-14.195 43.153-37.083 22.684zm32.117-18.378c22.787-24.008-19.115-29.801-34.002-33.785-7.647 18.137-26.083 40.961 4.81 44.211 17.997 9.941 22.525 10.912 29.192-10.426zm-18.534 13.92c-25.638-5.81 17.606-32.907-10.1-35.795-16.315-4.024-.587-14.902 8.508-3.892 11.735 2.041 12.656 2.428 21.622 6.257 9.15 17.61-17.9-3.217-17.288 18.177 4.542-3.846 21.215-16.72 11.963.52-2.157 13.462-26.62 2.003-4.19 13.032.123 10.504-7.19 1.512-10.515 1.701zm-20.313-9.895c-25.417-12.669 20.682-6.776 6.815 3.17l-6.815-3.17zm3.036-8c-21.71-6.532 11.281-30.327 13.82-9.454-4.289 7.22-3.178 18.133-13.82 9.454zm6.525-6.732c-1.32-14.284-13.058 7.428 0 0zm-340.199 12.368c-6.557-14.054-23.095-33.073 3.903-34.038 9.266 6.08-10.87 11.427 3.821 7.628 3.852 10.947-7.47 6.631 5.132 10.18-7.177 7.537.542 8.839 6.945 1.722-12.687-3.257-.353-17.518-15.065-19.853 12.759-2.779 18.87-12.775 20.394 3.178 9.167 4.268.93 20.527 17.571 8.83-6.799.524-13.138-4.344-4.098-9.876-22.064 7.674 8.447-15.5-10.559-4.701-4.237-14.268 27.407-17.9 24.434 3.45 3.943 12.31 26.68 47.537 2.998 39.192-4.492-15.255-9.317-29.48-26.77-13.903-33.811.519 12.964 32.952-15.17 35.341-4.606-9.002-9.032-18.096-13.536-27.15zm22.39-24.036c-1.54-6.973-4.902 4.196 0 0zm5 44.04c-.888-7.515 13.65-12.972-4.7-6.809-9.27-8.52 20.236-14.764-3.077-8.49-10.023-10.794 36.864-24.99 22.747-6.492 19.092-5.398-3.197 7.42 5.628 14.646-6.052 1.487-15.533 8.266-20.598 7.145zm250.218-23.093c-18.007 1.637-40.752-14.137-17.696-17.735 5.753-14.345 2.275-20.786-2.897-28.092 3.23-12.649 27.433 8.157 29.138-8.423 15.247 1.932 9.907 18.116 30.896 16.023-1.573 11.022-21.273 19.551-10.933 32.322 13.366 22.143-18.779 6.011-28.508 5.905zm11.23-12.42c7.7-12.38 4.81-26.299-11.404-20.898-5.703 14.663-5.847 27.061 11.404 20.898zm-215.435 13.083c-14.719-2.837 17.974-37.003-10.292-23.271-10.869-16.574 21.078-11.525 12.531-29.194 16.612-11.54 11.262 20.429 29.327 5.934 17.766-1.572 4.758 16.73-8.511 14.407 10.296 6.24 40.498 18.174 17.443 24.568-18.469-13.122-29.571-14.599-34.553 9.833l-1.844-.676zm69.225-9.294c-13.632-3.488 11.153-18.13-11.82-11.091-7.892-8.069 6.07-16.333-.825-30.321 21.2 5.181 10.054-15.838 28.27-12.648-2.247 18.702 26.312-4.056 20.22 19.995 4.29 8.114 13.25 20.545-6.559 18.939 23.65 9.004-4.372 21.49-13.764 4.514-4.82 5.717-6.825 18.516-15.522 10.612zm4.767-28.458c-3.67-16.874-3.287 16.074 0 0zm16.96 2.78c8.546-13.245-12.08-8.635 0 0zm55.922 27.387c-13.964 1.416-2.446-20.21-21.72-13.623-9.235-1.393-11.623-45.567 9.301-34.608 11.361 1.582 5.848-16.295 23.429-6.894-5.224 17.838 30.328-.62 18.552 22.707 6.118 22.679-11.774 19.06-20.86 23.72.92 9.122.078 10.684-8.702 8.698zm16.32-24.612c5.556-28.615-19.33 2.064 0 0zm-22.374-6.444c-7.339-23.117-13.326 19.278 0 0z" fill="#da0028"/><path d="M299.497 554.27A734124.92 734124.92 0 0 1 0 43.504c199.998-.031 400.012-.664 600 .3a507064.88 507064.88 0 0 1-298.671 512.842l-1.832-2.38zm8.8-53.6c22.335-19.244-36.069-19.123-12.913.219 6.735 11.481 5.743 14.117 12.913-.219zm-20.516-28.203c12.619-11.204 42.652 9.154 41.692-12.307-15.105 2.114-56.514-8.816-51.996 10.43 1.333 6.92 6.127 3.267 10.304 1.877zm-18.92-25.858c23.794-6.806 46.49.039 70.383-1.748 19.905-19.028-22.434-3.369-32.628-13.786-15.237 5.506-33.33-.152-47.094 9.043 2.977 2.68 3.522 12.03 9.339 6.491zm-17.72-24.67c27.215-2 54.31-12.77 81.23-1.492 9.597 2.512 40.29-5.803 19.754-12.663-20.392 9.585-40.39-11.246-60.587-1.083-10.665 3.628-65.233-5.995-40.397 15.238zm-15.44-26.858c23.795-7.574 49.424-1.465 73.429-6.474 19.6 7.63 49.734 6.355 64.651-1.253.104-19.301-40.803 6.384-56.077-6.685-24.153-8.48-48.791 6.533-74.287-1.338-13.02.12-23.444 9.65-7.716 15.75zm-15.893-29.8c27.755-12.385 57.124 5.327 85.17-6.353 26.439 13.804 58.516-2.119 83.254 3.437 13.723-24.668-34.556-9.271-48.329-9.136-27.366-8.19-53.753-5.49-81.149-.952-13.2-10.562-72.83-5.108-38.946 13.004zm-1.269-23.164c11.999-1.312 3.464-19.191 6.026-28.134v-70.818c-14.481-4.57-10.475 9.35-10.785 18.95.206 27.037-.545 54.168.555 81.123l4.203-1.122zm160.812-.453c13.598 3.739 4.22-16.96 6.978-24.8v-73.699c-14.152-4.238-13.264 6.564-12.37 17.372v81.574l1.03-.217zm33.73-21.451c18.635-15.928-15.717-18.269-7.405.093.46 14.516-1.809 16.074 7.405-.093zm-218.648-1.08c7.737-17.156-24.61-14.078-6.773.172 5.353 8.182 7.818 17.484 6.773-.172zm69.78 4.28c1.412-6.668-22.595-6.98-20.298.615-2.951 5.712 23.966 5.687 20.298-.615zm45.357 0c1.107-7.003-21.205-5.874-21.57-.965-2.137 9.524 18.254 4.786 21.57 3.51v-2.544zm45.04 0c1.107-7.003-21.203-5.875-21.568-.965-2.137 9.524 18.254 4.786 21.57 3.51v-2.544zm-102.847-30.388c3.06-21.679 35.953-19.59 38.775-34.766-2.347-10.035-42.181 3.547-15.02-12.602 15.253-16.562 31.047-22.843 46.476-2.674 20.02 10.844 11.368 13.218-6.022 11.601-19.988 9.496 20.312 18.39 24.72 29.978 4.088 17.741 18.815 14.748 13.916-1.688v-56.201c-12.754 3.344-15.447-3.372-13.32-14.909h-81.835c2.604 12.312-1.422 17.994-14.213 14.91-3.091 6.827-.448 19.388-1.328 28.426v41.987c4.25.08 6.652.876 7.851-4.062zm243.18-114.522c21.193-36.756 42.485-73.456 63.525-110.3-173.018-.157-346.035.015-519.053.037l131.38 222.502c7.642-2.344 25.716 5.745 23.64-6.317v-41.261H156.37c-1.114-11.035-1.412-21.253 12.634-17.127 12.792 3.575 14.626-3.808 12.742-14.909-7.427-2.084-23.225 4.202-25.376-3.158 2.972-11.963-13.843-4.139-20.616-6.356 1.083-8.63-4.753-24.18 9.475-19.665h66.649c-4.238-14.152 6.564-13.264 17.372-12.37 2.783-6.84 5.585-13.662 18.72-10.15 7.104-2.417.92-18.122 16.508-12.054h83.156c-4.331 14.14 6.838 12.779 17.372 12.054 1.499 7.912 5.689 13.133 18.083 10.15 8.326 1.512.954 18.72 17.142 12.37h65.076c-1.083 8.63 4.753 24.18-9.475 19.665-15.6-6.503-6.486 11.71-17.776 9.516-8.57 1.047-23.946-4.712-19.376 9.475-1.322 11.03 16.43 2.983 23.689 5.432 3.87 3.899 4.991 22.835-7.472 17.128h-29.222v47.57c9.318-2.107 24.29 5.681 28.015-6.248 20.432-35.318 40.838-70.664 61.253-105.984z" fill="#0c4498"/><path d="M201.16 342.164c-6.824-7.805-7.648-17.251-6.727-27.174 4.106-14.274-16.663-.384-17.55-13.923-17.972-19.302 18.267-2.461 17.549-15.062v-42.842H156.37c-1.114-11.035-1.412-21.253 12.634-17.127 12.792 3.575 14.626-3.808 12.742-14.909-7.427-2.084-23.225 4.202-25.376-3.158 2.972-11.963-13.843-4.139-20.616-6.356 1.083-8.63-4.753-24.18 9.475-19.665h66.649c-4.238-14.152 6.564-13.264 17.372-12.37 2.783-6.84 5.585-13.662 18.72-10.15 7.104-2.417.92-18.122 16.508-12.054h83.156c-4.331 14.14 6.838 12.779 17.372 12.054 1.499 7.912 5.689 13.133 18.083 10.15 8.326 1.512.954 18.72 17.142 12.37h65.076c-1.083 8.63 4.753 24.18-9.475 19.665-15.6-6.503-6.486 11.71-17.776 9.516-8.57 1.047-23.946-4.712-19.376 9.475-1.322 11.03 16.43 2.983 23.689 5.432 3.87 3.899 4.991 22.835-7.472 17.128h-29.222v47.579c14.205-.817 31.504-1.978 15.989 14.593-6.408 5.49-21.411-1.984-15.988 13.589 2.505 12.646-4.474 22.765-10.965 32.989-29.317-9.565-59.756 9.991-88.75-5.29-26.424 4.093-51.62 7.038-77.93-.065-12.954 1.426-21.711 14.11-26.871-4.395zm17.38-.048c11.997-1.313 3.463-19.192 6.025-28.134v-70.817c-14.481-4.57-10.475 9.35-10.785 18.95.206 27.037-.545 54.168.555 81.123l4.203-1.122zm160.811-.453c13.598 3.739 4.22-16.96 6.978-24.8v-73.698c-14.152-4.238-13.264 6.564-12.37 17.372v81.574l1.03-.217 4.362-.23zm-115.138-18.25c1.413-6.67-22.595-6.982-20.298.614-2.952 5.712 23.965 5.686 20.298-.614zm45.357 0c1.108-7.005-21.204-5.875-21.57-.966-2.137 9.524 18.254 4.786 21.57 3.51v-2.545zm45.04 0c1.109-7.004-21.203-5.876-21.568-.966-2.137 9.524 18.254 4.786 21.57 3.51v-2.545zm-102.847-30.39c3.06-21.678 35.953-19.59 38.775-34.766-2.347-10.035-42.181 3.547-15.02-12.602 15.253-16.562 31.048-22.84 46.476-2.673 20.02 10.844 11.368 13.218-6.022 11.601-19.988 9.496 20.312 18.388 24.72 29.977 4.088 17.741 18.814 14.75 13.916-1.687V226.67c-12.753 3.343-15.447-3.371-13.32-14.908h-81.835c2.604 12.312-1.422 17.994-14.213 14.91-3.091 6.827-.448 19.388-1.328 28.426v41.987c4.25.08 6.652.874 7.851-4.062z"/></svg>