<svg xmlns="http://www.w3.org/2000/svg" width="750" height="125"><path d="M0 119.8l.5-.7c.5-.8 1.4-2.3 2.4-2.4 1 0 2 1.4 3 3 .9 1.6 1.9 3.3 2.8 4.1 1 .8 2 .7 3 .7.9 0 1.9.1 2.8-.2 1-.4 2-1.1 3-2 1-1 1.9-2 2.9-2s1.9.9 2.9.4 1.9-2.4 2.9-4c1-1.4 1.9-2.6 2.9-1.9 1 .7 2 3.3 2.9 3 1-.2 2-3.2 2.9-4 1-.8 2 .6 2.9 1.1 1 .5 2 .2 2.9-.7 1-.8 2-2 3-1.9.9.2 1.8 1.7 2.8 2 1 .4 2-.5 3-.2.9.3 1.9 1.7 2.8 2.5 1 .8 2 .9 3-.5 1-1.3 1.9-4.1 2.8-5.1 1-1 2-.2 3-2 1-1.7 1.9-5.9 2.9-12.2 1-6.3 1.9-14.7 2.9-12.7s2 14.4 2.9 19.7c1 5.2 2 3.3 2.9 1.6 1-1.8 2-3.4 2.9-4.2 1-.9 2-.9 2.9-2.5 1-1.6 2-4.9 3-4.2.9.6 1.8 5 2.8 8.9 1 3.8 2 7 3 9.3.9 2.3 1.9 3.7 2.8 3.7 1 0 2-1.4 3-1.8.9-.3 1.9.5 2.8-.3 1-.7 2-2.9 3-3.3 1-.4 1.9 1 2.9-.9 1-1.7 1.9-6.6 2.9-9.8 1-3.2 1.9-4.7 2.9-5.4 1-.6 2-.3 2.9-6.5 1-6.3 2-19.1 2.9-28.9 1-9.7 2-16.4 2.9-24.4 1-8 2-17.2 2.9-12.3 1 5 2 24.2 3 33.7.9 9.4 1.8 9.2 2.8 3.1 1-6 2-17.7 3-22.5.9-4.8 1.9-2.6 2.8 2.7 1 5.2 2 13.5 3 18.2 1 4.6 1.9 5.6 2.8 9.8 1 4.3 2 11.8 3 8.8s1.9-16.4 2.9-31c1-14.4 1.9-30 2.9-29 1 .9 2 18.4 2.9 26.5 1 8.2 2 7 2.9 7 1 0 2 1.2 2.9-.5 1-1.7 2-6.3 2.9 1.5 1 7.8 2 28 2.9 40 1 12 2 16 3 17.3.9 1.3 1.8 0 2.8-1.3 1-1.3 2-2.7 3-3.7.9-.9 1.9-1.2 2.8-3.2 1-1.9 2-5.3 3-5.5 1-.2 1.9 2.9 2.8 4 1 1 2 0 3-1s1.9-2 2.9-2.2c1-.2 1.9.4 2.9 1.8 1 1.3 2 3.3 2.9 3.6 1 .3 2-1.1 2.9-.1 1 1 2 4.4 2.9 7.2 1 2.8 2 4.9 2.9-2.1 1-7 2-23 3-25.1.9-2 1.8 9.9 2.8 16.2 1 6.4 2 7.2 3 7.7l2.8 1.3c1 .5 2 1.1 3 1.1s1.9-.6 2.8-1.5c1-.8 2-1.7 3-1.6 1 .2 1.9 1.4 2.9 1.5 1 0 1.9-1.1 2.9-1.6 1-.4 1.9-.1 2.9.5 1 .5 2 1.4 2.9 2.3 1 1 2 2 2.9 2.6 1 .5 2 .5 2.9-.7 1-1.2 2-3.6 2.9-4.6 1-1 2-.6 3 .5.9 1.1 1.8 3 2.8 3.1 1 .2 2-1.2 3-2.4.9-1.1 1.9-2 2.8-2.8l3-2.2c1-1 1.9-2 2.8-1.6 1 .3 2 2 3 2.4 1 .3 1.9-.8 2.9-.3 1 .4 1.9 2.3 2.9 2.9 1 .6 2-.2 2.9-1 1-.7 2-1.5 2.9-.6 1 1 2 3.5 2.9 3.8 1 .3 2-1.7 2.9-2.2 1-.4 2 .8 2.9 1.3 1 .5 2 .4 3 .8.9.5 1.9 1.4 2.8-.6 1-2 2-7.1 3-9.3.9-2.2 1.9-1.6 2.8-3.7 1-2 2-7 3-6.8 1 .2 1.9 5.5 2.8 7.5 1 2 2 .8 3-1.8s1.9-6.5 2.9-5c1 1.6 1.9 8.7 2.9 10.4 1 1.7 2-2 2.9-3.5 1-1.4 2-.6 2.9 1.4 1 2 2 5.2 2.9 6.3 1 1.2 2 .3 2.9-.5 1-.8 2-1.6 3-1.5.9.1 1.8 1 2.8.7 1-.3 2-2 3-3.1.9-1.2 1.9-2 2.8-1.6 1 .4 2 2 3 1.3s1.9-3.6 2.8-4.5c1-.9 2 .2 3 .2s1.9-1 2.9-1.9c1-1 1.9-1.9 2.9 2.9 1 4.7 1.9 15.1 2.9 20.2 1 5 2 4.7 2.9.6 1-4 2-12 2.9-18.7 1-6.8 2-12.3 2.9-12 1 .2 2 6.2 2.9 8.3 1 2.2 2 .5 3-.2.9-.7 1.8-.3 2.8-1.4 1-1.2 2-3.9 3-3.4.9.4 1.9 4 2.8 4.2 1 .3 2-2.7 3-2.9 1-.2 1.9 2.2 2.8 3.3 1 1 2 .7 3-2.4 1-3 1.9-8.8 2.9-12.5 1-3.7 1.9-5.5 2.9-3.2s2 8.6 2.9 11.7c1 3 2 2.9 2.9 3.8 1 .9 2 2.9 2.9 2.6 1-.2 2-2.7 2.9-2.2 1 .4 2 3.7 3 3.3.9-.3 1.8-4.4 2.8-6 1-1.6 2-.6 3-1.5.9-.9 1.9-3.5 2.8-4.4 1-1 2-.1 3-1.7 1-1.6 1.9-5.8 2.8-8 1-2.3 2-2.8 3-2.2 1 .7 1.9 2.5 2.9 6 1 3.3 1.9 8.3 2.9 10 1 1.6 1.9 0 2.9.2 1 0 2 2 2.9 2.4 1 .5 2-.6 2.9-.6 1 0 2 .9 2.9 2.4 1 1.5 2 3.6 2.9 4 1 .5 2-.7 3-1.8l2.8-2.7c1-1 2-2 3-4.3.9-2.2 1.9-5.4 2.8-6 1-.5 2 1.7 3 4.5 1 2.9 1.9 6.3 2.8 8.5 1 2.3 2 3.3 3 2.9 1-.5 1.9-2.5 2.9-3.6s1.9-1.3 2.9-1.4c1-.2 2-.3 2.9.2 1 .6 2 1.7 2.9 2.6 1 .8 2 1.4 2.9 1.3 1 0 2-.9 2.9-1.5 1-.7 2-1.3 2.9 0 1 1.4 2 4.7 3 5 .9.5 1.9-1.9 2.8-2.2 1-.2 2 1.6 3 5 .9 3.3 1.9 8.1 2.8 9.8 1 1.6 2 0 3-2.7s1.9-6.4 2.8-6.1c1 .3 2 4.6 3 7.6s1.9 4.9 2.9 2.5c1-2.5 1.9-9.2 2.9-11.6 1-2.4 2-.4 2.9-.2 1 .1 2-1.4 2.9-2 1-.7 2-.5 2.9-2.8 1-2.3 2-7.1 2.9-7.5 1-.5 2 3.5 3 8 .9 4.7 1.8 10 2.8 10.7 1 .6 2-3.5 3-5.7.9-2.3 1.9-2.7 2.8-2.5 1 .2 2 1 3 .8 1-.1 1.9-1.2 2.8-1.3 1-.1 2 .6 3 1.2s1.9 1 2.9 1.4c1 .5 1.9 1 2.9 2.5 1 1.4 1.9 3.6 2.9 2.6 1-.9 2-4.9 2.9-5.3 1-.4 2 2.7 2.9 3.9 1 1.1 2 .3 2.9.6 1 .4 2 2 2.9 2.2 1 .2 2-1 3-1.3.9-.2 1.8.6 2.8.9 1 .3 2 .2 3 .1.9-.1 1.9-.3 2.8-.2 1 0 2 .4 3 2.7 1 2.3 1.9 6.5 2.8 6.5 1 0 2-4.2 3-6.4 1-2.3 1.9-2.6 2.9-2 1 .5 1.9 1.8 2.9 3s2 2.3 2.9 2.2c1 0 2-1.2 2.9-1.5 1-.3 2 .1 2.9.5 1 .3 2 .5 2.9-.2 1-.6 2-2.2 3-3.3.9-1 1.8-1.7 2.8-2 1-.3 2-.2 3-.5.9-.4 1.9-1.1 2.8-1 1 0 2 1 3 1s1.9-1 2.8-2.6c1-1.7 2-4 3-5.8 1-1.6 1.9-2.6 2.9-2.2 1 .5 1.9 2.3 2.9 1.6 1-.7 1.9-4 2.9-5 1-1.1 2 0 2.9 2.5 1 2.4 2 6.2 2.9 8.7 1 2.5 2 3.9 2.9 4.7 1 .9 2 1.3 2.9 1.8 1 .6 2 1.4 3 1.7.9.3 1.8.2 2.8 2.2 1 1.9 2 5.8 3 5.4.9-.5 1.9-5.3 2.8-5.9 1-.6 2 3 3 4 1 1.1 1.9-.2 2.8-1.5 1-1.4 2-2.7 3-2.8 1-.1 1.9 1 2.9 2 1 1.1 1.9 2.1 2.9 2.6s2 .6 2.9 1.6c1 1 2 2.8 2.9 4 1 1.4 2 2.1 2.9 2.3 1 .2 2-.2 2.9-.8 1-.6 2-1.5 3-1.5.9 0 1.8.9 2.8 1 1 .2 2-.4 3-.5.9-.1 1.9.3 2.8.7 1 .4 2 1 3 1.3a12.7 12.7 0 0 0 5.7.5l3-.5c1-.1 1.9 0 2.9-1.2s1.9-3.7 2.9-3.4c1 .3 2 3.4 2.9 4.8 1 1.4 2 1.2 2.9 1.1h2.9l2.9.7a8.5 8.5 0 0 0 3 0c.9-.3 1.8-.7 2.8-.7 1 0 2 .4 3 .6h2.8c1-.2 2-.3 3-.2 1 0 1.9.2 2.8.3l3 .1H910 0z" fill="#8dce9d"/><path d="M0 124.9h29c1 0 2 0 3-.4s2-1.1 2.9-1.7c1-.5 2-1 2.9-1 1 0 2 .2 2.9-.1 1-.3 2-1.2 3-1.6.9-.4 1.8-.2 2.8-.7 1-.5 2-1.7 3-1.1.9.6 1.9 2.8 2.8 4.2 1 1.4 2 1.9 3 .3 1-1.5 1.9-5.2 2.8-6.8 1-1.7 2-1.3 3-1.7 1-.5 1.9-1.7 2.9-3.7s1.9-4.8 2.9-2.8c1 1.9 1.9 8.6 2.9 12.2 1 3.6 2 4.3 2.9 2.7 1-1.6 2-5.3 2.9-7.1 1-1.8 2-1.5 2.9-.8 1 .7 2 1.8 2.9 2 1 .2 2-.6 3-.5.9 0 1.8 1 2.8 2.4 1 1.4 2 3.4 3 4.3.9.9 1.9.6 2.8.7 1 0 2 .4 3 .4s1.9-.6 2.8-1c1-.5 2-.8 3-1 1-.2 1.9-.2 2.9-.6 1-.4 1.9-1.1 2.9-2 1-1 2-2.1 2.9-4.3 1-2.2 2-5.5 2.9-9 1-3.4 2-7 2.9-6.8 1 .2 2 4.4 2.9 8.4 1 4 2 8 2.9 9.9 1 2 2 2 3 .7.9-1.2 1.8-3.6 2.8-5.4 1-2 2-3.3 3-1.9.9 1.5 1.9 5.8 2.8 6.8 1 1 2-1.3 3-2.2 1-.9 1.9-.3 2.8-.4 1 0 2-.7 3-2 1-1.5 1.9-3.6 2.9-4.7 1-1 1.9-1 2.9-1.4 1-.4 2-1.1 2.9.7 1 1.8 2 6.2 2.9 8.8 1 2.7 2 3.6 2.9 4.4 1 1 2 1.8 2.9 2.3 1 .5 2 .6 2.9.6l3-.2c.9-.2 1.9-.3 2.8-.3h3c.9-.2 1.9-.7 2.8-.8 1 0 2 .3 3 .8 1 .4 1.9.9 2.8 1.1 1 .3 2 .3 3-.1 1-.5 1.9-1.4 2.9-1.4s1.9.7 2.9 1c1 .3 2 .2 2.9 0 1-.2 2-.5 2.9-.4 1 0 2 .4 2.9 0 1-.3 2-1.4 2.9-1.4 1 0 2 1.3 3 2 .9.6 1.8.6 2.8.6H218c1 0 2 0 3-.2s1.9-.6 2.9-.7c1-.1 1.9 0 2.9.2l2.9.6 2.9.1h2.9l2.9-.4c1-.2 2-.5 2.9-.4 1 0 2 .4 3 .6.9.2 1.8.2 2.8 0l3-.3 2.8.3c1 0 2 0 3-.2s1.9-.5 2.8-.4c1 0 2 .4 3 .6 1 .2 1.9.2 2.9.2h5.8l2.9-.3c1 0 2 .2 2.9.1 1 0 2-.3 2.9-.4 1-.2 2-.2 2.9 0l3 .5 2.8.1h17.5l2.9-.1 2.9-.5 2.9.2c1 .1 2 .3 2.9.2 1 0 2-.3 2.9-.6l2.9-1c1-.3 2-.6 3-.6.9 0 1.8.3 2.8.3h3c.9 0 1.9.3 2.8.6l3 .6h2.8l3 .3c1 0 1.9-.3 2.9-.3s1.9.3 2.9.2c1 0 2-.4 2.9-.4 1 0 2 .3 2.9.5 1 .2 2 .2 2.9.2 1-.1 2-.2 2.9-.6 1-.4 2-1 2.9-1.2 1-.2 2 0 3 .3.9.3 1.8.5 2.8.3 1-.2 2-.8 3-.6.9.2 1.9 1.2 2.8 1.7 1 .5 2 .5 3-.9s1.9-4.1 2.8-4.4c1-.4 2 1.8 3 3.2 1 1.3 1.9 2 2.9 2.2 1 .3 1.9.1 2.9 0l2.9-.6h2.9c1 0 2 .1 2.9-.2 1-.3 2-1 2.9-1 1 0 2 1 3 .8.9-.2 1.8-1.5 2.8-2.3 1-.8 2-1.2 3-.7.9.5 1.9 1.9 2.8 1.4 1-.5 2-2.9 3-3.2.9-.3 1.9 1.4 2.8 2.6 1 1 2 1.6 3 1.4 1-.2 1.9-1 2.9-1.7 1-.6 1.9-1 2.9-.6s1.9 1.5 2.9 1.5c1 .1 2-.9 2.9-.7 1 .2 2 1.6 2.9 2 1 .4 2 0 2.9-.2 1-.2 2-.1 2.9 0l3 .5c.9.1 1.8.4 2.8.1 1-.2 2-1 3-.9.9 0 1.9 1 2.8 1.2 1 .2 2-.1 3-.1s1.9.3 2.8.5c1 .1 2 0 3-.2s1.9-.5 2.9-.6l2.9-.1c1 0 1.9 0 2.9.2 1 .3 2 .8 2.9.7 1 0 2-.7 2.9-.8 1-.2 2 0 2.9 0h2.9c1 0 2 .1 3 .4.9.2 1.8.6 2.8.6 1 0 2-.4 3-.7.9-.3 1.9-.5 2.8-.4 1 .1 2 .6 3 1 1 .2 1.9.4 2.8.4l3-.2c1 0 1.9.2 2.9 0 1 0 1.9-.5 2.9-.8l2.9-.8c1-.4 2-.7 2.9-.4 1 .3 2 1.3 2.9 1.7 1 .5 2 .3 2.9.3l2.9.2 3-.2 2.8.2 3 .1h2.8l3-.3c1 0 1.9.2 2.8 0 1 0 2-.5 3-.9s1.9-1 2.9-.7c1 .1 1.9 1 2.9 1.2 1 .2 2-.3 2.9-.3 1 0 2 .5 2.9.5 1 0 2-.5 2.9-.5 1 0 2 .5 2.9.6 1 .1 2-.1 2.9-.2 1-.2 2-.2 3-.2.9 0 1.8 0 2.8.2 1 .1 2 .3 3 0 .9-.5 1.9-1.7 2.8-1.8 1-.1 2 .8 3 1.3 1 .6 1.9.8 2.8.8l3-.2 2.9.2c1 0 1.9-.2 2.9-.4a23.1 23.1 0 0 1 5.8-.3l2.9.5h2.9l3-.6c.9-.2 1.8-.3 2.8-.2 1 0 2 .3 3 .5.9.2 1.9.3 2.8.3h3l2.8.2 3-.3h2.9c1-.2 1.9-.5 2.9-.5 1 .1 1.9.6 2.9.8 1 .3 2 .3 2.9.3l2.9-.1c1-.2 2-.4 2.9-.4 1 0 2 .2 2.9.4 1 .1 2 .1 3-.3.9-.4 1.8-1.1 2.8-1.1 1 0 2 .7 3 1 .9.4 1.9.2 2.8.2 1 0 2 .2 3 0 1 0 1.9-.5 2.8-.5 1 0 2 .4 3 .6 1 .2 1.9.2 2.9.2H910 0z" fill="#fb8532"/></svg>