<svg xmlns="http://www.w3.org/2000/svg" width="750" height="125"><path d="M0 119.84l.485-.765c.484-.765 1.453-2.294 2.422-2.341.97-.048 1.939 1.385 2.908 2.962.969 1.577 1.938 3.297 2.907 4.11.97.812 1.938.716 2.907.716.97 0 1.939.096 2.908-.239.969-.334 1.938-1.099 2.907-2.007.97-.907 1.938-1.959 2.907-2.007.97-.047 1.939.908 2.908.43.969-.477 1.938-2.389 2.907-3.918.97-1.529 1.938-2.675 2.907-1.959.97.717 1.939 3.297 2.908 3.058.969-.239 1.938-3.297 2.907-4.109.97-.812 1.938.621 2.908 1.147.969.525 1.938.143 2.907-.67.969-.811 1.938-2.054 2.907-1.91.97.143 1.938 1.672 2.908 2.006.969.335 1.938-.525 2.907-.238.969.286 1.938 1.72 2.907 2.484.97.765 1.939.86 2.908-.478.969-1.338 1.938-4.109 2.907-5.112.97-1.004 1.938-.24 2.907-1.96.97-1.72 1.939-5.925 2.908-12.232.969-6.307 1.938-14.717 2.907-12.71.97 2.007 1.938 14.43 2.907 19.686.97 5.257 1.939 3.345 2.908 1.577.969-1.768 1.938-3.392 2.907-4.205.97-.812 1.938-.812 2.907-2.437.97-1.624 1.939-4.873 2.908-4.252.969.62 1.938 5.113 2.907 8.935.97 3.823 1.938 6.976 2.907 9.27.97 2.294 1.939 3.727 2.908 3.727.969 0 1.938-1.433 2.907-1.768.97-.334 1.938.43 2.907-.287.97-.716 1.939-2.914 2.908-3.344.969-.43 1.938.907 2.907-.86.97-1.768 1.938-6.642 2.908-9.844.969-3.201 1.938-4.73 2.907-5.351.969-.622 1.938-.335 2.907-6.594.97-6.26 1.938-19.066 2.908-28.814.969-9.747 1.938-16.437 2.907-24.417.969-7.98 1.938-17.25 2.907-12.28.97 4.97 1.939 24.178 2.908 33.64.969 9.46 1.938 9.174 2.907 3.153.97-6.02 1.938-17.775 2.907-22.553.97-4.779 1.939-2.58 2.908 2.675.969 5.256 1.938 13.57 2.907 18.206.97 4.635 1.938 5.59 2.907 9.843.97 4.253 1.939 11.802 2.908 8.84.969-2.963 1.938-16.438 2.907-30.964.97-14.526 1.938-30.103 2.907-29.147.97.956 1.939 18.444 2.908 26.615.969 8.17 1.938 7.024 2.907 7.024.97 0 1.938 1.147 2.907-.573.97-1.72 1.939-6.308 2.908 1.48.969 7.79 1.938 27.954 2.907 39.995.97 12.041 1.938 15.96 2.908 17.298.969 1.337 1.938.095 2.907-1.243.969-1.338 1.938-2.771 2.907-3.68.97-.907 1.938-1.29 2.908-3.2.969-1.912 1.938-5.352 2.907-5.543.969-.191 1.938 2.867 2.907 3.918.97 1.051 1.938.095 2.908-.908.969-1.003 1.938-2.055 2.907-2.246.97-.19 1.938.478 2.907 1.816.97 1.338 1.939 3.345 2.908 3.631.969.287 1.938-1.146 2.907-.143.97 1.004 1.938 4.444 2.907 7.215.97 2.772 1.939 4.874 2.908-2.102.969-6.976 1.938-23.031 2.907-25.086.97-2.055 1.938 9.89 2.907 16.246.97 6.355 1.939 7.12 2.908 7.645.969.526 1.938.813 2.907 1.29.97.478 1.938 1.147 2.907 1.147.97 0 1.939-.669 2.908-1.481.969-.812 1.938-1.768 2.907-1.625.97.144 1.938 1.386 2.907 1.434.97.048 1.939-1.1 2.908-1.53.969-.43 1.938-.143 2.907.43.97.574 1.938 1.434 2.908 2.39.969.956 1.938 2.007 2.907 2.532.969.526 1.938.526 2.907-.669.97-1.194 1.938-3.583 2.908-4.587.969-1.003 1.938-.62 2.907.478.969 1.1 1.938 2.915 2.907 3.106.97.191 1.938-1.242 2.908-2.39.969-1.146 1.938-2.006 2.907-2.77.97-.765 1.938-1.434 2.907-2.294.97-.86 1.939-1.911 2.908-1.577.969.335 1.938 2.055 2.907 2.39.97.334 1.938-.718 2.907-.287.97.43 1.939 2.34 2.908 2.914.969.574 1.938-.19 2.907-.955.97-.765 1.938-1.53 2.907-.622.97.908 1.939 3.489 2.908 3.775.969.287 1.938-1.72 2.907-2.15.97-.43 1.938.717 2.907 1.242.97.526 1.939.43 2.908.86.969.43 1.938 1.386 2.907-.668.97-2.055 1.938-7.12 2.907-9.318.97-2.198 1.939-1.53 2.908-3.632.969-2.102 1.938-6.976 2.907-6.785.97.191 1.938 5.447 2.908 7.454.969 2.007 1.938.765 2.907-1.815.969-2.58 1.938-6.499 2.907-4.922.97 1.577 1.938 8.649 2.908 10.321.969 1.672 1.938-2.055 2.907-3.488.969-1.434 1.938-.573 2.907 1.433.97 2.007 1.938 5.16 2.908 6.308.969 1.147 1.938.286 2.907-.526.97-.812 1.938-1.577 2.907-1.481.97.095 1.939 1.051 2.908.717.969-.335 1.938-1.96 2.907-3.154.97-1.195 1.938-1.96 2.907-1.577.97.382 1.939 1.911 2.908 1.242.969-.669 1.938-3.535 2.907-4.443.97-.908 1.938.143 2.907.19.97.049 1.939-.907 2.908-1.863.969-.955 1.938-1.911 2.907 2.82.97 4.73 1.938 15.147 2.907 20.212.97 5.065 1.939 4.778 2.908.669.969-4.11 1.938-12.042 2.907-18.78.97-6.737 1.938-12.28 2.907-12.04.97.239 1.939 6.26 2.908 8.41.969 2.15 1.938.43 2.907-.24.97-.668 1.938-.286 2.908-1.433.969-1.147 1.938-3.823 2.907-3.393.969.43 1.938 3.966 2.907 4.253.97.287 1.938-2.676 2.908-2.915.969-.239 1.938 2.246 2.907 3.297.969 1.052 1.938.67 2.907-2.389.97-3.058 1.939-8.792 2.908-12.519.969-3.727 1.938-5.447 2.907-3.154.97 2.294 1.938 8.601 2.907 11.66.97 3.058 1.939 2.866 2.908 3.774.969.908 1.938 2.915 2.907 2.676.97-.239 1.938-2.724 2.907-2.293.97.43 1.939 3.774 2.908 3.392.969-.382 1.938-4.491 2.907-6.068.97-1.577 1.938-.621 2.907-1.482.97-.86 1.939-3.536 2.908-4.443.969-.908 1.938-.048 2.907-1.673.97-1.624 1.938-5.734 2.907-8.027.97-2.294 1.939-2.772 2.908-2.103.969.67 1.938 2.485 2.907 5.878.97 3.392 1.938 8.362 2.907 10.034.97 1.672 1.939.048 2.908.191.969.143 1.938 2.055 2.907 2.485.97.43 1.938-.621 2.908-.67.969-.047 1.938.909 2.907 2.438.969 1.529 1.938 3.631 2.907 4.061.97.43 1.938-.812 2.908-1.815.969-1.004 1.938-1.768 2.907-2.724.969-.956 1.938-2.103 2.907-4.3.97-2.199 1.939-5.448 2.908-5.973.969-.526 1.938 1.672 2.907 4.491.97 2.82 1.938 6.26 2.907 8.506.97 2.245 1.939 3.297 2.908 2.819.969-.478 1.938-2.485 2.907-3.584.97-1.099 1.938-1.29 2.907-1.433.97-.144 1.939-.24 2.908.286.969.526 1.938 1.673 2.907 2.533.97.86 1.938 1.433 2.907 1.338.97-.096 1.939-.86 2.908-1.53.969-.668 1.938-1.242 2.907.096.97 1.338 1.938 4.587 2.907 5.017.97.43 1.939-1.959 2.908-2.245.969-.287 1.938 1.529 2.907 4.873.97 3.345 1.938 8.22 2.908 9.844.969 1.624 1.938 0 2.907-2.676.969-2.676 1.938-6.403 2.907-6.116.97.286 1.938 4.587 2.908 7.645.969 3.058 1.938 4.874 2.907 2.437.969-2.437 1.938-9.127 2.907-11.516.97-2.389 1.938-.478 2.908-.287.969.192 1.938-1.337 2.907-2.006.97-.67 1.938-.478 2.907-2.772.97-2.293 1.939-7.072 2.908-7.502.969-.43 1.938 3.488 2.907 8.123.97 4.635 1.938 9.987 2.907 10.608.97.621 1.939-3.488 2.908-5.734.969-2.246 1.938-2.628 2.907-2.437.97.191 1.938.956 2.907.813.97-.144 1.939-1.195 2.908-1.338.969-.144 1.938.62 2.907 1.194.97.574 1.938.956 2.907 1.434.97.478 1.939 1.05 2.908 2.437.969 1.385 1.938 3.583 2.907 2.675.97-.907 1.938-4.921 2.907-5.351.97-.43 1.939 2.723 2.908 3.87.969 1.147 1.938.287 2.907.67.97.381 1.938 2.006 2.908 2.197.969.191 1.938-1.051 2.907-1.29.969-.239 1.938.526 2.907.86.97.335 1.938.24 2.908.096.969-.144 1.938-.335 2.907-.24.969.096 1.938.479 2.907 2.772.97 2.294 1.938 6.499 2.908 6.499.969 0 1.938-4.205 2.907-6.451.97-2.246 1.938-2.533 2.907-2.007.97.526 1.939 1.864 2.908 3.058.969 1.195 1.938 2.246 2.907 2.198.97-.048 1.938-1.194 2.907-1.529.97-.334 1.939.144 2.908.478.969.334 1.938.526 2.907-.143.97-.67 1.938-2.198 2.907-3.297.97-1.1 1.939-1.768 2.908-2.055.969-.287 1.938-.191 2.907-.526.97-.334 1.938-1.099 2.907-1.003.97.095 1.939 1.051 2.908 1.051.969 0 1.938-.956 2.907-2.628.97-1.672 1.938-4.061 2.907-5.734.97-1.672 1.939-2.628 2.908-2.198.969.43 1.938 2.246 2.907 1.53.97-.718 1.938-3.967 2.908-5.018.969-1.051 1.938.096 2.907 2.532.969 2.437 1.938 6.164 2.907 8.697.97 2.532 1.938 3.87 2.908 4.73.969.86 1.938 1.243 2.907 1.816.969.574 1.938 1.338 2.907 1.673.97.334 1.938.239 2.908 2.15.969 1.911 1.938 5.83 2.907 5.4.97-.43 1.938-5.209 2.907-5.83.97-.621 1.939 2.915 2.908 4.014.969 1.099 1.938-.24 2.907-1.577.97-1.338 1.938-2.676 2.907-2.772.97-.095 1.939 1.052 2.908 2.103.969 1.051 1.938 2.007 2.907 2.532.97.526 1.938.621 2.907 1.577.97.956 1.939 2.771 2.908 4.062.969 1.29 1.938 2.054 2.907 2.245.97.192 1.938-.19 2.907-.812.97-.621 1.939-1.481 2.908-1.481.969 0 1.938.86 2.907 1.003.97.144 1.938-.43 2.907-.525.97-.096 1.939.286 2.908.716.969.43 1.938.908 2.907 1.243.97.334 1.938.525 2.908.62.969.097 1.938.097 2.907-.047.969-.143 1.938-.43 2.907-.525.97-.096 1.938 0 2.908-1.195.969-1.195 1.938-3.68 2.907-3.393.969.287 1.938 3.345 2.907 4.779.97 1.433 1.939 1.242 2.908 1.146.969-.095 1.938-.095 2.907.048.97.144 1.938.43 2.907.574a8.49 8.49 0 0 0 2.908-.048c.969-.191 1.938-.574 2.907-.574.97 0 1.938.383 2.907.526.97.143 1.939.048 2.908-.048.969-.095 1.938-.19 2.907-.143.97.048 1.938.239 2.907.334.97.096 1.939.096 2.908.096a99134006766621.27 99134006766621.27 0 0 0 176.863 0H910h-.485a67294091398883.04 67294091398883.04 0 0 1-909.03 0H0z" fill="#8dce9d"/><path d="M0 124.9h29.072c.97 0 1.939 0 2.908-.377.969-.377 1.938-1.13 2.907-1.696.969-.565 1.938-.942 2.907-1.005.97-.063 1.938.188 2.907-.126.97-.314 1.939-1.193 2.908-1.57.969-.377 1.938-.252 2.907-.754.969-.503 1.938-1.634 2.907-1.068.97.565 1.938 2.827 2.907 4.209.97 1.382 1.938 1.884 2.908.314.969-1.57 1.938-5.214 2.907-6.848.969-1.633 1.938-1.256 2.907-1.696.97-.44 1.938-1.696 2.907-3.706.97-2.01 1.938-4.774 2.908-2.827.969 1.947 1.938 8.606 2.907 12.25.969 3.644 1.938 4.272 2.907 2.701.97-1.57 1.938-5.34 2.907-7.098.97-1.76 1.938-1.508 2.907-.817.97.69 1.939 1.822 2.908 2.01.969.189 1.938-.565 2.907-.502.969.062 1.938.942 2.907 2.387.97 1.445 1.938 3.455 2.907 4.334.97.88 1.939.629 2.908.691.969.063 1.938.44 2.907.377.969-.062 1.938-.565 2.907-1.005.97-.44 1.938-.816 2.907-1.005.97-.188 1.939-.188 2.908-.565.969-.377 1.938-1.131 2.907-2.073.969-.943 1.938-2.073 2.907-4.272.97-2.199 1.938-5.466 2.907-8.92.97-3.456 1.939-7.1 2.908-6.848.969.251 1.938 4.397 2.907 8.418.969 4.02 1.938 7.915 2.907 9.863.97 1.947 1.938 1.947 2.907.753.97-1.193 1.938-3.58 2.908-5.465.969-1.885 1.938-3.267 2.907-1.822.969 1.445 1.938 5.717 2.907 6.722.97 1.005 1.938-1.256 2.907-2.136.97-.88 1.938-.377 2.908-.44.969-.062 1.938-.69 2.907-2.073.969-1.382 1.938-3.518 2.907-4.586.97-1.067 1.938-1.067 2.907-1.444.97-.377 1.938-1.131 2.907.69.97 1.822 1.939 6.22 2.908 8.858.969 2.639 1.938 3.518 2.907 4.398.97.88 1.938 1.759 2.907 2.261.97.503 1.938.629 2.907.629.97 0 1.939-.126 2.908-.252.969-.125 1.938-.251 2.907-.251.969 0 1.938.126 2.907-.063.97-.188 1.938-.69 2.907-.754.97-.063 1.939.314 2.908.754.969.44 1.938.942 2.907 1.194.969.251 1.938.251 2.907-.189.97-.44 1.938-1.319 2.907-1.382.97-.063 1.939.691 2.908 1.005.969.314 1.938.189 2.907 0 .969-.188 1.938-.44 2.907-.377.97.063 1.938.44 2.907.063.97-.377 1.939-1.507 2.908-1.445.969.063 1.938 1.32 2.907 1.948.969.628 1.938.628 2.907.628h11.629c.97 0 1.938 0 2.907-.188.97-.189 1.938-.566 2.908-.691.969-.126 1.938 0 2.907.188.969.188 1.938.44 2.907.565.97.126 1.938.126 2.907.126.97 0 1.938 0 2.907-.063.97-.063 1.939-.188 2.908-.377.969-.188 1.938-.44 2.907-.377.969.063 1.938.44 2.907.629.97.188 1.938.188 2.907.062.97-.125 1.939-.377 2.908-.377.969 0 1.938.252 2.907.315.969.062 1.938-.063 2.907-.252.97-.188 1.938-.44 2.907-.377.97.063 1.939.44 2.908.629.969.188 1.938.188 2.907.188h2.907c.97 0 1.938 0 2.907-.063.97-.063 1.939-.188 2.908-.188.969 0 1.938.125 2.907.063.969-.063 1.938-.315 2.907-.44.97-.126 1.938-.126 2.907 0 .97.125 1.938.377 2.908.502.969.126 1.938.126 2.907.126H305.26c.97 0 1.938 0 2.907-.126.97-.125 1.939-.377 2.908-.44.969-.062 1.938.063 2.907.19.969.125 1.938.25 2.907.188.97-.063 1.938-.315 2.907-.629.97-.314 1.939-.69 2.908-1.005.969-.314 1.938-.565 2.907-.565.969 0 1.938.251 2.907.314.97.063 1.938-.063 2.907 0 .97.063 1.939.314 2.908.565.969.252 1.938.503 2.907.566.969.063 1.938-.063 2.907 0 .97.063 1.938.314 2.907.314.97 0 1.939-.251 2.908-.251.969 0 1.938.25 2.907.188.969-.063 1.938-.44 2.907-.44.97 0 1.938.377 2.907.566.97.188 1.938.188 2.908.125.969-.063 1.938-.188 2.907-.565.969-.377 1.938-1.005 2.907-1.194.97-.188 1.938.063 2.907.314.97.252 1.938.503 2.908.314.969-.188 1.938-.816 2.907-.628.969.189 1.938 1.194 2.907 1.696.97.503 1.938.503 2.907-.88.97-1.381 1.938-4.145 2.907-4.46.97-.313 1.939 1.822 2.908 3.205.969 1.382 1.938 2.01 2.907 2.261.969.251 1.938.126 2.907-.063.97-.188 1.938-.44 2.907-.565.97-.126 1.939-.126 2.908-.063.969.063 1.938.189 2.907-.126.969-.314 1.938-1.068 2.907-1.005.97.063 1.938.943 2.907.754.97-.188 1.939-1.445 2.908-2.261.969-.817 1.938-1.194 2.907-.691.969.502 1.938 1.884 2.907 1.382.97-.503 1.938-2.89 2.907-3.204.97-.314 1.939 1.445 2.908 2.575.969 1.131 1.938 1.634 2.907 1.445.969-.188 1.938-1.068 2.907-1.696.97-.628 1.938-1.005 2.907-.628.97.377 1.938 1.508 2.908 1.57.969.063 1.938-.942 2.907-.753.969.188 1.938 1.57 2.907 2.01.97.44 1.938-.063 2.907-.251.97-.189 1.938-.063 2.908.062.969.126 1.938.252 2.907.44.969.189 1.938.44 2.907.189.97-.252 1.938-1.006 2.907-.943.97.063 1.938.943 2.907 1.194.97.251 1.939-.126 2.908-.126.969 0 1.938.377 2.907.503.97.125 1.938 0 2.907-.189.97-.188 1.938-.44 2.907-.565.97-.126 1.939-.126 2.908-.126.969 0 1.938 0 2.907.252.969.25 1.938.753 2.907.69.97-.062 1.938-.69 2.907-.879.97-.188 1.939.063 2.908.126.969.063 1.938-.063 2.907-.063.969 0 1.938.126 2.907.377.97.251 1.938.628 2.907.628.97 0 1.939-.377 2.908-.69.969-.315 1.938-.566 2.907-.44.969.125 1.938.628 2.907.942.97.314 1.938.44 2.907.44.97 0 1.938-.126 2.908-.126.969 0 1.938.125 2.907 0 .969-.126 1.938-.503 2.907-.817.97-.314 1.938-.565 2.907-.88.97-.314 1.938-.69 2.908-.376.969.314 1.938 1.319 2.907 1.759.969.44 1.938.314 2.907.314.97 0 1.938.125 2.907.125.97 0 1.938-.125 2.908-.125.969 0 1.938.125 2.907.188.969.063 1.938.063 2.907.063.97 0 1.938 0 2.907-.063.97-.063 1.938-.188 2.907-.188.97 0 1.939.125 2.908 0 .969-.126 1.938-.503 2.907-.943.969-.44 1.938-.942 2.907-.753.97.188 1.938 1.068 2.907 1.256.97.188 1.939-.314 2.908-.314.969 0 1.938.502 2.907.502.969 0 1.938-.502 2.907-.502.97 0 1.938.502 2.907.628.97.126 1.939-.126 2.908-.251.969-.126 1.938-.126 2.907-.126.969 0 1.938 0 2.907.126.97.125 1.938.377 2.907-.063.97-.44 1.939-1.57 2.908-1.696.969-.126 1.938.754 2.907 1.32.969.564 1.938.816 2.907.816.97 0 1.938-.252 2.907-.252.97 0 1.938.252 2.908.252.969 0 1.938-.252 2.907-.44.969-.188 1.938-.314 2.907-.377.97-.063 1.938-.063 2.907.063.97.126 1.938.377 2.908.502.969.126 1.938.126 2.907 0 .969-.125 1.938-.376 2.907-.565.97-.188 1.938-.314 2.907-.251.97.063 1.938.314 2.907.502.97.189 1.939.314 2.908.314.969 0 1.938-.125 2.907-.062.969.062 1.938.314 2.907.314.97 0 1.938-.252 2.907-.314.97-.063 1.939.062 2.908-.063.969-.126 1.938-.503 2.907-.44.969.063 1.938.565 2.907.817.97.251 1.938.251 2.907.251.97 0 1.939 0 2.908-.126.969-.125 1.938-.377 2.907-.377.969 0 1.938.252 2.907.377.97.126 1.938.126 2.907-.25.97-.378 1.939-1.132 2.908-1.132.969 0 1.938.754 2.907 1.068.969.314 1.938.189 2.907.189.97 0 1.938.125 2.907 0 .97-.126 1.938-.503 2.908-.503.969 0 1.938.377 2.907.566.969.188 1.938.188 2.907.188H909.966 0z" fill="#fb8532"/></svg>