<?xml version="1.0" encoding="UTF-8" standalone="no"?>
<svg xmlns="http://www.w3.org/2000/svg" width="630" height="630">
  <rect
     width="630"
     height="630"
     fill="#f7df1e"
     id="rect881" />
  <g
     style="fill:#000000;fill-opacity:1;stroke:none;stroke-width:1px;stroke-linecap:butt;stroke-linejoin:miter;stroke-opacity:1">
    <path
       d="m 432.8106,333.50869 q -3.37334,-16.25333 -7.36,-23 -3.98667,-7.05333 -16.56001,-19.93333 l 3.37334,-4.90667 q 25.14667,5.52 38.02667,11.34667 12.88,5.52 12.88,14.41333 0,4.6 -3.37333,11.04 -3.06667,6.44 -10.42667,11.04 h 81.26667 l 12.26667,-10.42667 q 1.22666,-0.92 2.45333,-0.92 3.06667,0 11.65333,8.28 8.58667,8.28001 14.72001,14.72001 6.44,6.44 6.44,10.73333 0,3.98667 -6.74667,3.98667 -16.56,0.30666 -25.14667,4.29333 -8.58667,3.68 -26.37333,19.62667 l -6.44,-3.06667 q 12.26666,-18.09333 19.93333,-37.41333 H 349.70392 q 0.61334,26.68 -7.97333,38.64 -8.58667,11.96 -20.85333,11.96 -6.74667,0 -11.04,-3.37333 -4.29334,-3.37334 -4.29334,-6.74667 0,-3.68 7.66667,-11.04 15.64,-15.02667 21.16,-26.06667 5.52,-11.34667 6.74667,-25.76 h 7.36 q 0.92,6.44 0.92,12.57333 z m 20.54666,132.17334 v 65.32001 q 0,18.70667 -1.22666,24.84 -1.22667,6.13333 -4.90667,10.42667 -3.37333,4.6 -16.25333,9.50666 -12.57334,5.21334 -15.33334,5.21334 -2.76,0 -3.37333,-4.29334 -1.22667,-10.12 -11.65334,-17.78666 -10.42666,-7.66667 -30.05333,-14.41334 v -6.13333 q 32.50667,5.82667 41.4,5.82667 8.89334,0 10.73334,-3.37334 2.14666,-3.37333 2.14666,-13.18667 v -61.94667 h -113.16 q -8.28001,0 -12.88001,2.14667 l -5.52,-14.10667 q 6.44,1.53334 15.33334,1.53334 h 116.22667 q 0,-19.62667 -1.22666,-31.28001 17.17333,3.06667 25.45333,7.05334 12.26667,-13.8 28.82667,-36.8 H 365.65059 q -8.28,0 -12.88,2.14666 l -5.52,-12.88 q 6.44,1.53334 15.33334,1.53334 h 120.21334 l 10.12,-9.81334 q 2.45333,-2.45333 3.98666,-2.45333 2.45334,0 16.25334,12.26667 13.8,11.96 13.8,14.72 0,2.45333 -3.98667,2.45333 l -6.44,-0.61333 q -7.05333,0 -18.70667,7.05333 -11.34666,7.05333 -44.46667,31.58667 v 15.02667 h 76.66668 L 544.1306,434.7087 q 2.45334,-3.37334 4.29334,-3.37334 2.14666,0 6.13333,3.37334 3.98667,3.06667 11.96,10.73333 7.97334,7.66667 11.34667,11.65334 3.37333,3.98666 3.37333,6.44 0,2.14666 -5.82666,2.14666 z" />
  </g>
</svg>
