<svg xmlns="http://www.w3.org/2000/svg" width="630" height="630"><path fill="#f7df1e" d="M0 0h630v630H0z"/><path d="M432.81 333.509q-3.373-16.254-7.36-23-3.986-7.054-16.56-19.934l3.374-4.906q25.147 5.52 38.027 11.346 12.88 5.52 12.88 14.414 0 4.6-3.374 11.04-3.066 6.44-10.426 11.04h81.266l12.267-10.427q1.227-.92 2.453-.92 3.067 0 11.654 8.28 8.586 8.28 14.72 14.72 6.44 6.44 6.44 10.733 0 3.987-6.747 3.987-16.56.307-25.147 4.293-8.586 3.68-26.373 19.627l-6.44-3.067q12.267-18.093 19.933-37.413H349.704q.613 26.68-7.973 38.64-8.587 11.96-20.854 11.96-6.746 0-11.04-3.373-4.293-3.374-4.293-6.747 0-3.68 7.667-11.04 15.64-15.027 21.16-26.067 5.52-11.346 6.746-25.76h7.36q.92 6.44.92 12.574zm20.547 132.173v65.32q0 18.707-1.226 24.84-1.227 6.133-4.907 10.427-3.373 4.6-16.253 9.506-12.574 5.214-15.334 5.214t-3.373-4.294q-1.227-10.12-11.653-17.786-10.427-7.667-30.054-14.414v-6.133q32.507 5.827 41.4 5.827 8.894 0 10.734-3.374 2.146-3.373 2.146-13.186v-61.947h-113.16q-8.28 0-12.88 2.147l-5.52-14.107q6.44 1.533 15.334 1.533h116.226q0-19.626-1.226-31.28 17.173 3.067 25.453 7.054 12.267-13.8 28.827-36.8H365.65q-8.28 0-12.88 2.146l-5.52-12.88q6.44 1.534 15.333 1.534h120.213l10.12-9.814q2.454-2.453 3.987-2.453 2.453 0 16.253 12.267 13.8 11.96 13.8 14.72 0 2.453-3.986 2.453l-6.44-.613q-7.054 0-18.707 7.053-11.347 7.053-44.467 31.587v15.026h76.667l14.107-20.546q2.453-3.374 4.293-3.374 2.147 0 6.133 3.374 3.987 3.066 11.96 10.733 7.974 7.667 11.347 11.653 3.373 3.987 3.373 6.44 0 2.147-5.826 2.147z"/></svg>