<svg xmlns="http://www.w3.org/2000/svg" width="630" height="630"><path fill="#f7df1e" d="M0 0h630v630H0z"/><path d="M432.8 333.5q-3.4-16.2-7.4-23-4-7-16.5-20l3.4-4.8q25.1 5.5 38 11.3 12.9 5.5 12.9 14.4 0 4.6-3.4 11-3 6.5-10.4 11.1h81.2l12.3-10.4q1.2-1 2.5-1 3 0 11.6 8.3t14.7 14.8q6.5 6.4 6.5 10.7 0 4-6.8 4-16.5.3-25.1 4.3-8.6 3.7-26.4 19.6l-6.4-3q12.2-18.2 19.9-37.5H349.7q.6 26.7-8 38.7-8.6 12-20.8 12-6.8 0-11-3.5-4.4-3.3-4.4-6.7 0-3.7 7.7-11 15.7-15 21.2-26.1 5.5-11.4 6.7-25.8h7.4q.9 6.5.9 12.6zm20.6 132.2V531q0 18.7-1.3 24.8-1.2 6.2-4.9 10.5-3.3 4.6-16.2 9.5-12.6 5.2-15.4 5.2t-3.3-4.3q-1.3-10.1-11.7-17.8-10.4-7.7-30-14.4v-6.1q32.5 5.8 41.4 5.8 8.9 0 10.7-3.4 2.1-3.4 2.1-13.2v-62H311.7q-8.3 0-12.9 2.2l-5.5-14q6.4 1.5 15.3 1.5h116.2q0-19.7-1.2-31.3 17.2 3 25.5 7 12.2-13.8 28.8-36.8H365.6q-8.2 0-12.8 2.2l-5.6-12.9q6.5 1.5 15.4 1.5h120.2l10.1-9.8q2.5-2.4 4-2.4 2.5 0 16.3 12.2 13.8 12 13.8 14.7 0 2.5-4 2.5l-6.5-.6q-7 0-18.7 7-11.3 7-44.4 31.6v15H530l14.1-20.5q2.5-3.4 4.3-3.4 2.2 0 6.2 3.4 4 3 12 10.7 7.9 7.7 11.3 11.7 3.3 4 3.3 6.4 0 2.2-5.8 2.2z"/></svg>