<svg xmlns="http://www.w3.org/2000/svg" width="200" height="200"><path d="M24 184.3c.1-2 1.2-6.9 2.4-10.9l2.3-7.2 8-1.6c4.4-1 11.5-3 15.7-4.6 4.3-1.6 8-2.6 8.4-2.3.4.4-1.2 2.2-3.4 4-2.2 2-4 3.8-4 4.2 0 .4 7.8.8 17.3.8h17.4l-5.4-7.7a34 34 0 0 0-7.7-8.4c-1.6-.6-1-1.5 2.5-4 15.3-10.5 27.9-24.5 34-37.7a99.7 99.7 0 0 0 5.8-27.6c0-.4 1-.8 2.4-.8 1.3 0 5.5-.5 9.3-1l7-1v9.7c0 20.2-9.6 39-25 48.8-7 4.5-7.3 4.8-6.5 9.5.4 2.6.8 5.8.8 7 0 1.1 3 4 6.7 6.2 3.7 2.3 6.7 4.8 6.7 5.6 0 .9 6.8 1.4 19.4 1.4h19.4l-.4 5-.4 5-57.8.3-57.7.4-6.7 5.3c-8 6.3-10.5 6.7-10.4 1.6zm84.5-19.9c.5-.5-1-1.5-3.4-2.3-3.5-1.2-4.6-2.6-6.6-8.6-1.4-4-2.7-7.5-3-7.8-.8-.8-10.2 2.2-10.2 3.2 0 2.3 9.4 13.1 12.7 14.6 4.4 2 9 2.3 10.5 1zm-80.5-.8l2-6.4c1.2-3.2 2.7-11.8 3.5-19.2 3-30.2 14.4-50.3 36.4-64.1 7.4-4.7 8.4-7.3 9.1-22.6.7-13.7 3.5-20.7 10.6-26.6 3.2-2.7 4.2-4.6 4-7-.5-3.4 2-11 3.6-11a25 25 0 0 1 5.3 6.1c4.1 6 4 6.8 9.2 5.3a32.8 32.8 0 0 1 16.7-.2l8 2.6 4.3-5 4.3-4.9 1.5 3.7c.8 2 1.4 5.8 1.4 8.4 0 2.5.3 7 .8 9.7l1 5-5-3.3c-6.5-4.4-14.8-4.6-20-.5-3 2.3-4.1 2.5-5.9 1.3-7.7-5.6-10.6-6.9-16-6.9-13 0-21.1 11.8-17.4 25.6C86.9 59.3 96.5 70 106 76.8c3.6 2.6 4 3.5 4 10-.4 27.7-32.3 61.4-66.4 70a39.8 39.8 0 0 0-10.3 3.8c-2.6 2.2-5.3 3.7-5.3 3zm57.5-41.8c1.7-2 1.4-2.2-2.2-1.4-5.5 1-7.9-.6-6.8-4.7.7-3 .5-3.3-4.9-3.1-5.5 0-5.6 0-5.6-4.3 0-4.9-2.5-5.7-4.7-1.5-2.5 4.6 2.5 10.3 8.3 9.4.6-.1 1.7 1.2 2.6 2.8.8 1.7 2.2 3.4 3 4 2.6 1.7 8.4 1 10.3-1.2zm1.7-17.2c3.3-3.3 2.5-4.5-1.8-2.9-4.7 1.8-8-.4-8-5.2 0-2.8-.7-3.2-5.4-3.2-6.3 0-8.2-2.7-4.6-6.7 2.6-2.8.8-3.5-3.3-1.3-6 3.2-4 10 3.3 11.5 3.3.6 5.2 1.8 6 4 2.1 5.6 9.9 7.8 13.8 3.8zM116 73.4c-14.4-2.9-25.8-15.4-26.7-27-.4-6.7 7.6-13 12-13 4.6 0 10.2 1.3 13.8 6.8 3.2 5 4.1 13.7 1.6 15.7-2.4 2-2.6 5.4-.5 10s3 4.3 5.8-1.9c2-4.3 2-5.6.7-7.3-2-2.5-1.1-11.8 1.5-15 1-1.1 3.7-3 6.1-4 3.7-1.5 6.7-1.2 10.5.4 5.4 2.2 8.5 7.8 8.5 12.1 0 9.2-9 19-20.5 22.5-3.7 1-7 1.9-7.4 1.8l-5.4-1zm25.8-14.8c7-5.5 2.6-17.3-6.5-17.3-5 0-10 5-10 10s5 10 10 10a13 13 0 0 0 6.5-2.7zm-10.5-4c-1.9-2-2.2-3.3-1.2-5 1.8-3 5.5-5 8.5-2.3 3.4 3 2 5.8.3 7.8-2 2.3-5.3 1.6-7.6-.5zm-20 .8c6.6-6.5 2.1-16.7-7.2-16.7-6.4 0-10 3.7-10 10.2 0 9 10.7 13 17.3 6.5zm-12-3.9c-1.3-3-.2-6.4 2.4-8 3.4-2.2 8 .3 8 5 0 3.4-1.8 5.4-5.6 5.8-3 .3-4.4-1.4-4.9-2.8z" fill="#01a051"/></svg>