<svg xmlns="http://www.w3.org/2000/svg" width="200" height="200"><path d="M24.081 184.333c.045-2.016 1.101-6.915 2.347-10.885l2.264-7.22 7.988-1.65c4.392-.909 11.478-2.969 15.745-4.578 4.268-1.61 8.043-2.643 8.39-2.296.347.347-1.194 2.167-3.425 4.044-2.231 1.877-4.057 3.752-4.057 4.166 0 .414 7.833.753 17.407.753h17.407L82.662 159c-3.017-4.217-6.446-8.008-7.619-8.425-1.665-.592-1.136-1.448 2.412-3.9 15.339-10.599 27.91-24.595 33.96-37.81 2.543-5.557 5.373-18.836 5.877-27.58.023-.392 1.091-.74 2.375-.77 1.283-.032 5.483-.517 9.333-1.078l7-1.02-.014 9.791c-.03 20.228-9.624 38.902-25.058 48.776-7.011 4.484-7.207 4.774-6.428 9.488.442 2.674.81 5.822.819 6.995.008 1.174 3.014 4 6.681 6.279 3.667 2.279 6.667 4.769 6.667 5.532 0 .899 6.846 1.389 19.414 1.389h19.413l-.413 5-.414 5-57.724.347-57.724.348-6.73 5.319c-8.01 6.332-10.52 6.73-10.408 1.652zm84.397-19.922c.507-.507-.992-1.557-3.33-2.333-3.543-1.176-4.659-2.614-6.691-8.625-1.342-3.967-2.704-7.477-3.026-7.8-.718-.717-10.098 2.285-10.098 3.232 0 2.358 9.354 13.128 12.667 14.585 4.423 1.945 9.058 2.361 10.478.941zM28 163.58c0-.318.92-3.186 2.045-6.373 1.124-3.188 2.66-11.813 3.414-19.168 3.098-30.236 14.488-50.305 36.427-64.184 7.39-4.676 8.423-7.216 9.163-22.545.661-13.687 3.42-20.663 10.544-26.657 3.168-2.666 4.257-4.586 3.947-6.956-.447-3.41 2.108-11.03 3.698-11.03.504 0 2.86 2.76 5.239 6.133 4.17 5.916 3.988 6.764 9.21 5.251 4.506-1.306 11.849-1.764 16.74-.183l8.049 2.601 4.257-4.925 4.257-4.925 1.478 3.69c.812 2.03 1.45 5.791 1.42 8.358-.033 2.566.349 6.945.847 9.73l.905 5.064-5.006-3.397c-6.458-4.382-14.754-4.593-19.95-.506-2.962 2.33-4.096 2.585-5.846 1.314-7.704-5.595-10.65-6.862-15.966-6.867-13.14-.011-21.186 11.745-17.486 25.55 1.55 5.789 11.113 16.577 20.614 23.258 3.628 2.55 3.992 3.482 3.912 10-.342 27.73-32.21 61.402-66.28 70.027-4.564 1.156-9.199 2.849-10.299 3.761-2.65 2.2-5.333 3.698-5.333 2.979zm57.503-41.805c1.655-2.012 1.441-2.148-2.232-1.42-5.434 1.075-7.84-.57-6.815-4.658.773-3.08.512-3.25-4.82-3.143-5.495.11-5.636.005-5.623-4.22.015-4.939-2.483-5.772-4.728-1.578-2.493 4.66 2.5 10.295 8.342 9.415.528-.08 1.668 1.2 2.533 2.842.865 1.643 2.233 3.428 3.04 3.967 2.625 1.752 8.43 1.074 10.303-1.205zm1.735-17.204c3.253-3.253 2.482-4.485-1.798-2.87-4.741 1.79-8.107-.368-8.107-5.198 0-2.813-.604-3.17-5.375-3.17-6.307 0-8.177-2.741-4.58-6.716 2.577-2.847.839-3.54-3.309-1.32-6.035 3.23-4.016 10.092 3.377 11.479 3.244.608 5.115 1.859 5.91 3.95 2.16 5.683 9.9 7.827 13.882 3.845zM116 73.414c-14.383-2.915-25.848-15.367-26.667-26.967-.475-6.74 7.517-13.114 11.91-13.114 4.611 0 10.305 1.4 13.859 6.889 3.196 5.034 4.1 13.674 1.643 15.713-2.472 2.051-2.647 5.358-.531 10.002 2.092 4.592 2.973 4.301 5.772-1.906 1.957-4.34 2.083-5.674.696-7.346-2.04-2.459-1.084-11.79 1.531-14.944.983-1.185 3.737-2.97 6.12-3.965 3.667-1.533 6.682-1.288 10.44.282 5.425 2.267 8.56 7.851 8.56 12.165 0 9.185-9.011 19.032-20.575 22.482-3.616 1.079-6.916 1.893-7.333 1.808L116 73.414zm25.82-14.844c6.962-5.476 2.536-17.237-6.487-17.237-5.068 0-10 4.932-10 10s4.932 10 10 10c1.636 0 4.555-1.243 6.487-2.763zm-10.557-3.981c-1.854-2.05-2.138-3.294-1.118-4.911 1.744-3.083 5.504-5.076 8.444-2.415 3.385 3.063 2.098 5.795.306 7.864-1.935 2.235-5.34 1.594-7.632-.538zm-19.87.805c6.491-6.49 2.034-16.727-7.283-16.727-6.375 0-9.977 3.695-9.977 10.238 0 9.075 10.666 13.084 17.26 6.489zm-12.182-3.898c-1.167-3.041-.146-6.375 2.456-8.013 3.42-2.154 7.95.334 7.95 5.091 0 3.376-1.727 5.333-5.53 5.7-2.929.282-4.356-1.424-4.876-2.778z" fill="#01a051"/></svg>