<?xml version="1.0" encoding="UTF-8" standalone="no"?>
<svg xmlns="http://www.w3.org/2000/svg" width="200" height="200">
  <path
     style="fill:#01a051;stroke-width:1;fill-opacity:1"
     d="m 24.081457,184.33333 c 0.0448,-2.01666 1.100602,-6.91524 2.346222,-10.8857 l 2.264762,-7.21904 7.987114,-1.65106 c 4.392912,-0.90809 11.478512,-2.96812 15.74578,-4.57785 4.267268,-1.60973 8.042608,-2.64285 8.389646,-2.29581 0.347038,0.34704 -1.194362,2.1669 -3.425334,4.04414 -2.230972,1.87724 -4.056314,3.7519 -4.056314,4.16591 0,0.41401 7.833022,0.75275 17.406715,0.75275 H 88.146763 L 82.661549,159 c -3.016866,-4.21667 -6.44519,-8.00795 -7.618498,-8.42507 -1.665016,-0.59193 -1.135604,-1.44784 2.411832,-3.89921 15.33864,-10.59945 27.909207,-24.59589 33.959537,-37.81154 2.54381,-5.55641 5.37381,-18.834819 5.87775,-27.578465 0.0226,-0.392858 1.09116,-0.739864 2.3745,-0.771124 C 120.95,80.483324 125.15,79.998455 129,79.437092 l 7,-1.02066 -0.0144,9.791784 c -0.0299,20.228054 -9.62348,38.902204 -25.05795,48.775514 -7.01076,4.48472 -7.20711,4.77456 -6.42766,9.48783 0.44221,2.67397 0.81062,5.82209 0.8187,6.9958 0.008,1.17372 3.01467,3.99895 6.68134,6.27827 3.66666,2.27932 6.66666,4.76901 6.66666,5.53264 0,0.89874 6.84678,1.3884 19.41383,1.3884 h 19.41381 l -0.41381,5 -0.41383,5 -57.723859,0.34753 -57.723863,0.34755 -6.729201,5.31912 c -8.010726,6.33212 -10.521099,6.73068 -10.408283,1.65246 z m 84.396073,-19.92197 c 0.50709,-0.50709 -0.9913,-1.55709 -3.32975,-2.33333 -3.54301,-1.17611 -4.65836,-2.6138 -6.69118,-8.62502 -1.341699,-3.9675 -2.703109,-7.4773 -3.025356,-7.79954 -0.717843,-0.71784 -10.097911,2.28437 -10.097911,3.23196 0,2.35745 9.353998,13.1277 12.666667,14.58448 4.42256,1.94488 9.05763,2.36134 10.47753,0.94145 z M 28,163.57965 c 0,-0.31774 0.920116,-3.1856 2.044701,-6.37301 1.124587,-3.18743 2.661211,-11.81285 3.41472,-19.16764 3.097682,-30.23553 14.487526,-50.304881 36.426152,-64.184295 7.391136,-4.675982 8.42363,-7.216165 9.163771,-22.545092 0.660836,-13.68645 3.420116,-20.662773 10.543169,-26.656426 3.168446,-2.666071 4.257719,-4.585722 3.947102,-6.956055 -0.446956,-3.410751 2.108138,-11.0304653 3.698812,-11.0304653 0.503197,0 2.860443,2.7601566 5.238323,6.1336813 4.16966,5.915548 3.98835,6.763949 9.21003,5.25093 4.50656,-1.305808 11.84909,-1.76413 16.73982,-0.183413 l 8.04893,2.60147 4.25734,-4.925008 4.25733,-4.925007 1.47732,3.69034 c 0.81252,2.029687 1.45133,5.79034 1.41957,8.357007 -0.0317,2.566666 0.34967,6.945408 0.84759,9.730537 l 0.90532,5.063872 -5.00607,-3.397205 c -6.45776,-4.382359 -14.75422,-4.5929 -19.94954,-0.506266 -2.96257,2.330356 -4.09626,2.585175 -5.84648,1.314107 C 111.13387,29.276783 108.1875,28.009556 102.87239,28.004984 89.73258,27.993651 81.686111,39.750497 85.385665,53.555095 86.936947,59.343581 96.499263,70.132023 106,76.812697 c 3.6276,2.550835 3.99176,3.481839 3.9115,10 -0.34144,27.730713 -32.210188,61.402173 -66.278601,70.027773 -4.564762,1.15573 -9.199566,2.84816 -10.299566,3.76096 C 30.683243,162.80051 28,164.29888 28,163.57965 Z m 57.503407,-41.80452 c 1.654594,-2.0117 1.440654,-2.14783 -2.232867,-1.42078 -5.433249,1.07534 -7.840204,-0.56978 -6.814267,-4.65744 0.772852,-3.07929 0.511311,-3.24985 -4.819537,-3.14311 -5.496181,0.11005 -5.636415,0.005 -5.623848,-4.22047 0.01469,-4.93814 -2.482768,-5.7714 -4.727405,-1.57725 -2.493616,4.65936 2.49934,10.29502 8.341374,9.41509 0.528104,-0.0795 1.667927,1.1994 2.532939,2.8421 0.865011,1.6427 2.232925,3.42754 3.039809,3.96631 2.624902,1.7527 8.429683,1.07415 10.303802,-1.20445 z m 1.734688,-17.2037 c 3.253314,-3.25332 2.481464,-4.48558 -1.797872,-2.87031 -4.74128,1.78964 -8.10689,-0.36822 -8.10689,-5.197713 0,-2.813643 -0.604362,-3.170074 -5.37518,-3.170074 -6.307278,0 -8.176857,-2.741709 -4.579878,-6.716326 2.576454,-2.84695 0.838692,-3.540526 -3.309064,-1.320714 -6.035116,3.229896 -4.016524,10.092487 3.376612,11.479447 3.244189,0.608613 5.114932,1.858889 5.909878,3.94976 2.16083,5.68341 9.900688,7.82763 13.882394,3.84593 z M 116,73.414036 C 101.61715,70.498528 90.151899,58.047292 89.333333,46.446533 c -0.475532,-6.739266 7.516374,-13.1132 11.909497,-13.1132 4.61121,0 10.30555,1.39966 13.85867,6.888632 3.19633,5.033954 4.10021,13.674139 1.64376,15.712807 -2.47193,2.051521 -2.64753,5.357745 -0.53124,10.002491 2.09222,4.591924 2.97291,4.301021 5.77217,-1.906628 1.95672,-4.339244 2.08306,-5.673964 0.69531,-7.346091 -2.04014,-2.458228 -1.08351,-11.789545 1.53197,-14.943375 0.98259,-1.184836 3.73653,-2.969356 6.11986,-3.965601 3.66627,-1.532515 6.68162,-1.287827 10.4405,0.282726 5.42384,2.266223 8.5595,7.851155 8.5595,12.164337 0,9.185622 -9.0115,19.032348 -20.57533,22.482329 -3.61644,1.078936 -6.91644,1.892701 -7.33333,1.808369 -0.4169,-0.08433 -2.858,-0.579012 -5.42467,-1.099293 z m 25.82019,-14.844143 c 6.96188,-5.476218 2.53596,-17.23656 -6.48686,-17.23656 -5.06785,0 -10,4.932148 -10,10 0,5.067852 4.93215,10 10,10 1.63555,0 4.55463,-1.243548 6.48686,-2.76344 z M 131.2627,54.588619 c -1.85419,-2.048858 -2.13752,-3.293898 -1.11754,-4.910892 1.74366,-3.083184 5.50372,-5.075455 8.44345,-2.415026 3.3849,3.063284 2.098,5.794871 0.3064,7.863982 -1.93545,2.235247 -5.33968,1.594613 -7.63231,-0.538064 z m -19.86876,0.805321 c 6.49044,-6.490444 2.03271,-16.727273 -7.28406,-16.727273 -6.375315,0 -9.976547,3.695648 -9.976547,10.238105 0,9.074736 10.665367,13.084407 17.260607,6.489168 z M 99.211401,51.49638 c -1.167274,-3.041871 -0.14595,-6.375191 2.455269,-8.013316 3.42028,-2.153935 7.95106,0.333445 7.95106,5.091151 0,3.375992 -1.72811,5.333253 -5.53133,5.699777 -2.92817,0.282194 -4.355605,-1.424096 -4.874999,-2.777612 z" />
</svg>
