<svg xmlns="http://www.w3.org/2000/svg" width="1024" height="1024" viewBox="0 0 270.93333 270.93334"><defs><filter id="a" x="-50%" y="-50%" width="200%" height="300" color-interpolation-filters="sRGB"><feComponentTransfer in="SourceAlpha"><feFuncA type="table" tableValues="1 0"/><feFuncR type="identity"/><feFuncG type="identity"/><feFuncB type="identity"/></feComponentTransfer><feGaussianBlur stdDeviation="3"/><feOffset dx="-4" dy="-4" result="offsetblur"/><feFlood flood-color="#fff" result="color" flood-opacity=".6"/><feComposite in2="offsetblur" operator="in"/><feComposite in2="SourceAlpha" operator="in" result="result2"/><feComponentTransfer in="SourceAlpha"><feFuncA type="table" tableValues="1 0"/><feFuncR type="identity"/><feFuncG type="identity"/><feFuncB type="identity"/></feComponentTransfer><feGaussianBlur stdDeviation="3"/><feOffset dx="-6" dy="-6" result="offsetblur"/><feFlood flood-color="#0064A0" result="color" flood-opacity=".1"/><feComposite in2="offsetblur" operator="in"/><feComposite in2="SourceAlpha" operator="in" result="result1"/><feMerge result="fbSourceGraphic"><feMergeNode in="SourceGraphic"/><feMergeNode in="result1"/><feMergeNode in="result2"/></feMerge><feColorMatrix result="fbSourceGraphicAlpha" values="0 0 0 -1 0 0 0 0 -1 0 0 0 0 -1 0 0 0 0 1 0"/><feFlood flood-opacity=".1" flood-color="#000" result="flood"/><feComposite in2="fbSourceGraphic" in="flood" operator="in" result="composite1"/><feGaussianBlur in="composite1" stdDeviation="5" result="blur"/><feOffset dy="10" result="offset"/><feComposite in2="offset" in="fbSourceGraphic" result="composite2"/></filter><filter id="b" x="-50%" y="-50%" width="200%" height="200" color-interpolation-filters="sRGB"><feFlood flood-opacity=".1" flood-color="#000" result="flood"/><feComposite in="flood" in2="SourceGraphic" operator="in" result="composite1"/><feGaussianBlur in="composite1" stdDeviation="5" result="blur"/><feOffset dy="-10" result="offset"/><feComposite in="SourceGraphic" in2="offset" result="composite2"/></filter></defs><path d="M85.2 72v5.3c-4.7.5-7.9 1.2-9.6 2.2-1.7 1-2.6 3.1-2.6 6.6a21.6 21.6 0 0 0 1.2 6.9l22.3 73.6H98L88 217.8h-5.4L42 90.8c-1.7-5.5-3.5-9-5.3-10.6a16.1 16.1 0 0 0-8.1-3V72z" style="line-height:125%" font-weight="700" font-size="201.4" letter-spacing="0" word-spacing="0" font-family="Times"/><rect ry="35" rx="35" y="77.4" x="48.6" height="69.5" width="198.8" transform="matrix(1 0 0 1.03049 2.1 -4.5)" fill="#fff" filter="url(#a)"/><circle r="50.8" cy="79.9" cx="172" fill="#fff" filter="url(#b)"/><circle r="33.5" cy="84.8" cx="115.5" fill="#fff" filter="url(#b)"/><path style="line-height:125%" d="M98 166.6l22.2-61.7c0-.3-.8-3.5-2.8-9.4a84.8 84.8 0 0 0-4-10.9c-1.4-2.4-3-4.2-4.7-5.2a23 23 0 0 0-9.3-2V72h60.2v5.3c-5.6.5-9.3 1.2-11.1 2-1.9.8-2.8 2.7-2.8 5.5 0 .7.2 2 .6 4 .4 2 1.2 4.6 2.2 8l20 67.9h1.3l21-69.3a34.9 34.9 0 0 0 1-3.9c.2-1.4.3-3 .3-4.7 0-4-1.4-6.5-4-7.8-1.7-.8-4.8-1.4-9.4-1.7V72H214v5.3c-3 .5-5.2 1.3-6.9 2.5-2.8 2.1-5 5.8-6.5 11l-38.6 127h-5l-32.4-98.7h-1.3L88 217.8h-5.4z" font-weight="700" font-size="201.4" letter-spacing="0" word-spacing="0" font-family="Times"/></svg>
