<svg xmlns="http://www.w3.org/2000/svg" width="1024" height="1024" viewBox="0 0 270.93333 270.93334"><defs><filter id="a" x="-50%" y="-50%" width="200%" height="300" color-interpolation-filters="sRGB"><feComponentTransfer in="SourceAlpha"><feFuncA type="table" tableValues="1 0"/><feFuncR type="identity"/><feFuncG type="identity"/><feFuncB type="identity"/></feComponentTransfer><feGaussianBlur stdDeviation="3"/><feOffset dx="-4" dy="-4" result="offsetblur"/><feFlood flood-color="#fff" result="color" flood-opacity=".6"/><feComposite in2="offsetblur" operator="in"/><feComposite in2="SourceAlpha" operator="in" result="result2"/><feComponentTransfer in="SourceAlpha"><feFuncA type="table" tableValues="1 0"/><feFuncR type="identity"/><feFuncG type="identity"/><feFuncB type="identity"/></feComponentTransfer><feGaussianBlur stdDeviation="3"/><feOffset dx="-6" dy="-6" result="offsetblur"/><feFlood flood-color="#0064A0" result="color" flood-opacity=".1"/><feComposite in2="offsetblur" operator="in"/><feComposite in2="SourceAlpha" operator="in" result="result1"/><feMerge result="fbSourceGraphic"><feMergeNode in="SourceGraphic"/><feMergeNode in="result1"/><feMergeNode in="result2"/></feMerge><feColorMatrix result="fbSourceGraphicAlpha" values="0 0 0 -1 0 0 0 0 -1 0 0 0 0 -1 0 0 0 0 1 0"/><feFlood flood-opacity=".098" flood-color="#000" result="flood"/><feComposite in2="fbSourceGraphic" in="flood" operator="in" result="composite1"/><feGaussianBlur in="composite1" stdDeviation="5" result="blur"/><feOffset dy="10" result="offset"/><feComposite in2="offset" in="fbSourceGraphic" result="composite2"/></filter><filter id="b" x="-50%" y="-50%" width="200%" height="200" color-interpolation-filters="sRGB"><feFlood flood-opacity=".07" flood-color="#000" result="flood"/><feComposite in="flood" in2="SourceGraphic" operator="in" result="composite1"/><feGaussianBlur in="composite1" stdDeviation="5" result="blur"/><feOffset dy="-10" result="offset"/><feComposite in="SourceGraphic" in2="offset" result="composite2"/></filter></defs><path d="M85.174 71.984v5.349c-4.64.48-7.837 1.2-9.592 2.16-1.693.96-2.54 3.154-2.54 6.582 0 .892.095 1.954.283 3.189.188 1.165.47 2.4.846 3.702l22.287 73.644h1.599l-10.062 51.22h-5.36L41.916 90.808c-1.755-5.555-3.51-9.086-5.266-10.594-1.756-1.509-4.483-2.537-8.181-3.086v-5.143z" style="line-height:125%;-inkscape-font-specification:'Times Bold'" font-weight="700" font-size="201.415" letter-spacing="0" word-spacing="0" font-family="Times"/><rect ry="35" rx="35" y="77.373" x="48.627" height="69.529" width="198.775" transform="matrix(1 0 0 1.03049 2.117 -4.479)" fill="#fff" filter="url(#a)"/><circle r="50.76" cy="79.932" cx="172.005" fill="#fff" filter="url(#b)"/><circle r="33.485" cy="84.838" cx="115.486" fill="#fff" filter="url(#b)"/><path style="line-height:125%;-inkscape-font-specification:'Times Bold'" d="M98.057 166.61l22.099-61.713c.125-.342-.784-3.462-2.727-9.36-1.88-5.896-3.197-9.53-3.95-10.902-1.442-2.468-3.04-4.217-4.796-5.245-1.692-1.029-4.796-1.714-9.31-2.057v-5.35h60.185v5.349c-5.517.48-9.216 1.131-11.096 1.954-1.818.823-2.728 2.674-2.728 5.554 0 .686.189 2.023.565 4.011.439 1.92 1.16 4.594 2.163 8.023l20.03 67.78h1.316l20.97-69.22a34.86 34.86 0 0 0 .941-3.908c.251-1.44.376-3.018.376-4.732 0-3.908-1.347-6.514-4.043-7.817-1.63-.822-4.733-1.371-9.31-1.645v-5.349h35.264v5.349c-2.946.48-5.234 1.303-6.864 2.468-2.822 2.126-5.016 5.794-6.583 11.006L162.003 217.83h-5.078l-32.35-98.74h-1.316l-35.264 98.74h-5.36z" font-weight="700" font-size="201.415" letter-spacing="0" word-spacing="0" font-family="Times"/></svg>